<svg
  width="24"
  height="24"
  viewBox="0 0 24 24"
  fill="none"
  xmlns="http://www.w3.org/2000/svg"
>
  <path
    d="M16.3873 4.19996V2.69799C16.3873 2.30324 16.0599 1.97589 15.6652 1.97589C15.2704 1.97589 14.9431 2.30324 14.9431 2.69799V4.14219H8.68487V2.69799C8.68487 2.30324 8.35752 1.97589 7.96277 1.97589C7.56802 1.97589 7.24067 2.30324 7.24067 2.69799V4.19996C4.64111 4.44066 3.37984 5.99077 3.18728 8.29186C3.16802 8.57107 3.3991 8.80215 3.66868 8.80215H19.9593C20.2385 8.80215 20.4696 8.56145 20.4407 8.29186C20.2481 5.99077 18.9868 4.44066 16.3873 4.19996Z"
    fill="#F35C1B"
  />
  <path
    opacity="0.4"
    d="M19.5164 10.2463C20.0459 10.2463 20.4792 10.6796 20.4792 11.2091V17.14C20.4792 20.0284 19.035 21.954 15.6652 21.954H7.96275C4.59294 21.954 3.14874 20.0284 3.14874 17.14V11.2091C3.14874 10.6796 3.582 10.2463 4.11154 10.2463H19.5164Z"
    fill="#F35C1B"
  />
  <path
    d="M8.44415 15.2144C8.19383 15.2144 7.9435 15.1085 7.76057 14.9352C7.58726 14.7522 7.48135 14.5019 7.48135 14.2516C7.48135 14.0013 7.58726 13.7509 7.76057 13.568C8.03015 13.2984 8.45378 13.2118 8.81002 13.3658C8.93518 13.4139 9.04109 13.4814 9.12774 13.568C9.30105 13.7509 9.40696 14.0013 9.40696 14.2516C9.40696 14.5019 9.30105 14.7522 9.12774 14.9352C8.94481 15.1085 8.69448 15.2144 8.44415 15.2144Z"
    fill="#F35C1B"
  />
  <path
    d="M11.814 15.2144C11.5636 15.2144 11.3133 15.1085 11.1304 14.9352C10.9571 14.7522 10.8512 14.5019 10.8512 14.2516C10.8512 14.0013 10.9571 13.7509 11.1304 13.568C11.217 13.4814 11.3229 13.4139 11.4481 13.3658C11.8043 13.2118 12.228 13.2984 12.4976 13.568C12.6709 13.7509 12.7768 14.0013 12.7768 14.2516C12.7768 14.5019 12.6709 14.7522 12.4976 14.9352C12.4494 14.9737 12.4013 15.0122 12.3531 15.0507C12.2954 15.0892 12.2376 15.1181 12.1798 15.1374C12.1221 15.1663 12.0643 15.1855 12.0065 15.1952C11.9391 15.2048 11.8814 15.2144 11.814 15.2144Z"
    fill="#F35C1B"
  />
  <path
    d="M15.1838 15.2144C14.9334 15.2144 14.6831 15.1085 14.5002 14.9352C14.3269 14.7523 14.221 14.502 14.221 14.2516C14.221 14.0013 14.3269 13.751 14.5002 13.5681C14.5965 13.4814 14.6927 13.414 14.8179 13.3658C14.9912 13.2888 15.1838 13.2696 15.3763 13.3081C15.4341 13.3177 15.4919 13.337 15.5496 13.3658C15.6074 13.3851 15.6652 13.414 15.7229 13.4525C15.7711 13.491 15.8192 13.5295 15.8674 13.5681C16.0407 13.751 16.1466 14.0013 16.1466 14.2516C16.1466 14.502 16.0407 14.7523 15.8674 14.9352C15.8192 14.9737 15.7711 15.0122 15.7229 15.0507C15.6652 15.0893 15.6074 15.1182 15.5496 15.1374C15.4919 15.1663 15.4341 15.1856 15.3763 15.1952C15.3089 15.2048 15.2415 15.2144 15.1838 15.2144Z"
    fill="#F35C1B"
  />
  <path
    d="M8.44415 18.5842C8.31899 18.5842 8.19383 18.5554 8.07829 18.5072C7.95313 18.4591 7.85685 18.3917 7.76057 18.305C7.58726 18.1221 7.48135 17.8718 7.48135 17.6214C7.48135 17.3711 7.58726 17.1208 7.76057 16.9379C7.85685 16.8512 7.95313 16.7838 8.07829 16.7357C8.25159 16.6586 8.44416 16.6394 8.63672 16.6779C8.69448 16.6875 8.75225 16.7068 8.81002 16.7357C8.86779 16.7549 8.92556 16.7838 8.98332 16.8223C9.03146 16.8608 9.0796 16.8994 9.12774 16.9379C9.30105 17.1208 9.40696 17.3711 9.40696 17.6214C9.40696 17.8718 9.30105 18.1221 9.12774 18.305C9.0796 18.3435 9.03146 18.3917 8.98332 18.4206C8.92556 18.4591 8.86779 18.488 8.81002 18.5072C8.75225 18.5361 8.69448 18.5554 8.63672 18.565C8.56932 18.5746 8.51155 18.5842 8.44415 18.5842Z"
    fill="#F35C1B"
  />
  <path
    d="M11.814 18.5842C11.5636 18.5842 11.3133 18.4783 11.1304 18.305C10.9571 18.1221 10.8512 17.8717 10.8512 17.6214C10.8512 17.3711 10.9571 17.1208 11.1304 16.9378C11.4866 16.5816 12.1413 16.5816 12.4976 16.9378C12.6709 17.1208 12.7768 17.3711 12.7768 17.6214C12.7768 17.8717 12.6709 18.1221 12.4976 18.305C12.3146 18.4783 12.0643 18.5842 11.814 18.5842Z"
    fill="#F35C1B"
  />
  <path
    d="M15.1838 18.5842C14.9334 18.5842 14.6831 18.4783 14.5002 18.305C14.3269 18.1221 14.221 17.8717 14.221 17.6214C14.221 17.3711 14.3269 17.1208 14.5002 16.9378C14.8564 16.5816 15.5111 16.5816 15.8674 16.9378C16.0407 17.1208 16.1466 17.3711 16.1466 17.6214C16.1466 17.8717 16.0407 18.1221 15.8674 18.305C15.6844 18.4783 15.4341 18.5842 15.1838 18.5842Z"
    fill="#F35C1B"
  />
</svg>