<svg width="129" height="129" viewBox="0 0 129 129" fill="none" xmlns="http://www.w3.org/2000/svg">
  <circle cx="64.5" cy="64.5" r="64.5" fill="#EC696B" />
  <path
    d="M29.7397 80V75.0327C30.4557 74.2272 31.4104 73.1383 32.6037 71.766C34.4832 69.6777 35.8705 68.0965 36.7655 67.0225C38.7643 64.6358 40.0173 63.0099 40.5245 62.1447C41.0316 61.2497 41.2852 60.2652 41.2852 59.1912C41.2852 58.2962 40.957 57.5504 40.3007 56.9537C39.6444 56.3571 38.809 56.0587 37.7947 56.0587C36.0345 56.0587 34.0954 56.7747 31.9772 58.2067L29.516 54.6267C32.4993 52.2699 35.6169 51.0915 38.8687 51.0915C41.4642 51.0915 43.5376 51.7926 45.089 53.1947C46.6105 54.5671 47.3712 56.4615 47.3712 58.878C47.3712 60.668 46.7745 62.5475 45.5812 64.5165C44.4177 66.4557 42.1355 69.3495 38.7345 73.198C37.8991 74.1527 37.2875 74.8537 36.8997 75.3012H47.058V80H29.7397ZM67.5007 56.372H57.6109V62.1C57.9689 61.9508 58.4612 61.8762 59.0877 61.8762C62.3693 61.8762 64.9201 62.6967 66.7399 64.3375C68.4703 65.9187 69.3354 68.0816 69.3354 70.8262C69.3354 73.7201 68.2614 76.1217 66.1134 78.031C64.2339 79.7017 61.9517 80.537 59.2667 80.537C55.6867 80.537 52.5691 79.2392 49.9139 76.6437L52.3304 72.9295C54.5082 74.5703 56.6115 75.3907 58.6402 75.3907C61.7727 75.3907 63.3389 73.9886 63.3389 71.1842C63.3389 68.0517 61.3252 66.4855 57.2977 66.4855C55.8955 66.4855 54.0607 66.7391 51.7934 67.2462V51.6732H67.5007V56.372ZM79.6758 80L93.2351 53.6422H97.6206L84.0613 80H79.6758ZM84.6878 60.8022C84.6878 63.0397 84.1806 64.8297 83.1663 66.1722C82.152 67.5147 80.7946 68.186 79.0941 68.186C77.3041 68.186 75.9019 67.5446 74.8876 66.2617C73.8732 64.9491 73.3661 63.1442 73.3661 60.847C73.3661 58.6692 73.8732 56.9537 74.8876 55.7007C75.9317 54.4477 77.3339 53.8212 79.0941 53.8212C80.7349 53.8212 82.0774 54.4776 83.1216 55.7902C84.1657 57.0731 84.6878 58.7437 84.6878 60.8022ZM81.4211 60.8917C81.4211 59.7282 81.1824 58.7587 80.7051 57.983C80.2576 57.1775 79.6907 56.7747 79.0046 56.7747C78.3184 56.7747 77.7366 57.1626 77.2593 57.9382C76.8118 58.7139 76.5881 59.6984 76.5881 60.8917C76.5881 62.1746 76.8118 63.2337 77.2593 64.069C77.7068 64.8745 78.2886 65.2772 79.0046 65.2772C79.7206 65.2772 80.3023 64.8745 80.7498 64.069C81.1973 63.2337 81.4211 62.1746 81.4211 60.8917ZM103.662 72.7505C103.662 74.988 103.155 76.778 102.14 78.1205C101.126 79.463 99.7686 80.1343 98.0681 80.1343C96.2781 80.1343 94.8759 79.4779 93.8616 78.1652C92.8472 76.8526 92.3401 75.0626 92.3401 72.7952C92.3401 70.6174 92.8472 68.902 93.8616 67.649C94.9057 66.3662 96.3079 65.7247 98.0681 65.7247C99.7089 65.7247 101.051 66.3811 102.096 67.6937C103.14 69.0064 103.662 70.692 103.662 72.7505ZM100.35 72.84C100.35 71.6765 100.127 70.7069 99.6791 69.9312C99.2316 69.1257 98.6647 68.723 97.9786 68.723C97.2626 68.723 96.6808 69.1108 96.2333 69.8865C95.7858 70.6323 95.5621 71.6168 95.5621 72.84C95.5621 74.1228 95.7858 75.1819 96.2333 76.0172C96.6808 76.8227 97.2626 77.2255 97.9786 77.2255C98.6647 77.2255 99.2316 76.8227 99.6791 76.0172C100.127 75.1819 100.35 74.1228 100.35 72.84Z"
    fill="white" />
</svg>
  