<svg width="442" height="352" viewBox="0 0 442 352" fill="none" xmlns="http://www.w3.org/2000/svg">
  <rect width="442" height="352" rx="30" fill="#43B8E9" />
  <g clip-path="url(#clip0_0_1)">
    <path
      d="M159.573 196.605C159.573 182.695 152.638 175.342 139.516 175.342H120.239C119.94 175.342 119.697 175.586 119.697 175.887V259.709C119.697 260.01 119.94 260.255 120.239 260.255H133.329C133.628 260.255 133.871 260.01 133.871 259.709V226.129H139.516C152.638 226.129 159.573 218.775 159.573 204.866V196.605ZM145.395 205.705C145.395 211.809 143.044 213.063 139.516 213.063H133.871V188.416H139.516C143.044 188.416 145.395 189.666 145.395 195.77V205.709V205.705ZM145.52 192.003C145.104 190.472 144.383 189.438 143.376 188.783C142.368 188.127 141.074 187.862 139.512 187.862C141.074 187.862 142.368 188.131 143.376 188.783C144.383 189.434 145.104 190.468 145.52 192.003ZM133.325 259.709H120.239H133.329H133.325ZM159.027 204.866C159.027 207.383 158.8 209.679 158.347 211.76C158.8 209.683 159.027 207.383 159.027 204.866Z"
      fill="#232B58" />
    <path
      d="M189.856 175.342H172.125C171.858 175.342 171.631 175.537 171.587 175.802L158.019 259.623C157.995 259.782 158.04 259.945 158.141 260.067C158.246 260.189 158.396 260.259 158.554 260.259H170.692C170.964 260.259 171.19 260.059 171.231 259.79L173.541 243.853H187.509L189.787 259.786C189.827 260.055 190.054 260.255 190.325 260.255H203.415C203.573 260.255 203.726 260.185 203.827 260.063C203.933 259.941 203.977 259.778 203.949 259.619L190.386 175.798C190.341 175.533 190.115 175.338 189.848 175.338L189.856 175.342ZM175.249 231.382L180.46 193.591L185.777 231.382H175.249Z"
      fill="#232B58" />
    <path
      d="M227.939 174.145C215.343 174.145 208.12 181.852 208.12 195.289V240.311C208.12 253.748 215.343 261.456 227.939 261.456C240.535 261.456 247.762 253.748 247.762 240.311V228.454C247.762 228.153 247.519 227.908 247.22 227.908H234.846C234.547 227.908 234.304 228.153 234.304 228.454V241.268C234.304 246.056 232.342 248.385 228.303 248.385C224.265 248.385 222.303 246.056 222.303 241.268V194.446C222.303 189.646 224.322 187.211 228.303 187.211C232.285 187.211 234.304 189.646 234.304 194.446V204.145C234.304 204.447 234.547 204.691 234.846 204.691H247.22C247.519 204.691 247.762 204.447 247.762 204.145V195.285C247.762 181.848 240.535 174.141 227.939 174.141V174.145Z"
      fill="#232B58" />
    <path
      d="M282.912 206.715L298.373 176.197C298.433 176.107 298.47 176.005 298.47 175.891C298.47 175.59 298.231 175.346 297.932 175.346H284.83C284.619 175.346 284.429 175.468 284.34 175.659L268.718 208.787V175.895C268.718 175.594 268.475 175.35 268.175 175.35H255.086C254.786 175.35 254.543 175.594 254.543 175.895V259.717C254.543 260.018 254.786 260.263 255.086 260.263H268.175C268.475 260.263 268.718 260.018 268.718 259.717V233.141L273.282 223.849L283.952 259.872C284.021 260.104 284.231 260.263 284.474 260.263H298.158C298.332 260.263 298.494 260.181 298.595 260.043C298.696 259.904 298.729 259.725 298.68 259.558L282.916 206.723L282.912 206.715Z"
      fill="#232B58" />
    <path
      d="M122.4 257.535V178.066H139.516C151.193 178.066 156.866 184.133 156.866 196.604V204.866C156.866 217.342 151.189 223.405 139.516 223.405H133.329C132.135 223.405 131.168 224.378 131.168 225.579V257.531H122.404L122.4 257.535ZM133.325 185.688C132.131 185.688 131.164 186.661 131.164 187.862V213.604C131.164 214.805 132.131 215.779 133.325 215.779H139.512C145.29 215.779 148.098 212.48 148.098 205.701V195.762C148.098 188.982 145.29 185.684 139.512 185.684H133.325V185.688Z"
      fill="url(#paint0_linear_0_1)" />
    <path
      d="M192.206 257.535L190.094 242.758C189.941 241.683 189.022 240.893 187.958 240.893C187.905 240.893 187.853 240.893 187.8 240.897C187.501 240.922 187.217 241.003 186.967 241.134H173.08C172.007 241.134 171.097 241.923 170.939 242.994L168.831 257.539H161.103L173.966 178.07H188.019L200.878 257.539H192.202L192.206 257.535ZM180.577 188.323C179.497 188.323 178.348 189.125 178.198 190.2L172.485 231.63C172.4 232.253 172.586 232.884 172.995 233.36C173.403 233.837 173.998 234.106 174.625 234.106H186.404C187.031 234.106 187.626 233.833 188.035 233.356C188.447 232.88 188.63 232.249 188.541 231.626L182.71 190.196C182.56 189.121 181.646 188.327 180.569 188.327L180.577 188.323Z"
      fill="url(#paint1_linear_0_1)" />
    <path
      d="M227.939 258.732C213.793 258.732 210.823 248.715 210.823 240.311V195.289C210.823 186.885 213.793 176.869 227.939 176.869C242.085 176.869 245.055 186.885 245.055 195.289V201.975H237.003V194.451C237.003 188.119 233.831 184.491 228.295 184.491C222.76 184.491 219.588 188.119 219.588 194.451V241.272C219.588 247.526 222.76 251.109 228.295 251.109C233.831 251.109 237.003 247.522 237.003 241.272V230.632H245.055V240.311C245.055 248.715 242.085 258.732 227.939 258.732Z"
      fill="url(#paint2_linear_0_1)" />
    <path
      d="M286.08 257.535L275.475 221.731C275.22 220.876 274.471 220.262 273.585 220.184C273.525 220.18 273.464 220.176 273.403 220.176C272.586 220.176 271.833 220.64 271.465 221.389L266.229 232.045C266.079 232.347 266.003 232.676 266.003 233.01V257.539H257.238V178.07H266.003V211.218C266.003 212.236 266.703 213.116 267.69 213.34C267.848 213.376 268.009 213.392 268.163 213.392C268.985 213.392 269.753 212.92 270.114 212.146L286.189 178.066H294.383L280.395 205.676C280.144 206.173 280.092 206.751 280.249 207.289L295.241 257.535H286.072H286.08Z"
      fill="url(#paint3_linear_0_1)" />
    <g opacity="0.15">
      <path
        d="M234.62 175.871L225.511 185.855C227.482 186.226 230.545 184.809 231.67 186.25C234.11 183.774 237.331 180.187 238.593 178.762C237.521 177.622 236.214 176.636 234.62 175.871Z"
        fill="#232B58" />
      <path
        d="M210.827 200.513V208.16C213.793 205.318 216.747 202.476 219.592 199.723V192.105L210.827 200.513Z"
        fill="#232B58" />
      <path
        d="M184.308 233.47C184.264 233.47 184.223 233.483 184.179 233.483H178.291L171.125 242.493L175.451 242.294C177.021 240.82 181.01 236.577 184.308 233.466V233.47Z"
        fill="#232B58" />
      <path
        d="M195.686 222.578L194.695 216.458L186.72 224.651L187.444 229.785C187.472 229.977 187.464 230.168 187.444 230.36C189.625 228.303 193.133 224.997 195.69 222.578H195.686Z"
        fill="#232B58" />
    </g>
    <path
      d="M189.05 169.539H157.263C135.502 169.539 117.864 151.786 117.864 129.892V60.7902C117.864 71.1691 126.228 79.5855 136.542 79.5855H298.009V129.892C298.009 151.79 280.367 169.539 258.61 169.539H189.054"
      fill="#2CA6DE" />
    <path
      d="M291.85 78.2907H136.538C126.224 78.2907 117.86 69.8743 117.86 59.4954V66.2342C117.86 76.6131 125.977 83.8283 136.291 83.8283H297.758L298.005 78.2907H291.846H291.85Z"
      fill="#107A93" />
    <path
      d="M253.625 162.841H161.706C137.197 162.841 117.326 142.845 117.326 118.182V125.002C117.326 149.665 137.197 169.661 161.706 169.661H253.625C278.133 169.661 298.005 149.665 298.005 125.002V118.182C298.005 142.845 278.133 162.841 253.625 162.841Z"
      fill="#107A93" />
    <path
      d="M130.218 43.8801H291.846V77.6433H130.218C123.395 77.6433 117.86 72.069 117.86 65.2081V56.3153C117.86 49.4503 123.4 43.8801 130.218 43.8801Z"
      fill="#FCEEF1" />
    <path
      d="M273.844 119.22C273.844 119.22 272.93 127.991 281.868 123.406C281.868 123.406 281.524 126.061 281.156 126.236C280.788 126.411 273.383 130.19 273.383 130.19L269.32 129.257L270.19 124.082L273.848 119.22H273.844Z"
      fill="#661315" />
    <path
      d="M246.892 137.303C246.892 137.303 229.388 155.858 228.801 164.999L220.765 162.438C220.765 162.438 234.203 143.618 246.892 137.303Z"
      fill="#107A93" />
    <path
      d="M284.114 150.63C284.114 150.63 275.746 156.225 266.901 155.752C258.056 155.28 247.475 148.301 235.352 155.308C235.352 155.308 255.191 155.565 261.904 161.322C261.904 161.322 272.893 169.413 284.114 150.63Z"
      fill="#107A93" />
    <path
      d="M282.07 162.858C282.232 162.829 282.216 162.825 282.163 162.858L282.074 162.919L281.9 163.033L281.556 163.257C281.326 163.403 281.099 163.558 280.86 163.684L279.424 164.45C278.441 164.893 277.445 165.349 276.397 165.667C274.318 166.359 272.108 166.775 269.778 166.815C267.471 166.795 264.967 166.424 262.693 165.142C262.13 164.82 261.584 164.47 261.066 164.063C260.564 163.668 260.006 163.143 259.763 162.931C259.168 162.332 258.452 161.819 257.728 161.306C254.681 159.405 250.975 158.077 247.114 157.186C243.242 156.257 239.232 155.671 235.073 155.341C239.054 153.981 243.323 153.562 247.58 153.72C249.712 153.822 251.869 154.046 253.997 154.596C256.134 155.105 258.274 155.83 260.293 156.982C261.297 157.585 262.292 158.212 263.215 159.014L264.263 159.881C264.558 160.109 264.878 160.309 265.205 160.496C266.553 161.192 268.183 161.644 269.96 161.783C271.736 161.974 273.63 161.897 275.564 161.738C276.523 161.628 277.514 161.563 278.493 161.404L279.982 161.2L280.731 161.099L281.103 161.042L281.289 161.013L281.378 160.997C281.378 160.997 281.427 160.98 281.649 160.923L282.058 162.858H282.07Z"
      fill="#232B58" />
    <path
      d="M259.435 94.0444C259.435 94.0444 274.338 103.055 277.126 111.476C279.914 119.896 278.89 127.185 292 115.165C292 115.165 281.48 132.034 271.368 128.394C271.368 128.394 263.077 98.9957 259.431 94.0444H259.435Z"
      fill="#107A93" />
    <path
      d="M207.59 90.3025C207.59 90.3025 215.181 91.6136 222.335 100.14C228.583 107.587 239.516 126.651 244.606 104.888C244.606 104.888 245.638 119.098 241.094 121.757C236.55 124.412 225.957 120.902 215.432 98.4338L207.594 90.3025H207.59Z"
      fill="#107A93" />
    <path
      d="M234.652 78.2948C238.876 83.1769 242.186 88.5312 244.513 94.5453C246.775 100.51 247.952 107.184 246.88 113.768C246.625 115.413 246.245 117.009 245.702 118.646C245.12 120.271 244.399 121.965 242.971 123.54C242.259 124.314 241.328 125.047 240.203 125.495C239.087 125.943 237.853 126.081 236.756 125.967C234.555 125.715 232.872 124.807 231.403 123.866C225.73 119.884 221.991 114.835 219.13 109.13L222.396 107.058C224.306 109.277 226.24 111.582 228.174 113.74C230.096 115.902 232.103 118.031 234.264 119.481C235.324 120.197 236.44 120.698 237.274 120.784C238.095 120.841 238.549 120.686 239.22 120.002C240.56 118.589 241.425 115.629 241.883 112.933C242.858 107.424 242.089 101.61 240.163 96.1495C238.253 90.7137 235.34 85.3634 231.775 80.8804L234.652 78.2907V78.2948Z"
      fill="#232B58" />
    <path
      d="M205.899 89.1257C210.334 90.6241 214.153 93.6739 217.233 97.2571C220.36 100.836 222.711 105.112 224.273 109.623C225.689 114.175 226.547 118.915 226.381 123.626C226.474 125.971 225.989 128.308 225.734 130.601C225.248 132.885 224.629 135.129 223.856 137.307C223.444 134.978 223.334 132.73 223.08 130.507C222.703 128.288 222.586 126.089 222.145 123.939C221.453 119.619 220.352 115.478 219.062 111.423C216.189 103.405 212.045 95.9867 205.895 89.1257H205.899Z"
      fill="#232B58" />
    <path
      d="M219.41 100.144C219.41 100.144 228.315 114.175 235.081 120.234C235.081 120.234 225.184 119.131 221.979 111.48L219.406 100.148L219.41 100.144Z"
      fill="#232B58" />
    <path
      d="M258.606 171.486H157.259C134.47 171.486 115.93 152.829 115.93 129.896V60.7902C115.93 59.7193 115.728 58.848 116.796 58.848C117.864 58.848 117.326 63.1355 117.326 64.2064C117.326 73.4982 127.409 79.0236 136.643 79.0236L298.005 77.6433C298.514 77.6433 299.008 77.8469 299.368 78.2134C299.728 78.5798 299.935 79.0725 299.935 79.5855V129.892C299.935 152.825 281.395 171.482 258.606 171.482V171.486ZM119.79 72.863V129.892C119.79 150.683 136.598 167.597 157.259 167.597H258.606C279.266 167.597 296.074 150.683 296.074 129.892V81.5278H136.538C129.647 81.5278 123.533 78.1075 119.79 72.863Z"
      fill="#232B58" />
    <path
      d="M181.965 143.663C181.965 143.663 192.963 134.799 188.375 116.753C185.732 106.374 176.264 99.0446 165.683 100.278C158.987 101.06 153.455 103.353 153.455 103.353C153.455 103.353 175.253 98.2465 181.743 114.92C188.233 131.594 181.961 143.663 181.961 143.663H181.965Z"
      fill="#107A93" />
    <path
      d="M150.793 104.611C153.306 103.076 156.11 102.155 158.995 101.63C161.888 101.076 164.91 100.999 167.949 101.459C170.976 101.931 174.067 102.953 176.794 104.778C179.521 106.577 181.872 109.077 183.479 111.92C186.704 117.697 187.064 124.102 186.428 129.86C185.635 135.67 183.891 141.139 181.322 146.204C181.536 140.524 181.893 135.019 181.504 129.709C181.334 127.075 180.966 124.485 180.339 122.083C179.76 119.66 178.821 117.421 177.579 115.511C175.115 111.647 171.218 109.236 166.521 107.701C161.811 106.134 156.53 105.352 150.797 104.603L150.793 104.611Z"
      fill="#232B58" />
    <path
      d="M172.776 115.067C172.776 115.067 140.544 143.309 132.807 99.0405C132.807 99.0405 125.427 123.817 150.866 130.198C150.866 130.198 161.997 131.969 172.776 115.071V115.067Z"
      fill="#107A93" />
    <path
      d="M127.154 146.208C127.154 146.208 146.083 167.019 171.473 146.326C171.473 146.326 149.64 182.634 127.154 146.208Z"
      fill="#107A93" />
    <path
      d="M169.292 149.869C169.292 149.869 160.949 162.841 175.665 162.841V166.893L166.937 164.311L157.259 167.597C157.259 167.597 155.155 161.046 169.292 149.869Z"
      fill="#107A93" />
    <path
      d="M134.935 161.16C139.152 161.893 143.457 162.141 147.459 161.449C151.493 160.854 155.256 159.356 158.744 157.161C162.248 154.95 165.153 151.766 168.022 148.46L171.959 143.073C173.12 141.151 174.334 139.229 175.665 137.307C175.172 139.555 174.557 141.798 173.893 144.042C173.047 146.204 172.121 148.374 171.069 150.492L169.191 153.529L168.22 155.044L167.047 156.424C166.25 157.336 165.485 158.285 164.639 159.169L161.807 161.542C157.886 164.555 152.986 166.502 148.005 166.819C143.016 167.096 138.079 166.025 133.94 163.253L134.931 161.16H134.935Z"
      fill="#232B58" />
    <path
      d="M200.817 149.156C200.817 149.156 193.829 161.868 182.714 163.053V164.995L192.765 164.238L200.817 149.152V149.156Z"
      fill="#107A93" />
    <path
      d="M217.026 167.601C217.026 167.601 222.715 152.515 232.783 140.426C242.854 128.337 261.56 128.573 264.582 121.407C267.605 114.241 266.237 109.354 263.215 98.9469C263.215 98.9469 273.136 111.793 270.186 124.086C267.237 136.375 257.752 127.51 239.52 140.434C221.283 153.358 217.026 167.605 217.026 167.605V167.601Z"
      fill="#107A93" />
    <path
      d="M259.063 130.129C260.568 129.563 262.235 128.699 263.619 127.771C264.946 126.737 266.209 125.666 267.014 124.326C268.786 121.777 269.151 118.459 268.418 114.998C268.39 114.135 267.961 113.28 267.755 112.412C267.467 111.553 267.322 110.661 266.909 109.81L265.829 107.225C265.533 106.329 265.108 105.474 264.655 104.631C263.753 102.945 263.069 101.109 262.078 99.4192C261.139 97.6968 260.237 95.9337 259.431 94.0444C262.575 96.5527 265.468 99.3825 267.864 102.693C270.328 105.938 272.222 109.729 273.33 113.947C274.504 118.072 274.152 123.394 271.23 127.282C269.863 129.257 268.001 130.695 266.083 131.835C264.085 132.889 262.118 133.606 259.804 133.944L259.063 130.133V130.129Z"
      fill="#232B58" />
    <path
      d="M167.18 79.5896C167.18 79.5896 203.063 84.9644 208.986 109.497C214.91 134.029 199.834 159.164 191.794 166.27C191.794 166.27 208.185 150.968 201.323 115.169C194.456 87.1753 167.18 79.5896 167.18 79.5896Z"
      fill="#107A93" />
    <path
      d="M127.656 123.17C134.033 135.039 145.128 145.723 159.193 139.082C163.215 137.23 166.808 134.449 170.085 131.37C170.154 131.293 170.288 131.415 170.207 131.493C167.107 134.807 163.688 137.885 159.606 139.942C147.754 146.184 136.906 139.844 130.039 129.62C128.757 127.706 127.6 125.751 126.653 123.634C126.531 123.353 126.653 123.027 126.932 122.901C127.207 122.779 127.527 122.901 127.652 123.17H127.656Z"
      fill="#FADCEB" />
    <path
      d="M173.816 121.061C174.221 122.836 174.803 124.575 175.16 126.37C175.329 127.225 175.386 128.076 175.471 128.94C175.52 129.408 175.548 129.876 175.597 130.344C175.645 130.813 175.637 131.318 175.823 131.778C176.074 132.388 176.835 132.551 177.223 131.961C177.761 131.142 177.777 129.896 177.773 128.94C177.773 127.914 177.559 126.855 177.32 125.861C177.081 124.868 176.762 123.931 176.313 123.06C176.086 122.616 175.795 122.221 175.524 121.806C175.228 121.35 174.901 121.024 174.496 120.662C174.188 120.385 173.715 120.654 173.808 121.065L173.816 121.061Z"
      fill="#FADCEB" />
    <path
      d="M153.403 90.0134C164.963 88.0141 177.814 90.9906 186.141 99.6513C186.4 99.9363 187.569 101.247 187.796 101.504C188.229 102.066 188.872 102.909 189.305 103.475C189.86 104.297 190.402 105.128 190.932 105.967C192.235 108.222 193.376 110.682 194.222 113.153C194.65 114.208 195.055 115.824 195.387 116.92C195.557 117.465 195.702 118.284 195.828 118.837C196.261 120.682 196.564 122.779 196.819 124.648C196.88 125.145 196.135 125.283 196.046 124.758L195.298 120.959L194.82 119.086C194.679 118.54 194.497 117.746 194.315 117.225C193.963 116.15 193.526 114.599 193.089 113.573C192.235 111.227 191.025 108.821 189.771 106.671C189.257 105.869 188.731 105.067 188.193 104.281C187.772 103.739 187.153 102.937 186.732 102.4C186.517 102.155 185.376 100.901 185.138 100.637C184.907 100.421 183.628 99.1952 183.418 98.9998C179.226 95.3311 174.14 92.8025 168.726 91.5281C163.773 90.3513 158.562 90.0174 153.504 90.5956C153.342 90.6282 153.176 90.5101 153.16 90.3391C153.144 90.1844 153.249 90.0419 153.399 90.0174L153.403 90.0134Z"
      fill="#FADCEB" />
    <path
      d="M167.018 113.528C163.919 118.614 156.688 120.169 151.153 119.697C150.89 119.68 150.862 119.277 151.129 119.232C151.845 119.102 152.561 119.009 153.269 118.911C156.696 118.333 160.184 117.421 163.203 115.67C164.396 114.982 165.562 114.167 166.525 113.202C166.743 112.929 167.188 113.21 167.018 113.528Z"
      fill="#FADCEB" />
    <path
      d="M207.728 93.9548C212.478 100.795 215.845 108.597 217.953 116.655C218.568 119.066 219.005 121.59 219.341 124.053C219.462 125.263 219.555 126.59 219.644 127.804C219.656 129.009 219.665 130.365 219.64 131.562C219.64 131.692 219.531 131.794 219.406 131.79C219.28 131.79 219.183 131.688 219.179 131.566C219.037 130.385 218.904 129.062 218.791 127.873C217.641 119.31 215.121 110.979 211.726 103.051C210.427 100.067 209.003 96.9802 207.457 94.1259C207.412 94.0485 207.437 93.9426 207.522 93.8978C207.595 93.8571 207.684 93.8816 207.728 93.9467V93.9548Z"
      fill="#FADCEB" />
    <path
      d="M238.217 110.173C237.788 101.834 235.137 93.0306 228.773 87.3464C227.899 86.5157 226.911 85.8276 225.928 85.1232C225.726 84.9888 225.673 84.7119 225.811 84.5124C225.936 84.3332 226.175 84.2803 226.365 84.3862C233.11 88.0019 237.242 95.2741 238.508 102.697C238.945 105.177 239.131 107.681 238.941 110.205C238.901 110.661 238.217 110.645 238.217 110.173Z"
      fill="#FADCEB" />
    <path
      d="M292.279 85.2372C293.424 96.9069 290.466 110.853 281.945 119.294C281.856 119.383 281.702 119.253 281.783 119.147C287.217 111.92 289.892 103.112 291.15 94.2399C291.567 91.2716 291.854 88.2707 291.972 85.2575C291.972 85.172 292.044 85.0988 292.133 85.1028C292.21 85.1028 292.271 85.1639 292.279 85.2372Z"
      fill="#FADCEB" />
    <path
      d="M259.767 106.309C259.933 106.419 259.957 106.488 260.075 106.61C261.22 108.047 261.932 109.794 262.239 111.61C262.984 115.625 260.973 119.725 257.789 122.115C256.259 123.333 254.531 124.233 252.735 124.86C252.642 124.892 252.545 124.843 252.512 124.75C252.484 124.672 252.516 124.587 252.581 124.546C254.155 123.504 255.676 122.441 257.004 121.187C261.386 117.278 262.268 111.871 259.743 106.618C259.723 106.573 259.666 106.512 259.698 106.508C259.565 106.467 259.638 106.252 259.767 106.305V106.309Z"
      fill="#FADCEB" />
    <path
      d="M289.491 129.791C288.152 132.779 283.919 134.783 281.002 135.902C277.284 137.303 273.391 138.113 269.474 138.635C266.464 139.009 263.364 139.082 260.37 139.351C258.659 139.502 256.975 139.795 255.341 140.304C253.686 140.78 252.091 141.631 250.546 142.348C253.281 140.182 256.781 138.863 260.249 138.366C263.704 137.869 267.148 137.694 270.571 137.091C274.164 136.497 277.729 135.617 281.188 134.481C282.989 133.838 284.797 133.146 286.448 132.169C287.529 131.529 288.641 130.788 289.358 129.738C289.374 129.697 289.43 129.677 289.467 129.701C289.495 129.721 289.507 129.758 289.495 129.791H289.491Z"
      fill="#FADCEB" />
    <path opacity="0.29"
      d="M119.79 54.0677C119.79 53.4814 119.827 52.9032 119.879 52.329C118.601 54.8739 117.864 57.7445 117.864 60.7902C117.864 71.1692 126.228 79.5856 136.542 79.5856H291.854V72.863H138.468C128.154 72.863 119.79 64.4467 119.79 54.0677Z"
      fill="#4C4748" />
    <path
      d="M291.85 43.8801V77.6433H134.636C125.37 77.6433 117.86 70.0861 117.86 60.7617C117.86 51.4373 125.37 43.8801 134.636 43.8801H291.85ZM295.71 39.9956H134.636C123.258 39.9956 114 49.3118 114 60.7617C114 72.2115 123.258 81.5278 134.636 81.5278H295.71V39.9956Z"
      fill="#232B58" />
    <path opacity="0.29" d="M143.384 56.9302V58.848V61.6046H291.85V56.9302H181.265" fill="#4C4748" />
    <path
      d="M291.85 62.7365H139.01C137.946 62.7365 137.08 61.8652 137.08 60.7943C137.08 59.7234 137.946 58.8521 139.01 58.8521H291.85C292.914 58.8521 293.78 59.7234 293.78 60.7943C293.78 61.8652 292.914 62.7365 291.85 62.7365Z"
      fill="#232B58" />
    <path
      d="M298.009 43.8882H290.373C289.309 43.8882 288.443 43.0168 288.443 41.946C288.443 40.8751 289.309 40.0037 290.373 40.0037H298.009C299.073 40.0037 299.939 40.8751 299.939 41.946C299.939 43.0168 299.073 43.8882 298.009 43.8882Z"
      fill="#232B58" />
    <path
      d="M198.341 148C198.183 148.509 198.017 149.009 197.835 149.502C197.693 149.909 197.487 150.341 197.248 150.846C196.779 151.827 196.257 152.837 195.735 153.83C194.679 155.899 193.635 157.585 192.336 159.584L188.63 165.411L188.565 165.512L188.508 165.626L188.225 166.172L185.785 169.666H192.478L192.809 169.185L192.915 169.034L192.995 168.876L193.307 168.269L196.933 162.54C198.146 160.679 199.514 158.444 200.538 156.396C201.084 155.349 201.618 154.311 202.14 153.216C202.391 152.682 202.682 152.071 202.925 151.391C203.14 150.805 203.338 150.211 203.52 149.62C204.248 147.242 204.73 144.836 205.066 142.438C205.717 137.637 205.79 132.861 205.592 128.142C205.49 125.772 205.333 123.451 205.078 121.069C204.807 118.638 204.374 116.236 203.755 113.882C201.298 104.456 196.075 95.7546 188.694 89.3741C181.411 82.9448 171.765 78.9381 161.912 79.0725C157.004 79.0725 152.14 80.123 147.629 81.9105C145.359 82.7819 143.21 83.9098 141.114 85.1028C138.949 86.3813 136.942 88.0182 135.243 89.9482C131.82 93.8205 129.93 98.9346 129.687 103.967C129.4 109.025 130.561 114.017 132.726 118.471C134.895 122.913 138.172 126.932 142.559 129.567C146.892 132.254 152.577 132.995 157.429 131.334C162.3 129.721 166.217 126.464 169.357 122.86C172.513 119.228 175.026 115.181 177.211 111.02L174.14 109.371C171.987 113.32 169.535 117.107 166.598 120.377C163.68 123.634 160.172 126.354 156.259 127.563C152.363 128.793 148.159 128.178 144.695 125.988C141.215 123.83 138.452 120.397 136.663 116.557C133.022 108.939 133.204 99.1545 138.763 93.0753C140.119 91.5647 141.721 90.274 143.518 89.2316C145.419 88.177 147.353 87.1794 149.377 86.4261C153.399 84.8748 157.659 83.9993 161.928 84.0401C170.482 84.0034 178.866 87.5418 185.291 93.3034C191.769 99.0283 196.431 106.822 198.604 115.234C199.154 117.335 199.53 119.485 199.769 121.639C200 123.842 200.153 126.126 200.238 128.361C200.416 132.853 200.327 137.34 199.724 141.68C199.417 143.846 198.98 145.972 198.353 148.004L198.341 148Z"
      fill="#232B58" />
    <path
      d="M293.78 106.516C292.623 110.181 291.195 113.707 289.155 116.753C286.473 120.939 282.507 123.675 277.81 125.157C273.128 126.696 267.937 127.405 262.761 128.528C260.164 129.062 257.554 129.656 254.956 130.361C252.379 131.033 249.745 131.855 247.171 132.95C244.59 133.976 242.154 135.336 239.762 136.753C237.44 138.276 235.202 139.929 233.131 141.77C228.979 145.438 225.447 149.742 222.562 154.388C221.833 155.553 221.162 156.721 220.49 157.955C220.11 158.554 219.972 159.221 219.713 159.853L218.88 161.648C217.751 164.03 216.638 166.42 215.582 168.843L215.226 169.666H242.898L244.828 167.748L240.244 167.784L219.972 167.951C220.854 166.518 221.72 165.081 222.578 163.635L223.598 161.941C223.97 161.42 224.399 160.895 224.71 160.37C225.366 159.331 226.074 158.261 226.814 157.239C229.732 153.106 233.11 149.36 236.873 146.106C240.661 142.885 244.857 140.198 249.393 138.24C253.876 136.338 258.922 134.909 263.911 133.687C268.936 132.445 274.144 131.436 279.351 129.424C281.937 128.41 284.522 127.067 286.719 125.173C288.933 123.312 290.737 121.016 292.105 118.569C292.736 117.416 293.291 116.24 293.776 115.047V106.508L293.78 106.516Z"
      fill="#232B58" />
    <g filter="url(#filter0_d_0_1)">
      <path
        d="M121.235 319.198V270.471H136.093C138.569 270.471 140.438 271.041 141.705 272.173C142.971 273.309 143.817 274.897 144.25 276.933C144.679 278.973 144.897 281.371 144.897 284.115C144.897 286.86 144.562 288.895 143.894 290.483C143.226 292.071 141.964 293.167 140.111 293.778C141.632 294.091 142.7 294.852 143.315 296.062C143.93 297.271 144.238 298.835 144.238 300.752V319.194H134.693V300.121C134.693 298.7 134.405 297.817 133.827 297.475C133.248 297.133 132.318 296.962 131.035 296.962V319.194H121.243L121.235 319.198ZM131.083 288.525H133.422C134.761 288.525 135.429 287.055 135.429 284.119C135.429 282.218 135.283 280.976 134.988 280.381C134.697 279.791 134.142 279.494 133.337 279.494H131.083V288.521V288.525Z"
        fill="white" />
      <path
        d="M145.326 320.293H133.6V300.121C133.6 298.68 133.272 298.419 133.272 298.419C133.115 298.326 132.783 298.191 132.119 298.114V320.293H120.146V269.371H136.093C138.828 269.371 140.964 270.039 142.425 271.354C143.862 272.641 144.837 274.441 145.314 276.709C145.759 278.814 145.982 281.306 145.982 284.119C145.982 286.933 145.614 289.201 144.889 290.915C144.408 292.055 143.671 292.988 142.688 293.7C143.356 294.181 143.89 294.804 144.278 295.565C144.97 296.925 145.318 298.672 145.318 300.757V320.293H145.326ZM135.781 318.102H143.149V300.757C143.149 299.026 142.882 297.613 142.348 296.563C141.887 295.655 141.082 295.097 139.892 294.852L135.85 294.022L139.771 292.735C141.32 292.23 142.344 291.355 142.89 290.056C143.497 288.61 143.809 286.611 143.809 284.115C143.809 281.456 143.603 279.115 143.186 277.157C142.805 275.361 142.065 273.956 140.985 272.987C139.929 272.042 138.282 271.562 136.097 271.562H122.323V318.098H129.938V295.866H131.027C132.528 295.866 133.62 296.082 134.373 296.53C135.316 297.088 135.777 298.261 135.777 300.121V318.098L135.781 318.102ZM133.426 289.62H129.999V278.402H133.345C134.984 278.402 135.692 279.339 135.967 279.893C136.352 280.666 136.526 281.969 136.526 284.119C136.526 287.768 135.482 289.62 133.426 289.62ZM132.176 287.43H133.426C133.985 287.43 134.345 286.135 134.345 284.123C134.345 281.721 134.094 281.029 134.021 280.874C133.972 280.776 133.879 280.597 133.345 280.597H132.18V287.43H132.176Z"
        fill="#232B58" />
      <path
        d="M148.086 319.198V270.471H167.455V279.885H157.939V289.38H167.071V298.546H157.939V309.702H168.091V319.198H148.09H148.086Z"
        fill="white" />
      <path
        d="M169.175 320.293H146.993V269.371H168.54V280.976H159.023V288.281H168.155V299.637H159.023V308.603H169.171V320.293H169.175ZM149.174 318.102H166.998V310.798H156.85V297.446H165.983V290.475H156.85V278.785H166.367V271.562H149.178V318.098L149.174 318.102Z"
        fill="#232B58" />
      <path
        d="M175.734 319.198L169.766 270.442H178.983L182.532 303.611L185.696 270.442H194.913L188.945 319.198H175.738H175.734Z"
        fill="white" />
      <path
        d="M189.904 320.293H174.775L168.536 269.347H179.962L182.471 292.796L184.709 269.347H196.144L189.904 320.293ZM176.701 318.102H187.982L193.683 271.542H186.683L182.593 314.426L178.008 271.542H171L176.701 318.102Z"
        fill="#232B58" />
      <path d="M197.276 319.198V270.471H206.631V319.198H197.276Z" fill="white" />
      <path
        d="M207.72 320.293H196.188V269.371H207.72V320.293ZM198.365 318.102H205.543V271.566H198.365V318.102Z"
        fill="#232B58" />
      <path
        d="M221.983 319.642C217.56 319.642 214.376 318.534 212.422 316.319C210.467 314.104 209.492 310.578 209.492 305.745V300.985H219.066V307.076C219.066 308.204 219.236 309.083 219.576 309.723C219.915 310.358 220.506 310.675 221.352 310.675C222.198 310.675 222.841 310.419 223.181 309.902C223.521 309.385 223.691 308.534 223.691 307.353C223.691 305.859 223.545 304.608 223.25 303.603C222.958 302.597 222.448 301.636 221.724 300.724C221 299.808 219.996 298.745 218.714 297.528L214.368 293.374C211.123 290.292 209.496 286.766 209.496 282.8C209.496 278.834 210.455 275.483 212.369 273.305C214.287 271.126 217.059 270.039 220.692 270.039C225.131 270.039 228.279 271.232 230.14 273.61C232.002 275.992 232.932 279.608 232.932 284.461H223.084V281.11C223.084 280.447 222.898 279.929 222.521 279.563C222.145 279.192 221.635 279.009 220.996 279.009C220.227 279.009 219.66 279.225 219.304 279.661C218.948 280.096 218.766 280.654 218.766 281.338C218.766 282.022 218.948 282.759 219.317 283.553C219.681 284.343 220.409 285.259 221.489 286.294L227.073 291.693C228.19 292.764 229.218 293.892 230.152 295.085C231.087 296.274 231.84 297.658 232.41 299.238C232.977 300.818 233.264 302.74 233.264 305.012C233.264 309.588 232.426 313.176 230.747 315.769C229.068 318.363 226.147 319.658 221.983 319.658V319.642Z"
        fill="white" />
      <path
        d="M221.983 320.737C217.261 320.737 213.769 319.495 211.608 317.048C209.48 314.637 208.4 310.834 208.4 305.745V299.885H219.535C219.07 299.397 218.544 298.871 217.961 298.318L213.611 294.164C210.156 290.883 208.4 287.059 208.4 282.792C208.4 278.525 209.46 274.946 211.548 272.572C213.672 270.157 216.743 268.932 220.688 268.932C225.455 268.932 228.922 270.275 230.99 272.922C232.997 275.487 234.017 279.363 234.017 284.449V285.544H222.299L227.826 290.887C228.983 291.998 230.055 293.175 231.01 294.388C232.014 295.663 232.827 297.165 233.434 298.847C234.041 300.537 234.353 302.605 234.353 304.995C234.353 309.767 233.442 313.587 231.658 316.352C229.776 319.259 226.519 320.737 221.983 320.737ZM210.581 302.076V305.74C210.581 310.276 211.475 313.595 213.235 315.59C214.963 317.549 217.904 318.542 221.983 318.542C225.791 318.542 228.356 317.435 229.833 315.15C231.387 312.752 232.172 309.332 232.172 304.991C232.172 302.858 231.909 301.042 231.387 299.592C230.861 298.13 230.161 296.835 229.303 295.744C228.413 294.612 227.409 293.509 226.321 292.466L220.733 287.063C219.543 285.927 218.754 284.921 218.329 283.997C217.896 283.061 217.674 282.161 217.674 281.322C217.674 280.377 217.941 279.583 218.459 278.948C219.033 278.252 219.887 277.902 220.992 277.902C221.922 277.902 222.695 278.195 223.278 278.769C223.869 279.347 224.168 280.133 224.168 281.102V283.358H231.824C231.694 279.327 230.84 276.277 229.283 274.282C227.648 272.189 224.755 271.13 220.688 271.13C217.35 271.13 214.894 272.075 213.178 274.025C211.451 275.992 210.577 278.94 210.577 282.796C210.577 286.652 212.058 289.681 215.104 292.576L219.454 296.73C220.765 297.971 221.809 299.083 222.57 300.036C223.379 301.058 223.958 302.153 224.289 303.293C224.609 304.389 224.775 305.757 224.775 307.353C224.775 308.762 224.548 309.792 224.091 310.5C223.707 311.083 222.926 311.771 221.348 311.771C219.77 311.771 218.985 310.936 218.613 310.236C218.184 309.438 217.973 308.403 217.973 307.076V302.08H210.577L210.581 302.076ZM220.158 300.553V307.068C220.158 307.996 220.288 308.729 220.535 309.193C220.632 309.377 220.781 309.572 221.352 309.572C221.688 309.572 222.121 309.523 222.278 309.291C222.376 309.144 222.602 308.648 222.602 307.349C222.602 305.96 222.469 304.804 222.206 303.908C221.955 303.041 221.506 302.198 220.874 301.404C220.66 301.135 220.421 300.854 220.158 300.557V300.553ZM220.996 280.092C220.7 280.092 220.312 280.137 220.138 280.345C219.948 280.573 219.855 280.894 219.855 281.322C219.855 281.839 220.004 282.429 220.3 283.073C220.583 283.68 221.15 284.408 221.991 285.243V281.098C221.991 280.565 221.817 280.394 221.761 280.337C221.696 280.271 221.51 280.092 220.992 280.092H220.996Z"
        fill="#232B58" />
      <path d="M236.04 319.198V270.471H245.395V319.198H236.04Z" fill="white" />
      <path
        d="M246.483 320.293H234.951V269.371H246.483V320.293ZM237.128 318.102H244.306V271.566H237.128V318.102Z"
        fill="#232B58" />
      <path
        d="M260.799 319.642C256.931 319.642 253.973 318.465 251.926 316.111C249.882 313.758 248.858 310.358 248.858 305.911V282.767C248.858 278.598 249.87 275.43 251.897 273.272C253.924 271.11 256.89 270.031 260.799 270.031C264.708 270.031 267.674 271.11 269.701 273.272C271.728 275.43 272.74 278.598 272.74 282.767V305.911C272.74 310.362 271.716 313.762 269.673 316.111C267.629 318.465 264.671 319.642 260.799 319.642ZM260.884 310.671C262.353 310.671 263.085 309.242 263.085 306.38V282.601C263.085 280.198 262.369 279.001 260.941 279.001C259.326 279.001 258.521 280.227 258.521 282.682V306.437C258.521 307.951 258.703 309.035 259.071 309.69C259.435 310.346 260.042 310.671 260.888 310.671H260.884Z"
        fill="white" />
      <path
        d="M260.799 320.737C256.619 320.737 253.358 319.422 251.108 316.832C248.895 314.287 247.77 310.61 247.77 305.911V282.767C247.77 278.325 248.895 274.876 251.108 272.523C253.334 270.145 256.595 268.936 260.799 268.936C265.003 268.936 268.26 270.141 270.49 272.523C272.703 274.876 273.828 278.325 273.828 282.767V305.911C273.828 310.61 272.703 314.283 270.49 316.832C268.24 319.422 264.975 320.737 260.799 320.737ZM260.799 271.126C257.222 271.126 254.491 272.099 252.694 274.021C250.874 275.959 249.951 278.899 249.951 282.763V305.907C249.951 310.061 250.89 313.253 252.747 315.387C254.592 317.508 257.226 318.542 260.799 318.542C264.372 318.542 267.01 317.512 268.855 315.387C270.708 313.249 271.651 310.061 271.651 305.907V282.763C271.651 278.899 270.729 275.959 268.908 274.021C267.079 272.071 264.429 271.126 260.799 271.126ZM260.884 311.767C259.31 311.767 258.513 310.928 258.116 310.228C257.651 309.397 257.424 308.159 257.424 306.441V282.686C257.424 278.533 259.626 277.91 260.933 277.91C262.142 277.91 264.17 278.521 264.17 282.605V306.384C264.17 310.834 262.381 311.771 260.88 311.771L260.884 311.767ZM260.937 280.096C260.54 280.096 259.605 280.096 259.605 282.682V306.437C259.605 308.163 259.86 308.88 260.014 309.149C260.127 309.356 260.297 309.572 260.884 309.572C261.851 309.572 261.993 307.569 261.993 306.376V282.596C261.993 280.092 261.2 280.092 260.937 280.092V280.096Z"
        fill="#232B58" />
      <path
        d="M276.648 319.198V270.471H286.606L291.061 293.81V270.471H300.416V319.198H290.952L286.108 294.836V319.198H276.644H276.648Z"
        fill="white" />
      <path
        d="M301.509 320.293H290.062L287.201 305.895V320.293H275.56V269.371H287.504L289.973 282.299V269.371H301.505V320.293H301.509ZM291.846 318.102H299.328V271.566H292.15V293.81L289.993 294.018L285.708 271.566H277.737V318.102H285.02V294.836L287.177 294.62L291.842 318.102H291.846Z"
        fill="#232B58" />
    </g>
    <path d="M151.606 265.483V259.306L164.676 253.271V262.877L151.606 265.483Z" fill="white" />
    <path
      d="M150.518 266.814V258.601L165.764 251.557V263.777L150.518 266.81V266.814ZM152.695 260.01V264.147L163.587 261.977V254.978L152.695 260.01Z"
      fill="#232B58" />
    <path
      d="M201.626 146.208C201.626 146.208 193.602 165.301 182.714 178.79L175.665 188.994H197.827L183.891 224.602L240.244 169.666L217.026 170.044L231.718 146.208H201.63H201.626Z"
      fill="url(#paint4_linear_0_1)" />
    <path opacity="0.36"
      d="M209.565 185.379C209.921 182.308 202.063 181.563 196.435 182.374C190.806 183.184 189.823 181.958 197.863 169.417C203.771 160.199 204.034 150.638 203.755 146.208H201.626C201.626 146.208 193.602 165.301 182.714 178.79L175.665 188.994H197.827L183.912 224.557C195.035 211.194 209.338 187.357 209.569 185.387L209.565 185.379Z"
      fill="url(#paint5_linear_0_1)" />
    <path opacity="0.26"
      d="M239.321 169.678L217.022 170.044L228.85 150.858L226.147 149.653C226.147 149.653 220.425 153.993 217.022 160.614C213.619 167.235 212.13 172.98 212.13 172.98C212.13 172.98 224.419 174.352 228.518 173.729C228.518 173.729 230.258 173.855 228.02 175.977C225.787 178.102 207.663 200.338 207.663 200.338L221.676 187.765L239.018 170.855L239.321 169.678Z"
      fill="url(#paint6_linear_0_1)" />
    <path
      d="M215.282 169.539L214.554 171.221L217.022 171.258L235.627 171.486L190.738 214.423L200.4 190.012L201.905 186.209H197.827L180.982 186.205L192.559 169.539H185.866L173.395 187.39L170.328 191.779H175.665L193.78 191.775L181.46 223.637L177.009 235.136L185.712 226.491L241.543 171.013L243.024 169.539H215.282Z"
      fill="#232B58" />
    <path
      d="M198.341 148C198.183 148.509 198.017 149.009 197.835 149.502C197.693 149.909 197.487 150.341 197.248 150.846C196.779 151.827 196.257 152.837 195.735 153.83C194.679 155.899 193.635 157.585 192.336 159.584L188.63 165.411L188.565 165.512L188.508 165.626L188.225 166.172L185.785 169.666H192.478L192.809 169.185L192.915 169.034L192.995 168.876L193.307 168.269L196.933 162.54C198.146 160.679 199.514 158.444 200.538 156.396C201.084 155.349 201.618 154.311 202.14 153.216C202.391 152.682 202.682 152.071 202.925 151.391C203.14 150.805 203.338 150.211 203.52 149.62C204.248 147.242 204.73 144.836 205.066 142.438C205.717 137.637 205.79 132.861 205.592 128.142C205.49 125.772 205.333 123.451 205.078 121.069C204.807 118.638 204.374 116.236 203.755 113.882C201.298 104.456 196.075 95.7546 188.694 89.3741C181.411 82.9448 171.765 78.9381 161.912 79.0725C157.004 79.0725 152.14 80.123 147.629 81.9105C145.359 82.7819 143.21 83.9098 141.114 85.1028C138.949 86.3813 136.942 88.0182 135.243 89.9482C131.82 93.8205 129.93 98.9346 129.687 103.967C129.4 109.025 130.561 114.017 132.726 118.471C134.895 122.913 138.172 126.932 142.559 129.567C146.892 132.254 152.577 132.995 157.429 131.334C162.3 129.721 166.217 126.464 169.357 122.86C172.513 119.228 175.026 115.181 177.211 111.02L174.14 109.371C171.987 113.32 169.535 117.107 166.598 120.377C163.68 123.634 160.172 126.354 156.259 127.563C152.363 128.793 148.159 128.178 144.695 125.988C141.215 123.83 138.452 120.397 136.663 116.557C133.022 108.939 133.204 99.1545 138.763 93.0753C140.119 91.5647 141.721 90.274 143.518 89.2316C145.419 88.177 147.353 87.1794 149.377 86.4261C153.399 84.8748 157.659 83.9993 161.928 84.0401C170.482 84.0034 178.866 87.5418 185.291 93.3034C191.769 99.0283 196.431 106.822 198.604 115.234C199.154 117.335 199.53 119.485 199.769 121.639C200 123.842 200.153 126.126 200.238 128.361C200.416 132.853 200.327 137.34 199.724 141.68C199.417 143.846 198.98 145.972 198.353 148.004L198.341 148Z"
      fill="#232B58" />
    <path
      d="M293.78 106.516C292.623 110.181 291.195 113.707 289.155 116.753C286.473 120.939 282.507 123.675 277.81 125.157C273.128 126.696 267.937 127.405 262.761 128.528C260.164 129.062 257.554 129.656 254.956 130.361C252.379 131.033 249.745 131.855 247.171 132.95C244.59 133.976 242.154 135.336 239.762 136.753C237.44 138.276 235.202 139.929 233.131 141.77C228.979 145.438 225.447 149.742 222.562 154.388C221.833 155.553 221.162 156.721 220.49 157.955C220.11 158.554 219.972 159.221 219.713 159.853L218.88 161.648C217.751 164.03 216.638 166.42 215.582 168.843L215.226 169.666H242.898L244.828 167.748L240.244 167.784L219.972 167.951C220.854 166.518 221.72 165.081 222.578 163.635L223.598 161.941C223.97 161.42 224.399 160.895 224.71 160.37C225.366 159.331 226.074 158.261 226.814 157.239C229.732 153.106 233.11 149.36 236.873 146.106C240.661 142.885 244.857 140.198 249.393 138.24C253.876 136.338 258.922 134.909 263.911 133.687C268.936 132.445 274.144 131.436 279.351 129.424C281.937 128.41 284.522 127.067 286.719 125.173C288.933 123.312 290.737 121.016 292.105 118.569C292.736 117.416 293.291 116.24 293.776 115.047V106.508L293.78 106.516Z"
      fill="#232B58" />
    <path
      d="M144.974 60.5174C144.06 60.5174 143.315 59.7723 143.315 58.848V26.3348C143.315 25.7729 143.598 25.2476 144.064 24.9382C144.339 24.759 144.655 24.6653 144.974 24.6653C145.197 24.6653 145.423 24.7101 145.634 24.8038L159.804 31.0051L173.974 24.8038C174.184 24.7101 174.411 24.6653 174.633 24.6653C174.953 24.6653 175.269 24.759 175.544 24.9382C176.009 25.2476 176.292 25.7729 176.292 26.3348V58.848C176.292 59.7682 175.552 60.5174 174.633 60.5174H144.97H144.974Z"
      fill="#EC696B" />
    <path
      d="M174.638 26.3348V58.848H144.974V26.3348L159.808 32.8252L174.642 26.3348M174.638 23C174.192 23 173.739 23.0896 173.318 23.2769L159.808 29.1891L146.297 23.2769C145.873 23.0896 145.423 23 144.974 23C144.339 23 143.704 23.1832 143.157 23.5456C142.223 24.1605 141.66 25.211 141.66 26.3348V58.848C141.66 60.6925 143.145 62.1828 144.974 62.1828H174.638C176.47 62.1828 177.951 60.6884 177.951 58.848V26.3348C177.951 25.211 177.389 24.1605 176.454 23.5456C175.908 23.1832 175.277 23 174.638 23Z"
      fill="#232B58" />
    <path d="M159.808 32.8252V58.848H174.638V26.3348L159.808 32.8252Z" fill="#DC4B51" />
    <path
      d="M149.971 40.2481C149.377 40.2481 149.004 40.5738 149.004 41.4248V42.7033H147.24V41.5429C147.24 39.6332 148.191 38.5379 150.02 38.5379C151.849 38.5379 152.8 39.6291 152.8 41.5429C152.8 45.2971 149.085 46.6978 149.085 48.6604C149.085 48.7459 149.085 48.8314 149.101 48.9169H152.63V50.623H147.236V49.1571C147.236 45.6432 150.934 45.0609 150.934 41.6121C150.934 40.5371 150.562 40.2481 149.967 40.2481H149.971Z"
      fill="#FCEEF1" />
    <path
      d="M153.803 41.547C153.803 39.6373 154.803 38.542 156.636 38.542C158.469 38.542 159.468 39.6332 159.468 41.547V47.7605C159.468 49.6702 158.469 50.7655 156.636 50.7655C154.803 50.7655 153.803 49.6742 153.803 47.7605V41.547ZM155.669 47.8786C155.669 48.7337 156.041 49.0553 156.636 49.0553C157.23 49.0553 157.603 48.7296 157.603 47.8786V41.4289C157.603 40.5738 157.23 40.2521 156.636 40.2521C156.041 40.2521 155.669 40.5779 155.669 41.4289V47.8786Z"
      fill="#FCEEF1" />
    <path
      d="M163.405 40.2481C162.81 40.2481 162.438 40.5738 162.438 41.4248V42.7033H160.674V41.5429C160.674 39.6332 161.625 38.5379 163.454 38.5379C165.282 38.5379 166.233 39.6291 166.233 41.5429C166.233 45.2971 162.519 46.6978 162.519 48.6604C162.519 48.7459 162.519 48.8314 162.535 48.9169H166.063V50.623H160.67V49.1571C160.67 45.6432 164.368 45.0609 164.368 41.6121C164.368 40.5371 163.996 40.2481 163.401 40.2481H163.405Z"
      fill="#FCEEF1" />
    <path
      d="M170.984 41.6121C170.984 40.5372 170.611 40.2481 170.017 40.2481C169.422 40.2481 169.05 40.5738 169.05 41.4248V42.1944H167.285V41.547C167.285 39.6373 168.236 38.542 170.065 38.542C171.894 38.542 172.845 39.6332 172.845 41.547V41.8524C172.845 43.1309 172.436 43.933 171.538 44.3117C172.473 44.723 172.845 45.6106 172.845 46.8199V47.7605C172.845 49.6702 171.894 50.7655 170.065 50.7655C168.236 50.7655 167.285 49.6742 167.285 47.7605V46.7711H169.05V47.8786C169.05 48.7337 169.422 49.0553 170.017 49.0553C170.611 49.0553 170.984 48.7662 170.984 47.7076V46.767C170.984 45.6595 170.611 45.2482 169.762 45.2482H169.135V43.5421H169.863C170.559 43.5421 170.984 43.2368 170.984 42.2799V41.6162V41.6121Z"
      fill="#FCEEF1" />
  </g>
  <defs>
    <filter id="filter0_d_0_1" x="113.126" y="261.912" width="195.402" height="65.8453"
      filterUnits="userSpaceOnUse" color-interpolation-filters="sRGB">
      <feFlood flood-opacity="0" result="BackgroundImageFix" />
      <feColorMatrix in="SourceAlpha" type="matrix"
        values="0 0 0 0 0 0 0 0 0 0 0 0 0 0 0 0 0 0 127 0" result="hardAlpha" />
      <feOffset />
      <feGaussianBlur stdDeviation="3.51" />
      <feColorMatrix type="matrix" values="0 0 0 0 0 0 0 0 0 0 0 0 0 0 0 0 0 0 0.19 0" />
      <feBlend mode="normal" in2="BackgroundImageFix" result="effect1_dropShadow_0_1" />
      <feBlend mode="normal" in="SourceGraphic" in2="effect1_dropShadow_0_1" result="shape" />
    </filter>
    <linearGradient id="paint0_linear_0_1" x1="139.633" y1="170.688" x2="139.633" y2="264.444"
      gradientUnits="userSpaceOnUse">
      <stop offset="0.05" stop-color="white" />
      <stop offset="1" stop-color="#2CA6DE" />
    </linearGradient>
    <linearGradient id="paint1_linear_0_1" x1="180.99" y1="170.688" x2="180.99" y2="264.444"
      gradientUnits="userSpaceOnUse">
      <stop offset="0.05" stop-color="white" />
      <stop offset="1" stop-color="#2CA6DE" />
    </linearGradient>
    <linearGradient id="paint2_linear_0_1" x1="227.939" y1="170.688" x2="227.939" y2="264.444"
      gradientUnits="userSpaceOnUse">
      <stop offset="0.05" stop-color="white" />
      <stop offset="1" stop-color="#2CA6DE" />
    </linearGradient>
    <linearGradient id="paint3_linear_0_1" x1="276.244" y1="170.688" x2="276.244" y2="264.444"
      gradientUnits="userSpaceOnUse">
      <stop offset="0.05" stop-color="white" />
      <stop offset="1" stop-color="#2CA6DE" />
    </linearGradient>
    <linearGradient id="paint4_linear_0_1" x1="212.446" y1="153.953" x2="205.196" y2="194.41"
      gradientUnits="userSpaceOnUse">
      <stop stop-color="#2CA6DE" />
      <stop offset="1" stop-color="#E9553E" />
    </linearGradient>
    <linearGradient id="paint5_linear_0_1" x1="196.609" y1="176.62" x2="206.071" y2="151.789"
      gradientUnits="userSpaceOnUse">
      <stop offset="0.09" stop-color="#FFD67C" />
      <stop offset="1" stop-color="#EF859B" />
    </linearGradient>
    <linearGradient id="paint6_linear_0_1" x1="225.544" y1="171.685" x2="231.901" y2="155.005"
      gradientUnits="userSpaceOnUse">
      <stop offset="0.1" stop-color="#EC6B3F" />
      <stop offset="1" stop-color="#EF859B" />
    </linearGradient>
    <clipPath id="clip0_0_1">
      <rect width="192" height="302" fill="white" transform="translate(114 23)" />
    </clipPath>
  </defs>
</svg>
  