<svg width="178" height="121" viewBox="0 0 178 121" fill="none" xmlns="http://www.w3.org/2000/svg">
  <path
    d="M126.71 16.3043L126.137 15.6651C125.801 15.2688 125.432 14.9002 125.037 14.563L124.53 14.1331L124.717 13.4939C124.983 12.573 125.12 11.6199 125.125 10.6615C125.132 9.23539 124.842 7.82344 124.273 6.5159C123.705 5.20836 122.87 4.03401 121.822 3.06796C119.869 1.26449 117.311 0.261386 114.654 0.257578C112.331 0.22492 110.069 1.00442 108.258 2.46179L107.762 2.85855L107.19 2.59406C105.979 2.04563 104.665 1.76195 103.337 1.76195C102.008 1.76195 100.694 2.04563 99.4831 2.59406L99.2189 2.72631H98.9216C98.5564 2.68106 98.1887 2.65897 97.8207 2.66018C96.2653 2.65526 94.7397 3.08668 93.4168 3.90555L93.0645 4.11496L92.525 4.01577C91.9271 3.89404 91.3186 3.83129 90.7084 3.82842C88.6744 3.86935 86.7043 4.54733 85.0751 5.76704C83.4459 6.98675 82.2395 8.68686 81.6255 10.6284C80.9159 12.4105 80.5426 14.3088 80.5245 16.2271C80.5284 16.851 80.5799 17.4737 80.6786 18.0897L80.9098 19.5775L79.4455 19.2469C75.8411 18.5065 72.1705 18.1372 68.4909 18.1448H68.3148L65.3972 18.233L65.4633 17.1309C65.4633 16.6349 65.4633 16.1169 65.4633 15.5989C65.4843 13.7378 65.136 11.891 64.4386 10.1656C63.7412 8.44022 62.7087 6.87059 61.4007 5.5477V5.49259C60.4981 4.55898 59.4191 3.8142 58.2265 3.30148C57.034 2.78876 55.7515 2.51833 54.4536 2.50589C53.2416 2.48894 52.0387 2.71798 50.9176 3.1792C49.7964 3.64042 48.7803 4.32425 47.9304 5.18942C47.0805 6.05459 46.4146 7.08317 45.9728 8.21307C45.5309 9.34297 45.3224 10.5508 45.3597 11.7636C45.3607 13.0487 45.6113 14.3213 46.0973 15.5108L46.2845 15.9847L46.5267 16.4255C46.857 17.0317 47.1762 17.5276 47.4625 18.0566L47.6056 18.2991V18.9604V19.8421L46.7359 20.0074C28.3387 23.3137 19.0135 30.5545 19.0135 41.6197V42.0936C19.0184 45.6012 20.111 49.0208 22.1403 51.8803L22.4926 52.3542C29.0984 60.6752 42.6623 64.5766 65.0339 64.5766H67.2358L67.0377 66.7809H66.1129C58.3375 67.0132 50.5991 67.9502 42.9926 69.5802C36.9813 70.8476 18.6943 74.705 19.0246 88.1287C19.1048 90.4682 19.7595 92.7518 20.9308 94.7778C22.1022 96.8038 23.754 98.5098 25.7404 99.7449C28.7571 101.773 32.7756 103.206 38.0052 104.153C43.8301 105.065 49.7289 105.415 55.6207 105.2C56.7216 105.2 57.7345 105.134 58.7914 105.079L60.3328 104.991L59.6282 106.953C58.929 108.665 58.5556 110.493 58.5272 112.342C58.5406 113.486 58.7811 114.616 59.2347 115.666C59.6884 116.716 60.346 117.665 61.1695 118.459C61.9526 119.212 62.8777 119.802 63.8909 120.194C64.9041 120.585 65.985 120.771 67.0707 120.74C72.7076 120.608 75.2178 115.472 76.0436 113.786C77.2546 111.339 78.6969 107.878 80.4474 103.239L80.8988 102.026L81.4493 101.905C84.554 101.222 87.4055 100.472 89.9157 99.7008L90.5653 99.5025L91.0057 100.02C92.4147 101.575 94.1567 102.792 96.1013 103.578C98.0459 104.364 100.143 104.7 102.236 104.561H102.621C103.406 104.543 104.189 104.477 104.966 104.363L105.902 104.23L106.111 105.145C106.628 107.349 108.72 112.551 117.011 112.551H117.506C118.965 112.518 120.419 112.371 121.855 112.111L122.427 112L122.813 112.441C123.766 113.515 124.947 114.364 126.268 114.927C127.589 115.489 129.019 115.75 130.453 115.692H131.18C136.916 115.56 145.03 114.712 149.225 109.025L149.456 108.727L152.065 104.374L152.241 104.253C152.785 103.858 153.387 103.549 154.025 103.338L154.201 103.283H155.28C156.381 103.283 157.482 103.161 158.66 103.018C160.411 102.788 162.141 102.419 163.835 101.916C167.466 100.956 170.781 99.0552 173.446 96.4055C175.34 94.4327 177.575 90.8399 177.431 84.9216C177.396 82.6477 176.921 80.4022 176.033 78.3089C175.813 77.7909 175.571 77.2729 175.307 76.777L175.02 76.248L175.351 75.73C176.439 74.0664 176.988 72.1077 176.925 70.1203C176.921 67.5596 175.936 65.0979 174.173 63.2431C173.224 62.2685 172.08 61.5048 170.817 61.0016C169.554 60.4984 168.199 60.267 166.84 60.3225C165.457 60.3556 164.095 60.6784 162.844 61.2703C161.788 61.7953 160.682 62.2089 159.541 62.5047H159.453C158.968 62.5928 158.484 62.692 157.977 62.8353L154.399 63.7831L156.976 61.127C157.466 60.6237 157.93 60.0939 158.363 59.54L158.605 59.2314L158.99 59.1653C159.391 59.0907 159.788 58.995 160.179 58.8787H160.256H160.367C162.788 58.1362 165.108 57.092 167.27 55.7708C169.4 54.57 171.374 53.1116 173.149 51.4285C174.297 50.3065 175.12 48.895 175.533 47.3431C175.946 45.7912 175.932 44.1564 175.494 42.6116C174.872 40.4861 173.493 38.6627 171.618 37.4868C171.224 37.2397 170.812 37.0224 170.385 36.8366L170.198 36.7594L170.055 36.6161C168.475 34.979 166.394 33.9162 164.143 33.5964L162.073 33.2988L163.57 31.844C164.637 30.7974 165.48 29.5444 166.048 28.1613C166.616 26.7782 166.897 25.2938 166.873 23.7986V23.6774C166.893 21.4177 166.187 19.2115 164.858 17.3844L164.506 16.9104L164.737 16.3704C165.259 15.0977 165.525 13.7344 165.519 12.3587C165.582 10.982 165.363 9.60683 164.875 8.31819C164.387 7.02955 163.64 5.85477 162.68 4.86638C161.721 3.878 160.569 3.09699 159.296 2.57157C158.024 2.04616 156.657 1.7875 155.28 1.81155C153.827 1.8147 152.39 2.12257 151.063 2.71529C149.561 3.41868 147.984 3.95101 146.362 4.30231H146.296C137.94 5.59178 136.222 10.4411 135.947 13.2184L135.837 14.3205L134.791 14.1772C134.273 14.1072 133.751 14.0704 133.228 14.067C131.193 14.0786 129.209 14.7047 127.536 15.8634L126.831 16.3373L126.71 16.3043Z"
    fill="white" />
  <path opacity="0.47"
    d="M168.492 71.751L166.785 92.1841H172.895L172.741 73.7899C172.741 69.7672 166.972 69.9105 166.598 73.7899C166.001 79.9204 164.806 85.9778 163.031 91.8755H168.965C168.003 87.219 167.582 82.4667 167.71 77.7134C167.787 74.3409 162.205 73.4042 161.666 76.8978L159.464 92.0849L165.497 92.9115C164.782 86.7704 164.616 80.5777 165.002 74.4071C164.996 73.5933 164.67 72.8146 164.096 72.2392C163.521 71.6638 162.743 71.338 161.93 71.3322C161.12 71.3491 160.349 71.6785 159.777 72.2515C159.204 72.8245 158.875 73.5969 158.858 74.4071C158.088 81.343 156.987 88.2202 155.555 95.0385H161.489C160.316 87.3076 160.164 79.4555 161.038 71.6849C161.401 68.2683 155.621 67.4638 154.994 70.8693L150.436 95.7218H156.359C155.864 93.1539 155.071 90.7073 154.355 88.1834C153.746 85.8325 153.563 83.3912 153.816 80.9756C154.058 77.5591 148.41 76.7325 147.782 80.1601C146.682 85.9351 145.823 91.7432 144.766 97.5183H150.689C150.216 94.6748 149.456 91.9196 148.817 89.1092C148.275 86.4447 148.148 83.712 148.443 81.0087C148.718 77.5701 143.125 76.8097 142.41 80.1931C141.155 86.0894 140.208 92.0188 139.184 97.9702H145.107C144.27 93.3523 142.113 89.3737 142.146 84.6016C142.146 81.2291 136.762 80.2923 136.112 83.786C135.077 89.2966 134.197 94.8071 133.162 100.384H139.085C136.993 91.4457 136.663 82.2651 136.365 73.1286C136.233 69.0508 130.729 69.3043 130.222 73.1286L126.126 103.988L132.16 103.172C130.552 94.9945 130.365 86.6405 130.178 78.3636C130.101 75.0573 124.673 73.9552 124.134 77.5481L121.227 98.1575L127.26 98.9731L124.926 80.9646C124.926 80.1491 124.603 79.367 124.027 78.7903C123.451 78.2137 122.669 77.8897 121.855 77.8897C121.04 77.8897 120.259 78.2137 119.683 78.7903C119.107 79.367 118.783 80.1491 118.783 80.9646C117.924 87.7426 116.009 94.3222 115.161 101.1L121.194 100.285C120.093 95.7439 118.673 91.611 118.563 86.905C118.453 82.8823 112.772 83.0145 112.408 86.905C112.051 90.8066 111.918 94.7256 112.012 98.6424L118.056 97.8269C117.253 93.4735 116.152 89.4068 116.053 84.9543C115.976 80.9977 109.964 80.9867 109.909 84.9543C109.854 89.8035 110.129 94.6198 110.284 99.458L116.328 98.6424C114.665 92.7131 112.783 86.8829 111.66 80.8214C111.01 77.3387 105.649 78.2534 105.615 81.6369C105.615 86.5964 105.483 91.5559 105.836 96.4713L111.88 95.6557C109.914 90.0255 108.419 84.2416 107.41 78.3636C106.86 74.8479 101.421 75.8178 101.377 79.1792C101.16 84.6641 101.307 90.1573 101.817 95.6227L107.85 94.8071C106.681 89.114 105.981 83.3341 105.759 77.5261H99.6152C100.309 83.0366 100.881 88.5471 102.114 93.9805L108.038 92.3494C105.715 83.5325 103.502 74.6165 101.168 65.7555C100.276 62.339 95.2554 63.1545 95.1343 66.5821C94.837 75.399 96.0811 84.3481 97.3362 93.0327L103.259 91.3906L98.3271 70.9795C97.5234 67.6732 92.0406 68.2904 92.2938 71.7951L93.9232 94.4655L99.9565 93.6499C97.4755 86.6196 95.3624 79.4645 93.626 72.2139C92.8113 68.9076 87.4165 69.5247 87.5817 73.0294C87.909 79.8438 88.8002 86.6193 90.246 93.2862L96.1802 91.6441C93.6119 84.0357 91.7471 76.2072 90.6093 68.2573C90.1139 64.8628 84.2458 65.6233 84.565 69.0729C85.299 76.9787 86.3376 84.844 87.6808 92.669L93.626 91.082L87.5927 73.4482C86.4917 70.3403 81.3502 70.6048 81.5594 74.2638L82.6604 93.5287L88.6937 92.7131L82.198 73.0515C81.163 69.9325 75.8454 70.2301 76.1537 73.8671C76.8245 81.4075 77.9273 88.9031 79.4566 96.317L85.3908 94.6859C83.5411 89.7484 81.8823 84.7375 80.4144 79.6531C79.4786 76.468 73.9407 76.8978 74.3811 80.4687L76.3959 97.1656L82.4292 96.3501L78.5317 84.0505C77.5299 80.8875 72.2452 81.2512 72.4874 84.8661L73.3792 97.7057L79.4125 96.8901L76.0105 82.188C75.2288 78.8816 69.7791 79.5209 69.9662 83.0035L70.9021 100.428L76.9353 99.6123C75.3499 94.3075 73.926 88.9696 72.6636 83.5987C71.8709 80.2923 66.5202 80.9426 66.6193 84.4252L67.1257 101.387L73.17 100.571C71.4029 94.2528 69.995 87.8393 68.9533 81.3614C68.4029 77.8897 62.898 78.7825 62.9201 82.177C62.9744 88.478 63.3935 94.7705 64.1752 101.023L70.2195 100.207C68.5185 93.565 67.4604 86.7741 67.0597 79.9286C66.8285 76.0051 60.9163 75.939 60.9163 79.9286C60.9231 86.4063 61.4052 92.8747 62.3586 99.2817L68.3038 97.6946L65.0009 79.2894C64.8024 78.5752 64.3511 77.9576 63.7312 77.552C63.1113 77.1464 62.3651 76.9805 61.6319 77.0852C60.9019 77.1898 60.2329 77.5511 59.7447 78.1044C59.2566 78.6577 58.9811 79.3669 58.9676 80.105C58.2377 85.9287 57.87 91.7922 57.8666 97.6616L63.8999 96.846C61.9924 90.6579 60.6945 84.2978 60.0245 77.8567C59.6282 73.9662 54.0903 73.834 53.8811 77.8567C53.4976 85.0031 53.5711 92.1667 54.1013 99.3037L60.1456 98.4882C58.296 91.7239 56.9745 84.826 56.1932 77.8567C56.1932 77.0412 55.8695 76.259 55.2935 75.6824C54.7174 75.1057 53.9361 74.7818 53.1215 74.7818C52.3068 74.7818 51.5255 75.1057 50.9494 75.6824C50.3734 76.259 50.0498 77.0412 50.0498 77.8567C49.3454 84.5426 49.3454 91.2842 50.0498 97.9702L56.0831 97.1546C54.7547 91.3574 53.915 85.4588 53.5729 79.5209C53.3527 75.5863 47.2093 75.5533 47.4295 79.5209L48.5304 99.48L54.5747 98.6645L51.0296 80.623C50.347 77.1624 45.0073 78.044 44.9963 81.4496L44.8972 100.373L50.9305 99.5572C48.7946 93.4275 47.1201 87.1463 45.9211 80.7663C45.7227 80.052 45.2714 79.4344 44.6515 79.0288C44.0315 78.6232 43.2854 78.4573 42.5522 78.562C41.8213 78.6691 41.1521 79.0325 40.6641 79.5877C40.1761 80.1428 39.901 80.8535 39.8879 81.5928C39.3081 87.0898 39.3376 92.634 39.9759 98.1245H46.1193L43.6862 78.9588C43.6613 78.1512 43.3297 77.3834 42.759 76.812C42.1882 76.2407 41.4213 75.9088 40.6145 75.8839C39.8016 75.8897 39.0237 76.2155 38.4488 76.7909C37.874 77.3663 37.5486 78.1451 37.5428 78.9588L38.2694 97.2648L44.3137 96.4492C43.0091 90.7161 42.0313 84.9133 41.3852 79.069C40.9558 75.2226 35.2198 75.0132 35.2308 79.069L35.3299 98.1465L41.3742 97.3199C39.9062 91.5669 38.7208 85.7514 37.818 79.8735C37.2676 76.3358 31.9059 77.3718 31.7848 80.6891C31.5572 87.0666 31.6269 93.4405 31.9939 99.8107L38.0272 98.9841L34.7243 85.2078C33.8766 81.67 28.9443 82.706 28.691 86.0233C28.4048 89.8219 28.3057 93.6315 28.3938 97.4522L34.4271 96.6366L31.7958 85.6155C31.1242 82.8272 26.2909 82.5296 25.8726 85.6155C25.4582 88.2654 25.274 90.9462 25.3221 93.6278L31.3554 92.8013L30.0562 84.8992C29.4727 81.3834 24.089 82.3643 24.0119 85.7147L23.9018 90.8395L29.9351 90.0129L28.3828 85.5163C27.557 83.1358 24.1 82.3202 22.7568 84.7779C22.1936 85.7725 21.8326 86.8689 21.6946 88.0038C21.5567 89.1388 21.6445 90.2898 21.9531 91.3906C23.0541 95.2039 28.9333 93.5948 27.8873 89.7484C27.7702 89.4418 27.7252 89.1124 27.7557 88.7855C27.7863 88.4587 27.8916 88.1433 28.0635 87.8638L22.4486 87.1254L24.0119 91.633C25.1129 94.8512 29.9682 94.3993 30.0452 90.8175L30.1663 85.6927L24.122 86.5082L25.4212 94.3883C25.9937 97.8379 31.5425 96.9893 31.4545 93.5728C31.3881 91.4402 31.4986 89.3058 31.7848 87.1915H25.8616L28.4929 98.2126C29.2966 101.574 34.6032 100.869 34.5262 97.3971C34.4381 93.5838 34.5372 89.7741 34.8234 85.9682L28.7901 86.7838L32.093 100.571C32.8967 103.877 38.3355 103.249 38.1263 99.7556C37.7593 93.3854 37.6896 87.0115 37.9171 80.634L31.8838 81.4606C32.8086 87.3385 33.9904 93.1539 35.4289 98.907C36.2767 102.279 41.4843 101.552 41.4732 98.0914L41.3742 79.0139H35.2748C35.9709 85.4046 37.0221 91.7516 38.4236 98.0252C39.1832 101.398 44.6 100.681 44.4679 97.2097L43.6862 78.9588H37.5428L39.9429 98.1575C39.9676 98.9662 40.2988 99.7352 40.8693 100.308C41.4398 100.881 42.2068 101.216 43.0146 101.243C43.8294 101.238 44.609 100.91 45.1841 100.333C45.7592 99.7547 46.0834 98.9732 46.0863 98.1575C45.4531 92.6668 45.4236 87.1231 45.9982 81.6259L39.9649 82.4415C41.1662 88.8029 42.8407 95.0656 44.9743 101.177C46.0753 104.362 50.9856 103.977 51.0076 100.362L51.1067 81.4385L45.0624 82.2541L48.6075 100.296C49.2791 103.679 54.828 102.93 54.6518 99.469L53.5508 79.5098H47.3854C47.766 86.0055 48.6941 92.4575 50.1599 98.7967C50.9195 102.103 56.5565 101.464 56.1932 97.9702C55.4941 91.2839 55.4941 84.5429 56.1932 77.8567H50.0498C50.8503 85.3702 52.2343 92.8099 54.1894 100.108C55.0702 103.415 60.4979 102.841 60.2337 99.2927C59.6943 92.1562 59.6171 84.9922 60.0025 77.8456H53.8811C54.5728 84.8199 55.9521 91.7086 57.9987 98.411C59.0006 101.717 64.021 101.133 64.032 97.5954C64.0355 91.7261 64.4032 85.8626 65.133 80.0389L59.0997 80.8544L62.4026 99.2596C62.6262 100.043 63.1485 100.708 63.8569 101.11C64.5654 101.512 65.4032 101.619 66.1899 101.409C66.9753 101.184 67.6433 100.664 68.0538 99.9571C68.4643 99.2503 68.5855 98.4118 68.3919 97.6175C67.5463 91.7522 67.1342 85.8325 67.1588 79.9066H60.9273C61.3482 87.3009 62.4764 94.6378 64.2963 101.817C65.133 105.123 70.7809 104.517 70.3406 101.001C69.5499 94.7492 69.1271 88.4563 69.0744 82.1549L63.0412 82.9705C64.068 89.4539 65.4574 95.8746 67.2028 102.202C68.1276 105.509 73.3462 104.924 73.2471 101.387L72.7737 84.4693L66.7404 85.2849C68.0102 90.6632 69.4378 95.9974 71.0232 101.288C71.992 104.495 77.2546 104.054 77.0564 100.472L76.1316 83.0476L70.0873 83.8632L73.4893 98.5653C74.26 101.872 79.7648 101.243 79.5226 97.7497L78.6418 84.9102L72.5975 85.7257L76.506 98.0252C77.4968 101.155 82.9796 100.814 82.5392 97.2097L80.5245 80.5128L74.4912 81.3283C75.9592 86.4127 77.6143 91.4383 79.4566 96.4051C79.7103 97.1487 80.2379 97.7673 80.9316 98.1349C81.6254 98.5025 82.433 98.5913 83.1899 98.3832C83.9468 98.1752 84.596 97.6859 85.0049 97.0153C85.4139 96.3446 85.5519 95.5431 85.3908 94.774C83.9684 87.9001 82.9501 80.9485 82.3411 73.9552L76.2968 74.7708L82.8035 94.3883C83.8384 97.5293 89.057 97.2097 88.8368 93.5728L87.7358 74.3079L81.7025 75.1234L87.7138 92.7572C87.9851 93.4824 88.5189 94.0791 89.2092 94.4287C89.8995 94.7782 90.6959 94.8552 91.4403 94.6443C92.1847 94.4334 92.8227 93.95 93.2276 93.2901C93.6325 92.6302 93.7747 91.842 93.626 91.082C92.3856 83.8081 91.4204 76.49 90.7304 69.128L84.6861 69.9435C85.8285 77.8771 87.6894 85.6902 90.246 93.2862C90.4963 94.0356 91.0242 94.6603 91.721 95.0317C92.4177 95.403 93.2302 95.4926 93.991 95.2821C94.7518 95.0716 95.403 94.5769 95.8103 93.9C96.2176 93.2232 96.35 92.4157 96.1802 91.6441C94.8255 85.5057 93.9895 79.2641 93.681 72.9853L87.6367 73.8009C89.4158 81.0458 91.5693 88.1934 94.0884 95.2149C95.1894 98.2677 100.386 98.0914 100.122 94.3993L98.4922 71.729L92.459 72.5555L97.3913 92.9666C97.6174 93.7464 98.1384 94.4072 98.8436 94.8085C99.5488 95.2098 100.383 95.32 101.168 95.1157C101.953 94.8912 102.621 94.3709 103.031 93.6641C103.442 92.9572 103.563 92.1187 103.37 91.3244C102.269 83.1358 101.168 74.7928 101.421 66.4719L95.3875 67.2875C97.7216 76.1043 99.9345 85.0204 102.258 93.8703C103.27 97.7167 109.062 96.0745 108.181 92.2392C107.08 87.3348 106.529 82.3974 105.902 77.4158C105.88 76.6074 105.549 75.8381 104.977 75.2662C104.406 74.6943 103.638 74.3632 102.83 74.3409C102.018 74.3496 101.242 74.6763 100.668 75.2511C100.093 75.8259 99.767 76.603 99.7584 77.4158C100.01 83.7763 100.783 90.1053 102.07 96.339C102.83 99.6454 108.511 99.0061 108.104 95.5124C107.599 90.0467 107.452 84.5539 107.663 79.069L101.63 79.8846C102.642 85.7644 104.133 91.5515 106.089 97.1877C107.135 100.307 112.386 100.009 112.133 96.3611C111.77 91.4126 111.858 86.4421 111.913 81.5267L105.869 82.3423C106.97 88.4149 108.874 94.234 110.537 100.174C111.462 103.481 116.691 102.886 116.581 99.3478C116.427 94.5095 116.141 89.6933 116.196 84.844H110.052C110.151 89.8476 111.374 94.4655 112.254 99.3478C112.893 102.786 118.376 101.96 118.299 98.5322C118.2 94.6154 118.332 90.696 118.695 86.7948H112.541C112.673 92.0739 114.17 96.7138 115.403 101.806C115.602 102.52 116.053 103.137 116.673 103.543C117.293 103.949 118.039 104.114 118.772 104.01C119.499 103.899 120.165 103.536 120.652 102.984C121.139 102.432 121.416 101.726 121.436 100.99C122.284 94.212 124.211 87.6434 125.059 80.8544H118.915L121.249 98.8629C121.267 99.6009 121.543 100.309 122.031 100.864C122.518 101.418 123.184 101.782 123.914 101.894C125.268 102.048 127.073 101.221 127.283 99.6894L130.2 79.069L124.156 78.2534C124.365 87.0703 124.651 95.9753 126.358 104.704C126.554 105.42 127.005 106.039 127.625 106.445C128.246 106.85 128.993 107.015 129.727 106.908C130.454 106.797 131.119 106.434 131.606 105.882C132.093 105.33 132.371 104.625 132.391 103.888L136.487 73.0294H130.343C130.662 82.717 131.059 92.4486 133.283 101.927C133.954 104.77 138.644 104.935 139.206 101.927C140.241 96.4162 141.133 90.9056 142.157 85.3179L136.123 84.5024C136.05 87.1179 136.422 89.7268 137.224 92.2171C138.106 94.578 138.809 97.0022 139.327 99.469C139.856 102.39 144.755 102.434 145.25 99.469C146.241 93.5286 147.232 87.5993 148.476 81.692L142.443 80.8764C142.152 83.9805 142.315 87.1104 142.927 90.1672C143.566 93.1319 144.403 96.0305 144.909 98.9841C145.415 101.938 150.304 101.894 150.832 98.9841C151.933 93.198 152.792 87.4009 153.849 81.6149L147.815 80.7993C147.559 83.6257 147.774 86.4751 148.454 89.2304C149.17 91.8975 150.05 94.4655 150.579 97.1877C151.14 100.108 155.963 100.141 156.502 97.1877L161.071 72.3241L155.027 71.5085C154.154 79.8302 154.38 88.2307 155.698 96.4933C156.172 99.5131 161.038 99.3588 161.633 96.4933C163.152 89.1459 164.323 81.7251 165.145 74.2307H159.001C158.616 80.4013 158.781 86.5941 159.497 92.7351C159.515 93.4719 159.792 94.1788 160.279 94.7312C160.766 95.2836 161.433 95.6461 162.161 95.7549C162.895 95.8621 163.642 95.6972 164.262 95.2912C164.883 94.8852 165.334 94.2662 165.53 93.5507L167.732 78.3526L161.688 77.5371C161.578 82.8405 162.073 88.1392 163.163 93.3303C163.802 96.4162 168.271 96.0966 169.097 93.3303C170.987 86.8951 172.252 80.2922 172.873 73.6136H166.73L166.884 92.0077C166.884 96.0194 172.708 95.9092 173.028 92.0077L174.712 71.6077C175.042 67.6511 168.888 67.6732 168.569 71.6077L168.492 71.751Z"
    fill="#72C6CF" />
  <path
    d="M83.7172 78.6835C85.2764 78.5169 86.7799 78.0089 88.1211 77.1956C89.9157 76.0935 90.8074 74.9914 90.7744 73.8232C90.7974 73.3748 90.6686 72.9318 90.4088 72.5658C90.1491 72.1998 89.7736 71.9323 89.3432 71.8063C88.4073 71.4978 87.9449 71.2994 87.9449 71.2112C87.9449 71.123 88.2532 70.605 88.9028 69.9658C89.2849 69.6386 89.6284 69.2689 89.9267 68.8637C89.9652 68.7464 89.9838 68.6235 89.9817 68.5C89.9817 67.7175 89.5743 67.3979 88.8037 67.6183C87.7767 67.9666 86.8634 68.5875 86.1614 69.4148C85.3054 70.14 84.7581 71.1649 84.631 72.2802C84.7502 72.9817 85.0716 73.633 85.5558 74.1538C86.1173 74.8482 86.3816 75.2559 86.3485 75.4213C86.2054 75.8511 84.9393 76.3139 82.5392 76.843C80.1391 77.372 79.0822 77.8569 79.1152 78.3418C79.1482 78.8268 80.6675 78.959 83.7172 78.6835Z"
    fill="#55C3E9" />
  <path
    d="M106.761 87.6764C108.933 87.6839 111.084 87.245 113.081 86.3869C113.423 86.2649 113.716 86.034 113.915 85.7295C114.114 85.4249 114.207 85.0635 114.181 84.7007C114.181 83.3781 113.532 82.7279 112.31 82.761C112.027 82.7638 111.748 82.8317 111.495 82.9593C109.8 83.7908 108.011 84.4161 106.166 84.8219C104.262 85.1636 103.315 85.6705 103.337 86.3428C103.381 87.2906 104.515 87.7755 106.761 87.6764Z"
    fill="#55C3E9" />
  <path
    d="M123.891 102.511C123.608 102.522 123.33 102.593 123.077 102.72C121.378 103.554 119.585 104.179 117.737 104.583C115.832 104.925 114.896 105.432 114.907 106.104C114.907 107.041 116.008 107.492 118.309 107.437C120.484 107.434 122.637 106.996 124.64 106.148C124.983 106.024 125.277 105.791 125.475 105.485C125.674 105.178 125.767 104.815 125.741 104.451C125.73 103.128 125.102 102.478 123.891 102.511Z"
    fill="#55C3E9" />
  <path
    d="M123.671 84.4033C123.166 84.4137 122.682 84.6144 122.317 84.9653C122.125 85.131 121.973 85.338 121.872 85.5708C121.771 85.8036 121.724 86.0563 121.734 86.3099C121.751 86.629 121.846 86.939 122.009 87.2136C122.636 88.489 122.96 89.8921 122.956 91.3135C122.956 92.3494 121.91 93.3083 119.752 94.201C118.606 94.7067 117.405 95.0766 116.174 95.3031C114.996 95.1488 114.379 94.6088 114.357 93.6499C114.367 93.4295 114.404 93.2111 114.467 92.9997C114.534 92.7703 114.571 92.5332 114.577 92.2944C114.577 91.0931 113.983 90.5089 112.871 90.531C112.548 90.5525 112.233 90.6433 111.948 90.7974C111.663 90.9514 111.415 91.165 111.219 91.4237C108.812 94.1863 106.181 95.6044 103.326 95.6778H103.127H102.918C101.641 95.6778 100.958 95.4244 100.859 94.8182C100.324 91.8792 99.3107 83.4518 97.8207 69.5358C97.8246 69.294 97.7762 69.0542 97.6787 68.8329C97.5813 68.6116 97.4371 68.4141 97.2561 68.2538C97.0751 68.0936 96.8617 67.9745 96.6303 67.9047C96.399 67.8349 96.1553 67.8162 95.9161 67.8496C94.5399 67.8496 93.9123 68.577 94.0554 69.9436C94.8334 77.291 95.4903 83.1064 96.0262 87.39C92.5471 89.9836 86.279 92.1547 77.2217 93.9034C77.4419 93.2091 77.64 92.5368 77.8052 91.9086C78.4341 89.7939 78.764 87.6015 78.785 85.3951C78.6529 80.1491 74.8252 77.618 67.302 77.8016C59.9769 78.008 52.6867 78.8935 45.5249 80.4467C33.6932 82.9375 27.8213 86.4275 27.9094 90.9167C28.0122 95.0166 32.1188 97.7755 40.2292 99.1935C45.5563 100.018 50.9501 100.328 56.3364 100.119C61.76 99.9612 67.1669 99.4383 72.5205 98.5543C71.2875 103.205 69.8195 107.908 68.1167 112.661C67.7886 113.435 67.595 114.258 67.5442 115.097C67.5442 115.472 67.6543 115.659 67.8745 115.659C68.3809 115.659 68.9754 114.821 69.8342 113.179C70.9131 110.975 72.2783 107.698 73.9298 103.349C74.6674 101.409 75.317 99.6234 75.8895 97.9702L78.5098 97.4742C86.5835 95.8505 92.5948 93.8814 96.5436 91.567C96.7858 93.3193 96.973 94.6308 97.1271 95.4794C97.6115 98.2127 99.5823 99.5462 103.039 99.4581H103.237H103.425C106.316 99.3334 109.091 98.2826 111.341 96.4603C111.883 97.3081 112.643 97.9934 113.543 98.4441C113.721 98.7087 113.971 98.9173 114.264 99.046C114.556 99.1747 114.878 99.2182 115.194 99.1715C115.546 99.1715 115.888 99.1715 116.229 99.1054C116.522 99.122 116.816 99.122 117.11 99.1054C117.564 99.1183 118.01 98.9786 118.376 98.7086C119.821 98.3484 121.21 97.7922 122.504 97.0555C125.345 95.4684 126.732 93.5287 126.677 91.2143C126.671 89.2025 126.192 87.2203 125.279 85.4282C125.141 85.1185 124.915 84.8562 124.629 84.6739C124.343 84.4917 124.01 84.3976 123.671 84.4033ZM56.2703 96.3391C51.6455 96.4487 47.0191 96.2055 42.4312 95.6117C35.3409 94.6639 31.7665 93.0695 31.7078 90.8285C31.649 88.3525 36.7061 86.1189 46.8791 84.1277C53.6343 82.7147 60.4946 81.8632 67.39 81.5819C69.2745 81.4113 71.1742 81.6097 72.983 82.166C74.2491 82.7721 74.9096 84.0396 74.9647 86.0013C74.942 87.7244 74.7279 89.4395 74.3261 91.1151C74.0839 92.2172 73.8197 93.4075 73.5444 94.5647C67.8357 95.5655 62.0631 96.1584 56.2703 96.3391Z"
    fill="#55C3E9" />
  <path
    d="M132.16 93.2089C132.655 95.3581 133.261 96.4271 133.91 96.405C134.802 96.405 135.22 94.9833 135.154 92.184C135.154 91.7431 135.154 91.2913 135.066 90.8394C134.193 83.0071 133.51 76.9749 133.018 72.7428C132.908 71.795 132.501 71.3321 131.785 71.3541C131.466 71.3793 131.158 71.4817 130.888 71.6526C130.618 71.8235 130.393 72.0577 130.233 72.335C129.756 73.0461 129.524 73.8936 129.572 74.7486V74.9691C130.079 79.113 130.519 82.5442 130.893 85.2627C131.477 89.4067 131.906 92.0517 132.16 93.2089Z"
    fill="#55C3E9" />
  <path
    d="M162.249 76.281C164.422 76.2885 166.573 75.8496 168.569 74.9915C168.913 74.8691 169.208 74.6365 169.407 74.3297C169.606 74.0229 169.698 73.6589 169.67 73.2942C169.67 71.9717 169.02 71.3325 167.798 71.3546C167.515 71.3665 167.237 71.4379 166.983 71.564C165.288 72.3954 163.499 73.0207 161.655 73.4265C159.75 73.7682 158.803 74.2751 158.825 74.9474C158.869 75.8952 160.003 76.3361 162.249 76.281Z"
    fill="#55C3E9" />
  <path
    d="M169.461 84.4696C168.437 82.045 167.017 80.8437 165.189 80.8878C164.501 80.9111 163.826 81.0862 163.213 81.4005C162.601 81.7149 162.065 82.1607 161.644 82.7062C160.804 83.6671 160.342 84.9011 160.345 86.1779C160.345 88.0625 161.523 88.9883 163.747 88.9331C164.369 88.9093 164.989 88.8281 165.596 88.6907H165.916C165.99 88.6797 166.066 88.6848 166.139 88.7057C166.211 88.7266 166.279 88.7628 166.336 88.8119C166.393 88.8609 166.44 88.9217 166.472 88.9902C166.503 89.0586 166.52 89.1331 166.521 89.2087V89.396C166.51 89.7458 166.432 90.0901 166.29 90.41C165.776 91.5562 164.363 92.526 162.051 93.3195C160.018 93.9963 157.896 94.3677 155.754 94.4217C155.546 94.4228 155.339 94.4487 155.137 94.4988C153.09 94.6817 151.088 95.207 149.214 96.0528C147.476 96.8241 145.906 97.9307 144.595 99.3092C143.284 100.688 142.257 102.311 141.573 104.087C141.573 105.101 139.426 106.203 135.133 107.393C131.411 107.9 129.562 108.606 129.628 109.487C129.694 110.369 130.31 110.59 131.61 110.59H132.017C138.307 110.435 142.234 109.3 143.797 107.184L146.913 102.004C149.139 99.8763 151.978 98.5036 155.027 98.0807C155.304 98.1702 155.595 98.2112 155.886 98.2019C158.095 98.1374 160.286 97.7855 162.404 97.1549C164.685 96.6007 166.784 95.4612 168.492 93.8486C169.154 93.0648 169.65 92.1548 169.951 91.1736C170.252 90.1924 170.351 89.1602 170.242 88.1396C170.231 86.8761 169.965 85.6279 169.461 84.4696Z"
    fill="#55C3E9" />
  <path
    d="M83.7172 77.3499C85.2764 77.1832 86.7799 76.6753 88.1211 75.862C89.9157 74.815 90.8074 73.6578 90.7744 72.4896C90.7974 72.0412 90.6686 71.5982 90.4088 71.2322C90.1491 70.8662 89.7736 70.5986 89.3432 70.4727C88.4073 70.1641 87.9449 69.9657 87.9449 69.8776C87.9449 69.7894 88.2532 69.2714 88.9028 68.6322C89.2873 68.3076 89.6311 67.9375 89.9267 67.5301C89.9652 67.4128 89.9838 67.2898 89.9817 67.1664C89.9817 66.3949 89.5743 66.0643 88.8037 66.2847C87.7767 66.633 86.8634 67.2539 86.1614 68.0811C85.3054 68.8064 84.7581 69.8312 84.631 70.9466C84.7502 71.6481 85.0716 72.2993 85.5558 72.8202C86.1173 73.5145 86.3816 73.9223 86.3485 74.0876C86.2054 74.5174 84.9393 74.9913 82.5392 75.5093C80.1391 76.0273 79.0822 76.5233 79.1152 77.0082C79.1482 77.4931 80.6675 77.5813 83.7172 77.3499Z"
    fill="#D0A028" />
  <path
    d="M106.761 86.3539C108.932 86.3505 111.081 85.912 113.081 85.0644C113.423 84.9389 113.715 84.7055 113.914 84.3995C114.112 84.0935 114.206 83.7313 114.181 83.3672C114.181 82.0447 113.532 81.3944 112.31 81.4275C112.026 81.4341 111.747 81.5057 111.495 81.6369C109.797 82.4635 108.009 83.0886 106.166 83.4994C104.262 83.8411 103.315 84.337 103.337 85.0093C103.381 85.9571 104.515 86.409 106.761 86.3539Z"
    fill="#D0A028" />
  <path
    d="M123.891 101.177C123.608 101.188 123.33 101.259 123.077 101.387C121.376 102.205 119.583 102.816 117.737 103.205C115.832 103.547 114.896 104.054 114.907 104.726C114.907 105.674 116.008 106.115 118.309 106.06C120.485 106.067 122.64 105.628 124.64 104.77C124.984 104.648 125.279 104.415 125.478 104.108C125.677 103.802 125.769 103.438 125.741 103.073C125.73 101.794 125.102 101.155 123.891 101.177Z"
    fill="#D0A028" />
  <path
    d="M123.671 83.0699C123.163 83.08 122.679 83.2852 122.317 83.6429C122.125 83.8059 121.972 84.0108 121.871 84.242C121.77 84.4731 121.723 84.7244 121.734 84.9765C121.75 85.2958 121.845 85.6061 122.009 85.8802C122.637 87.159 122.961 88.566 122.956 89.9911C122.956 91.0124 121.888 91.9712 119.752 92.8676C118.606 93.3733 117.405 93.7432 116.174 93.9697C114.996 93.8154 114.379 93.2754 114.357 92.3165C114.367 92.0961 114.404 91.8777 114.467 91.6663C114.534 91.4369 114.571 91.1998 114.577 90.961C114.577 89.7597 113.983 89.1755 112.871 89.2086C112.548 89.2251 112.232 89.3126 111.947 89.465C111.662 89.6174 111.413 89.8309 111.219 90.0903C108.808 92.8676 106.177 94.2783 103.326 94.3554H102.918C101.641 94.3554 100.958 94.102 100.859 93.4958C100.324 90.5568 99.3107 82.1294 97.8207 68.2134C97.8246 67.9716 97.7762 67.7318 97.6787 67.5105C97.5813 67.2892 97.4371 67.0917 97.2561 66.9314C97.0751 66.7712 96.8617 66.6521 96.6303 66.5824C96.399 66.5126 96.1553 66.4938 95.9161 66.5272C94.5399 66.5272 93.9123 67.2546 94.0554 68.6212C94.8334 75.9686 95.4903 81.7841 96.0262 86.0676C92.5471 88.6612 86.279 90.8323 77.2217 92.581C77.4419 91.8867 77.64 91.2144 77.8052 90.5972C78.4341 88.4826 78.764 86.2901 78.785 84.0838C78.6529 78.8267 74.8326 76.3029 67.302 76.4792C59.9777 76.6965 52.6885 77.5819 45.5249 79.1243C33.6932 81.6151 27.8213 85.1051 27.9094 89.5943C28.0122 93.6942 32.1188 96.4531 40.2292 97.8712C45.5563 98.6955 50.9501 99.0056 56.3364 98.7969C61.7604 98.6442 67.1676 98.1213 72.5205 97.2319C71.2875 101.898 69.8195 106.6 68.1167 111.339C67.7896 112.113 67.5961 112.936 67.5442 113.775C67.5442 114.149 67.6543 114.337 67.8745 114.337C68.3809 114.337 68.9754 113.499 69.8342 111.857C70.9131 109.653 72.2783 106.376 73.9298 102.026C74.6638 100.086 75.317 98.2973 75.8895 96.6588L78.5098 96.1519C86.5835 94.5355 92.5948 92.5663 96.5436 90.2446C96.7858 92.0079 96.973 93.3084 97.1271 94.1571C97.6115 96.8903 99.5823 98.2238 103.039 98.1357H103.425C106.314 98.0095 109.087 96.9631 111.341 95.149C111.886 95.9909 112.646 96.6719 113.543 97.1217C113.721 97.3863 113.971 97.5949 114.264 97.7236C114.556 97.8523 114.878 97.8958 115.194 97.8491C115.546 97.8491 115.888 97.8491 116.229 97.783C116.522 97.7996 116.816 97.7996 117.11 97.783C117.565 97.8012 118.012 97.661 118.376 97.3862C119.821 97.026 121.21 96.4698 122.504 95.7331C125.345 94.146 126.732 92.2063 126.677 89.8919C126.671 87.8801 126.192 85.898 125.279 84.1058C125.142 83.794 124.917 83.5294 124.631 83.3452C124.345 83.1609 124.011 83.0651 123.671 83.0699ZM56.2703 95.0167C51.6452 95.1226 47.0188 94.8758 42.4312 94.2783C35.3409 93.3452 31.7665 91.7508 31.7078 89.4951C31.649 87.0191 36.7061 84.7855 46.8791 82.7943C53.6352 81.3867 60.4951 80.5353 67.39 80.2485C69.2745 80.0779 71.1742 80.2763 72.983 80.8326C74.2527 81.4351 74.9133 82.7135 74.9647 84.6679C74.942 86.3909 74.7279 88.1061 74.3261 89.7817C74.0839 90.8838 73.8197 92.0741 73.5444 93.2313C67.836 94.2356 62.0633 94.8322 56.2703 95.0167Z"
    fill="#1E8CB8" />
  <path
    d="M132.16 91.8754C132.651 94.0209 133.235 95.0899 133.91 95.0826C134.802 95.0826 135.22 93.6498 135.154 90.8615C135.154 90.4206 135.154 89.9688 135.066 89.5059C134.193 81.6663 133.51 75.634 133.018 71.4093C132.908 70.4615 132.501 69.9986 131.785 70.0206C131.466 70.0458 131.158 70.1482 130.888 70.3191C130.618 70.49 130.393 70.7242 130.233 71.0015C129.756 71.7126 129.524 72.5601 129.572 73.4151V73.6356C130.079 77.7795 130.519 81.2144 130.893 83.9403C131.477 88.0732 131.906 90.7293 132.16 91.8754Z"
    fill="#1E8CB8" />
  <path
    d="M162.249 74.9471C164.422 74.9547 166.573 74.5158 168.569 73.6577C168.913 73.5352 169.208 73.3026 169.407 72.9958C169.606 72.689 169.698 72.3251 169.67 71.9604C169.67 70.6379 169.02 69.9987 167.798 70.0317C167.515 70.0346 167.236 70.1024 166.983 70.2301C165.288 71.0616 163.499 71.6869 161.655 72.0927C159.75 72.4343 158.803 72.9413 158.825 73.6136C158.869 74.5504 160.003 75.0022 162.249 74.9471Z"
    fill="#D0A028" />
  <path
    d="M169.46 83.1581C168.433 80.7261 167.009 79.5322 165.188 79.5763C164.499 79.5949 163.823 79.768 163.21 80.0827C162.596 80.3974 162.061 80.8457 161.643 81.3947C160.803 82.3512 160.341 83.5819 160.344 84.8554C160.344 86.74 161.522 87.6657 163.746 87.6106C164.368 87.5906 164.988 87.5132 165.596 87.3792C165.702 87.3715 165.809 87.3715 165.915 87.3792C165.99 87.3682 166.066 87.3733 166.138 87.3942C166.211 87.4151 166.278 87.4513 166.335 87.5003C166.393 87.5494 166.439 87.6103 166.471 87.6787C166.503 87.7472 166.52 87.8216 166.521 87.8972V88.0845C166.508 88.4377 166.43 88.7854 166.289 89.1095C165.776 90.2557 164.363 91.2219 162.051 92.008C160.017 92.6848 157.895 93.0562 155.753 93.1101C155.545 93.1113 155.338 93.1372 155.137 93.1873C153.089 93.3747 151.087 93.9037 149.213 94.7523C147.474 95.5193 145.904 96.6231 144.592 98C143.281 99.377 142.255 101 141.573 102.776C141.573 103.79 139.426 104.892 135.132 106.082C131.411 106.604 129.576 107.302 129.627 108.176C129.627 108.947 130.31 109.278 131.609 109.278H132.016C138.303 109.124 142.233 108 143.797 105.873L146.912 100.693C149.136 98.5632 151.977 97.1935 155.026 96.7802C155.305 96.8605 155.595 96.8976 155.885 96.8904C158.097 96.8135 160.289 96.4429 162.403 95.7883C164.686 95.2384 166.786 94.0983 168.491 92.4819C169.153 91.6982 169.65 90.7882 169.951 89.807C170.252 88.8257 170.351 87.7936 170.242 86.773C170.226 85.5278 169.96 84.2985 169.46 83.1581Z"
    fill="#1E8CB8" />
  <path
    d="M79.1152 76.9643L78.4767 75.1899L81.9998 74.4956L82.4842 75.6197L82.1099 76.1818L81.097 76.5896L79.1152 76.9643Z"
    fill="#D0A028" />
  <path
    d="M89.9051 66.6374L89.2555 64.819L88.1986 65.7337L87.45 67.0672L88.4518 67.2766L89.4867 67.1775L89.9051 66.6374Z"
    fill="#D0A028" />
  <path
    d="M97.0612 65.855L97.7328 67.7396L97.5126 68.2355L96.819 67.3869L96.6098 66.4612L96.808 65.855H97.0612Z"
    fill="#1E8CB8" />
  <path
    d="M102.775 83.5546L103.381 85.2187L104.537 84.5024L104.405 83.5656L103.953 83.3562L103.447 83.246L102.775 83.5546Z"
    fill="#D0A028" />
  <path
    d="M113.388 80.5901L114.026 82.3865L113.707 82.6841L112.848 81.6922L112.595 80.8326L113.047 80.3917L113.388 80.5901Z"
    fill="#D0A028" />
  <path
    d="M114.324 103.271L114.963 105.079L116.68 104.792L116.879 103.172L116.207 102.875L114.324 103.271Z"
    fill="#D0A028" />
  <path
    d="M83.1115 75.5754C84.6706 75.4088 86.1741 74.9008 87.5153 74.0876C89.3209 72.9855 90.2017 71.8834 90.1796 70.7151C90.2 70.2658 90.0688 69.8226 89.8073 69.4568C89.5457 69.091 89.1689 68.8239 88.7374 68.6983C87.8126 68.3897 87.3502 68.1913 87.3392 68.1031C87.3281 68.015 87.6584 67.497 88.308 66.8577C88.6831 66.5234 89.0259 66.1544 89.3319 65.7556C89.3663 65.6374 89.3848 65.5151 89.387 65.392C89.387 64.6095 88.9686 64.2899 88.1979 64.5103C87.1744 64.8594 86.2649 65.4803 85.5666 66.3067C84.7106 67.032 84.1633 68.0568 84.0363 69.1722C84.1554 69.8736 84.4769 70.5249 84.9611 71.0458C85.5226 71.7401 85.7868 72.1479 85.7428 72.3132C85.6106 72.743 84.3445 73.2059 81.9334 73.7349C79.5223 74.2639 78.4764 74.7489 78.5094 75.2338C78.5425 75.7187 80.0398 75.7959 83.1115 75.5754Z"
    fill="#FFD151" />
  <path
    d="M106.122 84.5688C108.298 84.5763 110.452 84.1375 112.452 83.2794C112.793 83.1543 113.084 82.9227 113.282 82.6189C113.48 82.3151 113.576 81.9554 113.553 81.5931C113.553 80.2706 112.893 79.6204 111.682 79.6534C111.399 79.6603 111.121 79.7279 110.867 79.8518C109.166 80.6812 107.374 81.31 105.527 81.7254C103.623 82.056 102.687 82.563 102.698 83.2353C102.742 84.1831 103.876 84.6239 106.122 84.5688Z"
    fill="#FFD151" />
  <path
    d="M123.253 99.4031C122.97 99.4166 122.692 99.4879 122.438 99.6125C120.742 100.444 118.953 101.069 117.109 101.475C115.205 101.817 114.269 102.324 114.28 102.996C114.28 103.933 115.436 104.385 117.682 104.329C119.854 104.331 122.003 103.893 124.001 103.04C124.345 102.916 124.638 102.683 124.837 102.377C125.035 102.07 125.129 101.707 125.102 101.343C125.091 100.02 124.453 99.37 123.253 99.4031Z"
    fill="#FFD151" />
  <path
    d="M123.033 81.2952C122.526 81.3097 122.042 81.5142 121.679 81.8683C121.488 82.0328 121.337 82.238 121.236 82.4688C121.135 82.6995 121.087 82.95 121.095 83.2018C121.111 83.5211 121.206 83.8315 121.37 84.1056C122.002 85.3835 122.33 86.7905 122.328 88.2164C122.328 89.2377 121.26 90.1966 119.124 91.0929C117.975 91.5988 116.77 91.9687 115.535 92.195C114.357 92.0408 113.752 91.5007 113.73 90.5419C113.733 90.3208 113.771 90.1016 113.84 89.8916C113.909 89.6632 113.943 89.4251 113.939 89.1863C113.939 87.985 113.344 87.4009 112.232 87.4229C111.91 87.4423 111.596 87.5323 111.313 87.6866C111.029 87.8409 110.783 88.0556 110.592 88.3156C108.184 91.0782 105.553 92.4963 102.698 92.5698H102.489H102.291C101.013 92.5698 100.32 92.3163 100.221 91.7101C99.6922 88.7712 98.6794 80.3437 97.182 66.4277C97.1857 66.187 97.1375 65.9483 97.0407 65.7279C96.9439 65.5074 96.8007 65.3105 96.621 65.1505C96.4413 64.9904 96.2292 64.8711 95.9993 64.8005C95.7693 64.7299 95.5268 64.7098 95.2884 64.7415C93.9012 64.7415 93.2736 65.4689 93.4167 66.8355C94.2094 74.1829 94.8663 79.9984 95.3875 84.2819C91.9231 86.8755 85.6586 89.0467 76.594 90.7954C76.8032 90.101 77.0013 89.4287 77.1775 88.8005C77.8217 86.6802 78.1699 84.4809 78.2124 82.265C78.0803 77.019 74.2489 74.4878 66.7183 74.6715C59.3969 74.8779 52.1103 75.7634 44.9522 77.3166C33.1205 79.8074 27.2487 83.2974 27.3368 87.7866C27.4322 91.8865 31.5388 94.6454 39.6566 96.0634C44.9799 96.8878 50.3701 97.1979 55.7527 96.9892C61.1768 96.8375 66.5841 96.3147 71.9369 95.4242C70.7038 100.075 69.2359 104.777 67.533 109.531C67.2126 110.306 67.0228 111.129 66.9715 111.967C66.9715 112.342 67.0816 112.529 67.3018 112.529C67.7936 112.529 68.4432 111.702 69.2505 110.049C70.3295 107.845 71.6984 104.568 73.3571 100.218C74.0838 98.2787 74.7334 96.4933 75.3059 94.8401L77.9372 94.3441C86.0109 92.7204 92.0222 90.7513 95.971 88.4369C96.2022 90.1892 96.4003 91.5007 96.5435 92.3493C97.0279 95.0826 99.0096 96.4161 102.467 96.328H102.841C105.736 96.2049 108.515 95.154 110.768 93.3302C111.307 94.1805 112.069 94.8666 112.97 95.314C113.151 95.5767 113.401 95.7838 113.693 95.9123C113.984 96.0407 114.306 96.0854 114.621 96.0414C114.974 96.0414 115.315 96.0414 115.667 95.9753C115.961 95.9921 116.255 95.9921 116.548 95.9753C116.999 95.9883 117.441 95.8484 117.803 95.5785C119.251 95.2163 120.643 94.6603 121.943 93.9253C124.772 92.3383 126.159 90.3986 126.104 88.0842C126.104 86.0717 125.625 84.0883 124.706 82.2981C124.561 81.9817 124.323 81.7167 124.024 81.5378C123.726 81.3588 123.38 81.2743 123.033 81.2952ZM55.6316 93.2861C51.0104 93.4015 46.3872 93.1583 41.8035 92.5587C34.7059 91.5742 31.1315 89.9798 31.0801 87.7756C31.014 85.2995 36.0674 83.0659 46.2404 81.0748C53.0003 79.6678 59.8638 78.8163 66.7624 78.5289C68.6432 78.3573 70.5395 78.5557 72.3443 79.113C73.6214 79.7192 74.282 80.9866 74.326 82.9483C74.3076 84.671 74.0971 86.3862 73.6984 88.0621C73.4562 89.1643 73.192 90.3545 72.9168 91.5117C67.2044 92.5127 61.4281 93.1057 55.6316 93.2861Z"
    fill="#36A6DE" />
  <path
    d="M131.532 90.1013C132.017 92.2504 132.633 93.3195 133.272 93.2974C134.174 93.2974 134.593 91.8757 134.527 89.0763C134.527 88.6355 134.527 88.1946 134.428 87.7317C133.569 79.8994 132.886 73.8672 132.38 69.6351C132.281 68.6873 131.862 68.2244 131.158 68.2465C130.838 68.2688 130.529 68.37 130.258 68.5412C129.987 68.7124 129.763 68.9482 129.605 69.2274C129.124 69.9364 128.892 70.7854 128.945 71.641V71.8614C129.437 76.0053 129.877 79.4365 130.266 82.1551C130.85 86.299 131.268 88.9551 131.532 90.1013Z"
    fill="#36A6DE" />
  <path
    d="M161.61 73.1727C163.786 73.1802 165.941 72.7413 167.941 71.8832C168.285 71.7608 168.58 71.5282 168.779 71.2214C168.978 70.9146 169.07 70.5507 169.042 70.186C169.042 68.8635 168.381 68.2242 167.17 68.2463C166.887 68.2569 166.609 68.3283 166.355 68.4557C164.656 69.2876 162.864 69.9129 161.016 70.3182C159.122 70.6599 158.175 71.1669 158.186 71.8392C158.241 72.787 159.364 73.2278 161.61 73.1727Z"
    fill="#FFD151" />
  <path
    d="M168.833 81.3836C167.809 78.9479 166.378 77.7576 164.561 77.8017C163.872 77.8204 163.196 77.9934 162.582 78.3081C161.969 78.6228 161.433 79.0712 161.016 79.6202C160.167 80.5712 159.703 81.8054 159.717 83.0808C159.717 84.9654 160.895 85.8912 163.119 85.8361C163.74 85.8093 164.359 85.7319 164.968 85.6046C165.071 85.5915 165.174 85.5915 165.277 85.6046C165.352 85.5937 165.428 85.5988 165.502 85.6197C165.575 85.6405 165.642 85.6765 165.701 85.7254C165.759 85.7743 165.806 85.835 165.839 85.9035C165.872 85.9719 165.891 86.0466 165.893 86.1226V86.31C165.892 86.6597 165.817 87.0053 165.673 87.3239C165.159 88.4701 163.743 89.44 161.423 90.2335C159.39 90.911 157.268 91.2825 155.126 91.3356C154.921 91.3374 154.718 91.3633 154.52 91.4127C152.469 91.6012 150.464 92.1301 148.586 92.9777C145.084 94.5357 142.344 97.4215 140.967 101.001C140.967 102.015 138.824 103.117 134.538 104.307C130.816 104.814 128.967 105.52 129.033 106.401C129.099 107.283 129.704 107.504 131.003 107.504H131.411C137.708 107.349 141.639 106.214 143.202 104.098L146.318 98.9181C148.54 96.7904 151.375 95.4176 154.421 94.9946C154.702 95.0833 154.996 95.1243 155.291 95.1158C157.499 95.0505 159.69 94.6986 161.809 94.0688C164.089 93.5123 166.187 92.3731 167.897 90.7625C168.553 89.9751 169.046 89.0647 169.346 88.0845C169.647 87.1042 169.749 86.0739 169.647 85.0536C169.623 83.7881 169.346 82.5404 168.833 81.3836Z"
    fill="#36A6DE" />
  <path opacity="0.47"
    d="M159.431 20.7456C159.596 23.9527 158.33 27.0056 158.462 30.2347L164.495 29.4192C162.844 22.0461 159.97 15.0918 157.548 8.01624C156.447 4.89728 151.339 5.19485 151.515 8.84283L152.484 29.7829L158.517 28.9563L154.631 13.2072C153.937 10.3968 149.225 10.1433 148.697 13.2072L147.133 22.3216L146.384 26.73C146.13 27.4986 145.993 28.3011 145.977 29.1106L145.867 29.5624C145.614 30.1796 146.032 29.9702 147.122 28.9453L148.674 29.3751C149.434 29.7829 148.939 29.3751 148.763 28.6477C148.641 28.1628 148.542 27.6779 148.443 27.1929C148.2 26.0029 148.027 24.7995 147.926 23.589C147.722 21.2386 147.722 18.8749 147.926 16.5245C148.234 13.097 142.553 12.3034 141.893 15.709C140.329 23.7874 140.472 33.3427 135.969 40.4623H141.276C140.478 38.086 140.123 35.5829 140.23 33.0782C140.137 30.4876 140.37 27.8956 140.924 25.3634C141.837 21.5171 136.101 19.919 134.989 23.7323C132.446 32.472 129.661 41.3661 124.993 49.2131L130.608 49.9515C128.703 41.7848 131.037 32.8357 133.459 25.0328C134.637 21.2305 128.78 19.6655 127.536 23.4017C125.927 28.3489 123.939 33.1646 121.591 37.8062L127.316 39.3602C127.004 34.5638 127.756 29.7577 129.518 25.2863L123.903 22.9167C122.894 26.9422 121.346 30.8126 119.301 34.4228L125.037 35.9767C124.403 31.4839 124.492 26.9185 125.301 22.4539C126.017 18.6185 120.391 16.9433 119.367 20.8227C118.474 24.3495 116.845 27.6473 114.589 30.4992L119.719 31.8548C118.552 28.3232 118.365 24.5404 119.18 20.9109L113.135 20.0953C112.875 22.3512 112.176 24.5341 111.077 26.5206L116.691 27.259C115.282 21.4069 116.383 14.7942 117.033 8.89792H110.889C110.402 18.6452 108.957 28.3207 106.574 37.7842L112.607 38.5998C111.682 28.6808 110.24 18.883 109.304 8.99712C109.304 8.18161 108.98 7.39949 108.404 6.82284C107.828 6.24619 107.047 5.92223 106.232 5.92223C105.418 5.92223 104.636 6.24619 104.06 6.82284C103.484 7.39949 103.161 8.18161 103.161 8.99712C102.654 18.2769 103.568 27.5897 103.898 36.8584L109.932 36.0429C106.805 26.5206 103.755 16.9764 100.628 7.45416C100.375 6.71062 99.847 6.09201 99.1533 5.72445C98.4595 5.35688 97.6519 5.26806 96.895 5.47611C96.1381 5.68416 95.4889 6.1734 95.08 6.84406C94.671 7.51472 94.533 8.31629 94.6941 9.08529C97.1383 20.3819 100.089 31.5463 102.533 42.8429L108.148 40.4733C103.304 30.7527 98.2393 21.1534 93.384 11.4328C91.8426 8.32482 86.7011 10.485 87.7691 13.8023C91.4463 25.1651 96.3566 36.0869 100.045 47.4386L105.66 45.0691C100.661 35.073 94.0226 25.9806 89.0132 15.9845C87.4718 12.8986 82.2312 15.0477 83.3982 18.354C87.2626 29.2649 93.362 39.7239 95.3988 51.2189L101.014 48.8493C96.6098 41.2558 90.5435 34.5219 87.2296 26.2782C85.7873 22.7073 80.2935 23.9748 81.3064 27.9203C83.5083 36.4837 87.9122 44.3858 89.1783 53.2027L94.3198 50.205C89.0682 46.061 88.7489 38.3463 85.1598 33.001C84.7738 32.3735 84.1762 31.9049 83.4751 31.6801C82.7739 31.4553 82.0156 31.4891 81.3372 31.7753C80.6588 32.0616 80.1052 32.5815 79.7764 33.2409C79.4477 33.9004 79.3655 34.6558 79.5449 35.3706C80.6352 41.2479 80.9535 47.2427 80.4917 53.2027L86.2277 51.6487C83.2057 45.0832 81.3432 38.0431 80.7229 30.8409C80.3926 26.9394 74.3153 26.8623 74.5795 30.8409C75.1415 39.4274 74.8872 48.0479 73.8198 56.5862L79.5559 55.0322C75.5043 47.1962 75.9667 38.0377 76.341 29.4853H70.1977C69.9697 38.2368 68.8631 46.9432 66.8948 55.473L72.5207 54.7346C68.337 47.0198 69.3829 37.7291 70.3188 29.32H64.1754C63.6166 37.506 62.4761 45.6418 60.7624 53.6656H66.6856C64.8729 45.716 64.4594 37.511 65.4635 29.4192C65.8819 26.0027 59.9587 25.1871 59.4302 28.6036L55.2465 53.4011L60.377 52.0455C58.2852 50.1057 58.7146 46.1823 58.5825 43.5923C58.3733 39.6137 58.1861 35.6461 57.999 31.6675C57.8448 28.3612 52.7804 27.3252 51.9657 30.8519L49.4555 41.4873C48.883 43.956 48.7288 47.8685 46.7361 49.6759L51.8776 51.0315C49.6757 43.9119 49.9949 36.4837 50.3142 29.1326C50.4904 25.0989 44.5892 25.2863 44.1708 29.1326C43.3433 36.4174 41.6733 43.5814 39.1945 50.4805H45.1177C43.6612 44.8385 43.4806 38.9422 44.5892 33.2215L38.666 31.5683L35.3631 49.0037H41.2863C40.0542 44.0819 39.5461 39.0065 39.778 33.9378C39.9431 30.3339 34.8016 29.9372 33.7447 33.1223L29.572 45.6422H35.4952C34.3085 42.2908 33.7523 38.7484 33.8548 35.1942C33.8462 34.3814 33.5198 33.6043 32.9456 33.0295C32.3714 32.4547 31.5951 32.128 30.7831 32.1193C29.9735 32.1388 29.2023 32.4687 28.6287 33.0409C28.055 33.6131 27.7227 34.3839 27.7004 35.1942C27.1918 38.9507 26.2952 42.6442 25.025 46.2153H30.9482C30.2449 43.5353 30.0103 40.7537 30.2546 37.9936C30.5189 34.5771 24.8269 33.7615 24.2103 37.178L23.5718 40.7489C22.8672 44.6283 28.7903 46.2594 29.495 42.391L30.1445 38.8092L24.1002 37.9936C23.8555 41.3065 24.1681 44.6371 25.025 47.8464C25.8398 50.9323 29.9904 50.6017 30.9482 47.8464C32.3543 43.7455 33.3285 39.5088 33.8548 35.2053H27.7114C27.5995 39.3263 28.2336 43.4335 29.583 47.3284C29.7751 47.9651 30.1668 48.5229 30.7002 48.9194C31.2336 49.3159 31.8803 49.53 32.5446 49.53C33.209 49.53 33.8557 49.3159 34.3891 48.9194C34.9225 48.5229 35.3142 47.9651 35.5062 47.3284L39.6789 34.7313L33.6456 33.9158C33.4041 39.5361 33.9865 45.1614 35.3741 50.6127C36.0897 53.4341 40.7248 53.6545 41.2973 50.6127L44.6002 33.1774C45.3379 29.32 39.4477 27.6668 38.677 31.5462C37.315 38.3436 37.4956 45.3604 39.2055 52.0785C39.9982 55.1865 44.1598 54.8007 45.1287 52.0785C47.7524 44.6448 49.4965 36.9288 50.3252 29.0886H44.1708C43.8185 36.9796 43.5983 44.9809 45.9434 52.6296C46.0966 53.1413 46.3785 53.6052 46.7622 53.9765C47.1458 54.3479 47.6184 54.6144 48.1345 54.7505C48.6505 54.8865 49.1929 54.8876 49.7095 54.7536C50.2262 54.6196 50.6998 54.355 51.0849 53.9852C53.7162 51.5826 54.2447 47.9787 55.0153 44.6724L57.8779 32.3288L51.8446 31.5132C52.0648 36.289 52.2996 41.0648 52.5492 45.8406C52.7474 49.5988 53.0887 53.5554 56.0282 56.2445C57.5696 57.6773 60.7514 57.3466 61.1587 54.8889L65.3424 30.0915L59.3091 29.2759C58.2723 37.9381 58.7605 46.7151 60.7514 55.2085C61.423 58.1071 66.047 58.1732 66.6746 55.2085C68.5001 46.647 69.7143 37.9661 70.3078 29.2318C70.3049 28.4172 69.9803 27.6368 69.4049 27.0608C68.8294 26.4847 68.0498 26.1598 67.2361 26.1569C66.4267 26.1738 65.6552 26.5032 65.0827 27.0762C64.5103 27.6493 64.1812 28.4216 64.1644 29.2318C63.1405 38.8753 62.4799 48.9265 67.2471 57.7544C67.5606 58.2641 68.0144 58.6724 68.5541 58.9301C69.0938 59.1878 69.6964 59.2841 70.2894 59.2072C70.8824 59.1304 71.4406 58.8838 71.897 58.497C72.3534 58.1103 72.6884 57.5998 72.862 57.027C74.9583 47.947 76.1422 38.6799 76.3961 29.3641C76.5062 25.3965 70.4289 25.4185 70.2527 29.3641C69.8123 39.1177 69.7022 49.1249 74.2933 58.0189C75.8566 61.0166 79.688 59.1871 80.0293 56.4649C81.0875 47.9259 81.3381 39.3059 80.7779 30.7197H74.6345C75.3231 39.027 77.4659 47.1484 80.9651 54.7126C82.3413 57.7213 86.4699 55.9028 86.6901 53.1586C87.1412 46.6472 86.7452 40.1046 85.5121 33.6954L79.8972 36.0649C83.8496 41.9391 84.1579 49.8964 90.015 54.5142C90.5003 54.9735 91.1211 55.2633 91.7845 55.3403C92.448 55.4172 93.1185 55.2772 93.6958 54.9411C94.2732 54.605 94.7264 54.0908 94.9877 53.4756C95.249 52.8603 95.3044 52.1769 95.1455 51.5275C93.9125 42.7106 89.4646 34.7975 87.2736 26.2341L81.3504 27.8762C84.8956 36.627 91.072 43.8017 95.7511 51.9132C97.5897 55.0873 101.961 52.839 101.366 49.5437C99.3292 38.0487 93.2409 27.5897 89.3765 16.6678L83.7175 18.9822C88.7159 28.9894 95.3657 38.0818 100.364 48.0779C101.916 51.1858 107.058 49.0257 105.979 45.7083C102.302 34.3456 97.3915 23.4237 93.7033 12.072L88.0883 14.4415C92.9326 24.1511 97.997 33.7615 102.852 43.4711C104.471 46.7223 109.172 44.3748 108.467 41.1015C106.034 29.8159 103.072 18.6406 100.639 7.35497L94.7272 8.98609C97.8649 18.5083 100.915 28.0526 104.041 37.5748C105.087 40.7489 110.207 40.3741 110.075 36.7592C109.755 27.4905 108.831 18.1777 109.337 8.89792H103.205C104.129 18.8169 105.561 28.6146 106.507 38.5005C106.816 41.8069 111.616 42.909 112.541 39.3161C115.053 29.3179 116.572 19.0959 117.077 8.79873C117.077 7.98322 116.753 7.20112 116.177 6.62447C115.601 6.04781 114.82 5.72386 114.005 5.72386C113.19 5.72386 112.409 6.04781 111.833 6.62447C111.257 7.20112 110.933 7.98322 110.933 8.79873C110.207 15.3122 109.249 22.3326 110.801 28.791C110.976 29.3641 111.311 29.8747 111.768 30.2619C112.225 30.6491 112.783 30.8964 113.377 30.9743C113.97 31.0522 114.573 30.9573 115.114 30.7011C115.655 30.4449 116.111 30.0381 116.427 29.5294C118.014 26.5745 119.002 23.3346 119.334 19.9962C119.708 16.5355 114.049 15.8192 113.289 19.1696C112.192 23.8757 112.383 28.7907 113.84 33.3978C114.478 35.3926 117.44 36.7041 118.97 34.7534C121.952 31.1211 124.125 26.8942 125.345 22.3547L119.411 20.7236C118.447 25.7171 118.283 30.8325 118.926 35.8775C119.301 38.6659 123 40.3631 124.651 37.4315C126.966 33.3571 128.725 28.9907 129.881 24.4487C130.696 21.2195 125.686 18.7728 124.255 22.0791C121.973 27.5152 120.935 33.3933 121.216 39.2831C121.293 42.1816 125.477 43.6915 126.941 40.837C129.547 35.7205 131.755 30.4111 133.547 24.9556L127.624 23.3245C124.85 32.2406 122.593 42.2257 124.762 51.5054C125.378 54.1395 129.077 54.4481 130.387 52.2439C135.32 43.945 138.314 34.5219 141.012 25.2863L135.078 23.6552C133.591 29.9262 133.525 37.4976 136.057 43.4931C137.015 45.7524 140.274 45.2344 141.364 43.4931C146.219 35.7784 146.219 25.9806 147.904 17.2739L141.871 16.4584C141.547 20.1998 141.71 23.9674 142.355 27.6668C142.883 30.7748 143.764 35.5579 147.981 35.0069C151.768 34.5109 152.054 30.0364 152.561 27.1158L154.675 14.8163H148.674L152.572 30.5764C153.387 33.8827 158.77 33.2545 158.605 29.7608L157.636 8.82078L151.603 9.63634C154.025 16.756 156.899 23.6662 158.55 31.0283C159.299 34.3346 164.771 33.6954 164.583 30.2127C164.418 26.9945 165.684 23.9417 165.552 20.7236C165.343 16.778 159.189 16.756 159.409 20.7236L159.431 20.7456Z"
    fill="#72C6CF" />
  <path
    d="M104.536 15.0368C104.557 16.5749 104.056 18.0745 103.116 19.291C102.65 19.9286 102.038 20.4447 101.331 20.7957C100.623 21.1467 99.8425 21.3224 99.0534 21.3078C98.1772 21.1902 97.3584 20.8054 96.7083 20.2057C95.9772 21.1252 95.0573 21.8769 94.011 22.4099C93.1379 22.9535 92.1502 23.2856 91.1264 23.3798C90.764 23.3541 90.415 23.2324 90.1151 23.0271C89.8152 22.8218 89.5753 22.5403 89.4199 22.2116C89.0134 21.5474 88.7929 20.7861 88.7814 20.0073C88.7846 19.0665 88.9678 18.135 89.3208 17.2631C89.7062 16.161 90.2346 15.654 90.8842 15.654C91.5338 15.654 91.831 16.1279 91.9852 17.0757C91.9852 17.5937 92.0512 18.1778 92.0843 18.6848C92.1462 18.7951 92.2379 18.8857 92.3489 18.9461C92.4599 19.0065 92.5857 19.0344 92.7118 19.0265C93.2246 18.9752 93.7146 18.7888 94.1321 18.4864C95.0684 17.8441 95.8414 16.991 96.389 15.9957C97.0349 14.9817 97.5414 14.4748 97.9084 14.4748C98.3598 14.4748 98.613 15.0368 98.657 16.161C98.7011 17.2851 99.0424 17.8582 99.6699 17.8582C100.24 17.8263 100.786 17.6184 101.233 17.2631C101.784 16.8774 102.059 16.4806 102.059 16.0949C102.059 14.4307 102.521 13.5931 103.435 13.5931C104.349 13.5931 104.536 14.0449 104.536 15.0368Z"
    fill="#55C3E9" />
  <path
    d="M116.878 23.4019C117.795 23.3014 118.719 23.5206 119.493 24.0226C120.267 24.5245 120.845 25.2785 121.128 26.1572C121.47 28.5487 122.229 29.75 123.22 29.75C123.22 29.9043 123.605 29.9815 124.321 29.9815H123.605C125.158 29.9815 125.928 30.5876 125.928 31.8V32.7478C125.928 33.9821 125.158 34.5993 123.605 34.5993H125.026C120.952 34.5993 118.497 33.3245 117.66 30.775C117.396 29.0888 116.923 28.2512 116.24 28.2512H115.689C112.086 28.2512 107.594 30.7493 102.214 35.7455C102.062 36.0389 101.861 36.3037 101.619 36.528C107.322 37.2627 110.174 37.8432 110.174 38.2693C110.836 38.5033 111.407 38.9425 111.802 39.5232C112.198 40.1039 112.399 40.7958 112.376 41.4985C112.376 46.6417 106.625 51.3367 95.1234 55.5835C91.8866 56.5754 88.1139 57.5342 83.8055 58.4599C82.9908 59.5988 80.7888 63.4635 77.1997 70.0541C76.4841 70.8918 75.9446 71.3216 75.5813 71.3216L75.262 70.8477V70.4068C75.262 69.4149 76.6822 65.6457 79.5227 59.1323H79.4016C74.9492 59.8831 70.4409 60.2518 65.9258 60.2344H65.2212C45.947 60.2344 33.8363 57.1595 28.8893 51.0097C27.7994 49.4934 27.207 47.6757 27.1938 45.8078V45.3338C27.1938 36.9725 38.398 31.9102 60.8063 30.1468L68.5131 29.9153C79.3906 30.0476 85.956 32.6633 88.2094 37.7624C88.5727 38.8282 88.7731 39.9429 88.8039 41.0687C88.8039 43.6697 87.846 47.7475 85.9303 53.3021C90.0751 52.4138 94.1291 51.1447 98.041 49.5108C103.245 47.3066 106.306 44.9922 107.223 42.5676C107.223 42.1488 105.388 41.6895 101.718 41.1899C99.6616 41.1514 97.6954 40.3365 96.2134 38.9086C96.0037 38.5774 95.8824 38.1979 95.8611 37.8064V37.564C96.5216 34.941 99.2924 31.7853 104.173 28.0969C108.885 24.9595 113.121 23.3945 116.878 23.4019ZM31.895 45.2898V45.6424C31.895 50.3521 40.0641 53.5482 56.4025 55.2308C59.0844 55.49 61.7782 55.6078 64.4725 55.5835H66.9937C71.7965 55.5604 76.5872 55.0993 81.3063 54.2058C83.3101 48.1516 84.3083 43.6807 84.3009 40.7932C84.3009 37.5823 80.9136 35.5581 74.139 34.7205C71.5628 34.5552 69.7352 34.4781 68.6342 34.4781C58.5663 34.3761 48.542 35.8144 38.9081 38.7432C34.2327 40.5727 31.895 42.7549 31.895 45.2898ZM57.7016 19.258C57.7148 20.1984 57.6225 21.1374 57.4264 22.0573C57.1621 23.1374 56.8318 23.6774 56.4355 23.6774C56.0391 23.6774 55.852 23.2145 55.852 22.2888C55.9061 21.0953 55.7188 19.9033 55.3015 18.784C54.9051 18.1779 54.3877 17.3072 53.7601 16.1831C53.6596 15.946 53.6072 15.6912 53.606 15.4336C53.606 14.6181 53.973 14.2103 54.707 14.2103C54.9491 14.2256 55.1858 14.2891 55.4031 14.397C55.6205 14.5048 55.8143 14.6549 55.9731 14.8385C56.5408 15.4227 56.9862 16.1146 57.283 16.8736C57.5798 17.6325 57.7222 18.4432 57.7016 19.258ZM116.746 15.643L115.414 17.8473C115.219 18.1853 114.938 18.4654 114.6 18.659C114.261 18.8527 113.877 18.9529 113.488 18.9494C112.841 18.9588 112.216 18.7134 111.748 18.2661C111.51 18.057 111.32 17.7992 111.191 17.5102C111.062 17.2211 110.997 16.9075 110.999 16.5909C111.011 16.1293 111.148 15.6796 111.396 15.2904L112.739 13.0861C112.934 12.7481 113.215 12.468 113.553 12.2744C113.892 12.0807 114.276 11.9805 114.666 11.984C115.31 11.9804 115.931 12.2297 116.394 12.6784C116.632 12.8874 116.822 13.1452 116.951 13.4343C117.08 13.7233 117.145 14.0369 117.143 14.3536C117.128 14.8111 116.991 15.2563 116.746 15.643Z"
    fill="#55C3E9" />
  <path
    d="M154.421 24.5365C157.474 24.5365 158.997 25.4733 158.99 27.3469V27.4571C159.041 28.1429 158.848 28.8246 158.445 29.3814C158.042 29.9382 157.455 30.3341 156.788 30.4989C155.682 30.7654 154.545 30.884 153.408 30.8516C152.044 30.9388 150.674 30.8199 149.345 30.4989H149.268C143.955 32.5817 139.648 36.636 137.246 41.8176C134.31 48.7241 131.712 52.1811 129.451 52.1884C127.065 52.1884 125.869 50.5316 125.862 47.2179C125.862 44.1688 126.757 39.7383 128.548 33.9265H128.46C127.075 34.3325 125.65 34.5838 124.21 34.6759L124.133 34.5216V30.2565C124.133 30.1573 124.805 30.025 126.137 29.8707C128.096 29.5355 129.878 28.5306 131.179 27.0273C131.412 26.6734 131.72 26.376 132.082 26.1567C132.444 25.9374 132.85 25.8019 133.271 25.7599C133.571 25.7152 133.876 25.7415 134.164 25.8364C134.451 25.9314 134.713 26.0925 134.927 26.3069C135.141 26.5212 135.302 26.7827 135.397 27.0705C135.492 27.3583 135.518 27.6643 135.473 27.9641V28.1294C135.101 29.5995 134.573 31.0256 133.899 32.3835C131.88 38.5333 130.871 42.2401 130.871 43.5038C130.735 43.8971 130.668 44.311 130.673 44.7272H130.75C132.292 41.0044 134.277 37.4815 136.662 34.2351C138.136 32.3804 139.829 30.7115 141.705 29.2646C146.145 26.1199 150.384 24.5439 154.421 24.5365ZM156.193 18.1112C153.663 19.1181 150.955 19.6018 148.233 19.533C145.415 19.533 144.017 18.9378 144.017 17.7586C144.017 16.921 145.206 16.3148 147.595 15.9401C149.92 15.4755 152.182 14.7355 154.333 13.7359C154.654 13.5765 155.009 13.4935 155.368 13.4934C156.887 13.4934 157.647 14.32 157.647 15.9842C157.674 16.4498 157.546 16.9113 157.283 17.2963C157.02 17.6813 156.637 17.968 156.193 18.1112Z"
    fill="#55C3E9" />
  <path
    d="M104.536 13.5375C104.555 15.0786 104.055 16.5812 103.116 17.8027C102.648 18.4376 102.035 18.9511 101.328 19.3001C100.621 19.6491 99.8414 19.8234 99.0534 19.8085C98.1772 19.6909 97.3584 19.3061 96.7083 18.7064C95.9771 19.6259 95.0573 20.3776 94.011 20.9106C93.1389 21.4581 92.1511 21.794 91.1264 21.8915C90.7632 21.8636 90.4138 21.7398 90.114 21.5326C89.8142 21.3255 89.5747 21.0424 89.4199 20.7122C89.0119 20.0488 88.7913 19.287 88.7814 18.508C88.7847 17.5708 88.9678 16.6429 89.3208 15.7748C89.7062 14.6727 90.2346 14.1547 90.8842 14.1547C91.5338 14.1547 91.831 14.6286 91.9852 15.5764C91.9852 16.0944 92.0512 16.6785 92.0843 17.1855C92.1447 17.2978 92.2357 17.3906 92.3469 17.4531C92.458 17.5155 92.5846 17.545 92.7118 17.5382C93.2234 17.4819 93.7122 17.296 94.1321 16.9981C95.0657 16.3481 95.8378 15.4922 96.389 14.4963C97.0349 13.4824 97.5414 12.9754 97.9084 12.9754C98.3598 12.9754 98.613 13.5375 98.657 14.6727C98.7011 15.8079 99.0424 16.3589 99.6699 16.3589C100.238 16.3266 100.783 16.123 101.233 15.7748C101.784 15.378 102.059 14.9813 102.059 14.5955C102.059 12.9314 102.521 12.0938 103.435 12.0938C104.349 12.0938 104.536 12.5236 104.536 13.5375Z"
    fill="#C16D21" />
  <path
    d="M116.878 21.8806C117.795 21.7802 118.719 21.9994 119.493 22.5013C120.267 23.0033 120.845 23.7572 121.128 24.6359C121.469 27.0275 122.229 28.2288 123.22 28.2288C123.22 28.3831 123.605 28.4602 124.321 28.4602H123.605C125.157 28.4602 125.928 29.0664 125.928 30.2787V31.2265C125.928 32.4609 125.157 33.078 123.605 33.078H125.025C120.952 33.078 118.497 31.8033 117.66 29.2537C117.396 27.5675 116.922 26.7299 116.24 26.7299H115.689C112.085 26.7299 107.593 29.228 102.213 34.2242C102.061 34.5202 101.86 34.7884 101.619 35.0178C107.322 35.7452 110.173 36.3293 110.173 36.7481C110.836 36.982 111.406 37.4213 111.802 38.0019C112.198 38.5826 112.399 39.2746 112.375 39.9773C112.375 45.1204 106.625 49.8154 95.1232 54.0622C91.923 55.0614 88.154 56.0129 83.8162 56.9167C83.0015 58.0555 80.7996 61.9202 77.2104 68.5108C76.4948 69.3594 75.9553 69.7783 75.592 69.7783L75.2727 69.3043V68.8635C75.2727 67.8716 76.693 64.1134 79.5335 57.5889H79.4124C74.96 58.3398 70.4517 58.7085 65.9366 58.691H65.2319C45.9577 58.691 33.8471 55.6125 28.9001 49.4554C27.8102 47.9391 27.2177 46.1214 27.2046 44.2534V43.7795C27.2046 35.4182 38.4087 30.3558 60.8171 28.5925L68.5238 28.361C79.4014 28.4933 85.9668 31.109 88.2201 36.208C88.5824 37.2742 88.7828 38.3887 88.8146 39.5144C88.8146 42.1264 87.8568 46.1931 85.9411 51.7478C90.0859 50.8595 94.1399 49.5904 98.0517 47.9565C103.259 45.7523 106.32 43.4158 107.234 41.0132C107.234 40.5944 105.395 40.1426 101.729 39.6356C99.6723 39.5971 97.7061 38.7822 96.2241 37.3542C96.0145 37.0231 95.8932 36.6436 95.8718 36.2521V35.9766C96.5324 33.3536 99.3031 30.2015 104.184 26.5205C108.889 23.4199 113.12 21.8733 116.878 21.8806ZM31.8947 43.7685V44.1212C31.8947 48.8309 40.0639 52.027 56.4022 53.7095C59.0842 53.9688 61.7779 54.0865 64.4723 54.0622H66.9935C71.7962 54.0391 76.5869 53.578 81.306 52.6846C83.3098 46.6303 84.308 42.1594 84.3007 39.2719C84.3007 36.0611 80.9134 34.0369 74.1388 33.1993C71.5625 33.045 69.7349 32.9568 68.6339 32.9568C58.5661 32.8549 48.5418 34.2932 38.9079 37.222C34.2324 39.0662 31.8947 41.2484 31.8947 43.7685Z"
    fill="#1E8CB8" />
  <path
    d="M154.421 23.0267C157.47 23.0267 158.99 23.9525 158.99 25.8261V25.9363C159.041 26.622 158.848 27.3038 158.445 27.8606C158.042 28.4174 157.455 28.8133 156.788 28.9781C155.682 29.2446 154.545 29.3632 153.408 29.3308C152.044 29.418 150.674 29.2991 149.345 28.9781H149.268C143.955 31.0609 139.648 35.1152 137.246 40.2968C134.31 47.2107 131.712 50.6676 129.451 50.6676C127.065 50.6676 125.869 49.0108 125.862 45.6971C125.862 42.6553 126.757 38.2248 128.548 32.4057H128.46C127.077 32.8172 125.651 33.0687 124.21 33.1551L124.133 33.0008V28.7467C124.133 28.6365 124.805 28.5042 126.137 28.3499C128.096 28.0147 129.878 27.0098 131.179 25.5065C131.412 25.1536 131.72 24.8575 132.082 24.64C132.445 24.4225 132.851 24.2893 133.271 24.2501C133.571 24.203 133.878 24.2275 134.167 24.3216C134.455 24.4158 134.717 24.5768 134.932 24.7917C135.147 25.0065 135.308 25.2692 135.402 25.5581C135.496 25.847 135.52 26.1541 135.473 26.4543V26.6196C135.101 28.0897 134.573 29.5158 133.899 30.8737C131.88 37.0235 130.871 40.7303 130.871 41.994C130.735 42.3873 130.668 42.8012 130.673 43.2174H130.75C132.292 39.4946 134.277 35.9717 136.662 32.7253C138.136 30.8707 139.829 29.2016 141.705 27.7548C146.145 24.6027 150.384 23.0267 154.421 23.0267Z"
    fill="#1E8CB8" />
  <path
    d="M104.536 11.2566C104.555 12.7977 104.055 14.3002 103.116 15.5217C102.648 16.1566 102.035 16.6701 101.328 17.0191C100.621 17.3681 99.8414 17.5424 99.0534 17.5275C98.1772 17.4099 97.3584 17.0251 96.7083 16.4254C95.9771 17.345 95.0573 18.0966 94.011 18.6297C93.1379 19.1732 92.1502 19.5053 91.1264 19.5995C90.764 19.5738 90.415 19.4521 90.1151 19.2468C89.8152 19.0415 89.5753 18.76 89.4199 18.4313C89.0038 17.7512 88.7829 16.9695 88.7814 16.172C88.7846 15.2311 88.9678 14.2996 89.3208 13.4277C89.7062 12.3256 90.2346 11.8186 90.8842 11.8186C91.5338 11.8186 91.831 12.2925 91.9852 13.2403C91.9852 13.7583 92.0512 14.3425 92.0843 14.8494C92.1462 14.9597 92.2379 15.0503 92.3489 15.1107C92.4599 15.1711 92.5857 15.199 92.7118 15.1911C93.2227 15.1395 93.7118 14.9574 94.1321 14.6621C95.0657 14.012 95.8378 13.1561 96.389 12.1603C97.0349 11.1463 97.5414 10.6394 97.9084 10.6394C98.3598 10.6394 98.613 11.2014 98.657 12.3366C98.7011 13.4718 99.0424 14.0228 99.6699 14.0228C100.24 13.9909 100.786 13.783 101.233 13.4277C101.784 13.042 102.059 12.6452 102.059 12.2595C102.059 10.5953 102.521 9.75769 103.435 9.75769C104.349 9.75769 104.536 10.2426 104.536 11.2566Z"
    fill="#F59B3F" />
  <path
    d="M116.878 19.5991C117.795 19.4986 118.719 19.7178 119.493 20.2198C120.267 20.7217 120.845 21.4757 121.128 22.3544C121.47 24.7459 122.229 25.9472 123.22 25.9472C123.22 26.1015 123.605 26.1787 124.321 26.1787H123.605C125.158 26.1787 125.928 26.7848 125.928 27.9971V28.945C125.928 30.1793 125.158 30.7965 123.605 30.7965H125.026C120.952 30.7965 118.497 29.5217 117.66 26.9722C117.396 25.286 116.923 24.4484 116.24 24.4484H115.689C112.086 24.4484 107.594 26.9465 102.214 31.9427C102.062 32.2361 101.861 32.5009 101.619 32.7252C107.322 33.4599 110.174 34.0404 110.174 34.4665C110.836 34.7005 111.407 35.1397 111.802 35.7204C112.198 36.3011 112.399 36.993 112.376 37.6957C112.376 42.8389 106.625 47.5339 95.1234 51.7806C91.8866 52.7725 88.1213 53.7424 83.8055 54.6572C82.9908 55.796 80.7888 59.6607 77.1997 66.2513C76.4841 67.0889 75.9446 67.5187 75.5813 67.5187L75.262 67.0448V66.604C75.262 65.6121 76.6822 61.8429 79.5227 55.3294H79.4016C74.9492 56.0803 70.4409 56.449 65.9258 56.4315H65.2212C45.947 56.4315 33.8363 53.3567 28.8893 47.2069C27.7994 45.6906 27.207 43.8729 27.1938 42.0049V41.487C27.1938 33.1256 38.398 28.0633 60.8063 26.2999L68.5131 26.0685C79.3906 26.2007 85.956 28.8164 88.2094 33.9155C88.5727 34.9813 88.7731 36.096 88.8039 37.2218C88.8039 39.8338 87.846 43.9006 85.9303 49.4552C90.0751 48.5669 94.1291 47.2978 98.041 45.664C103.245 43.4597 106.306 41.1453 107.223 38.7207C107.223 38.3019 105.388 37.8427 101.718 37.343C99.6616 37.3045 97.6954 36.4896 96.2134 35.0617C96.0037 34.7305 95.8824 34.351 95.8611 33.9596V33.7171C96.5216 31.0941 99.2924 27.9384 104.173 24.25C108.885 21.1494 113.121 19.5991 116.878 19.5991ZM31.895 41.487V41.8396C31.895 46.542 40.0641 49.7381 56.4025 51.428C59.0844 51.6872 61.7782 51.8049 64.4725 51.7806H66.9937C71.7965 51.7576 76.5872 51.2964 81.3063 50.403C83.3101 44.3561 84.3083 39.8852 84.3009 36.9904C84.3009 33.7869 80.9136 31.7627 74.139 30.9177C71.5628 30.7524 69.7352 30.6753 68.6342 30.6753C58.5663 30.5733 48.542 32.0116 38.9081 34.9404C34.2327 36.7846 31.895 38.9668 31.895 41.487Z"
    fill="#36A6DE" />
  <path
    d="M154.421 20.7455C157.47 20.7455 158.99 21.6713 158.99 23.5448V23.6551C159.041 24.3408 158.848 25.0225 158.445 25.5794C158.042 26.1362 157.455 26.5321 156.788 26.6969C155.682 26.9633 154.545 27.0819 153.408 27.0495C152.044 27.1368 150.674 27.0179 149.345 26.6969H149.268C143.955 28.7796 139.648 32.8339 137.246 38.0155C134.31 44.9294 131.712 48.3864 129.451 48.3864C127.065 48.3864 125.869 46.7295 125.862 43.4159C125.862 40.3594 126.757 35.9289 128.548 30.1244H128.46C127.077 30.536 125.651 30.7874 124.21 30.8739L124.133 30.7196V26.4544C124.133 26.3552 124.805 26.223 126.137 26.0687C128.096 25.7335 129.878 24.7285 131.179 23.2252C131.412 22.8714 131.72 22.5739 132.082 22.3547C132.444 22.1354 132.85 21.9998 133.271 21.9578C133.571 21.9132 133.876 21.9394 134.164 22.0344C134.451 22.1294 134.713 22.2905 134.927 22.5048C135.141 22.7191 135.302 22.9806 135.397 23.2684C135.492 23.5562 135.518 23.8623 135.473 24.162V24.3273C135.101 25.7974 134.573 27.2235 133.899 28.5815C131.88 34.7312 130.871 38.438 130.871 39.7018C130.735 40.0951 130.668 40.5089 130.673 40.9251H130.75C132.292 37.2023 134.277 33.6795 136.662 30.433C138.136 28.5784 139.829 26.9094 141.705 25.4625C146.145 22.3178 150.384 20.7455 154.421 20.7455Z"
    fill="#36A6DE" />
  <path
    d="M57.7011 17.7371C57.7143 18.6775 57.622 19.6166 57.4258 20.5364C57.1616 21.6165 56.8313 22.1565 56.4349 22.1565C56.0386 22.1565 55.8514 21.6936 55.8514 20.7789C55.9064 19.5818 55.7192 18.386 55.301 17.2632C54.9046 16.657 54.3872 15.7973 53.7596 14.6622C53.659 14.4251 53.6066 14.1703 53.6055 13.9127C53.6055 13.0972 53.9725 12.6894 54.7064 12.6894C54.9486 12.7047 55.1852 12.7682 55.4026 12.876C55.62 12.9839 55.8137 13.134 55.9725 13.3176C56.5403 13.9018 56.9856 14.5937 57.2825 15.3527C57.5793 16.1116 57.7216 16.9223 57.7011 17.7371Z"
    fill="#C16D21" />
  <path
    d="M57.7011 15.4554C57.7143 16.3959 57.622 17.3349 57.4258 18.2547C57.1616 19.3348 56.8313 19.8748 56.4349 19.8748C56.0386 19.8748 55.8514 19.4119 55.8514 18.4972C55.9064 17.3001 55.7192 16.1043 55.301 14.9815C54.9046 14.3753 54.3872 13.5157 53.7596 12.3805C53.659 12.1434 53.6066 11.8886 53.6055 11.6311C53.6055 10.8155 53.9725 10.4077 54.7064 10.4077C54.9486 10.4231 55.1852 10.4865 55.4026 10.5944C55.62 10.7022 55.8137 10.8523 55.9725 11.0359C56.5403 11.6201 56.9856 12.312 57.2825 13.071C57.5793 13.8299 57.7216 14.6406 57.7011 15.4554Z"
    fill="#F59B3F" />
  <path
    d="M116.746 14.1221L115.414 16.3264C115.219 16.6644 114.938 16.9445 114.6 17.1381C114.261 17.3318 113.877 17.432 113.487 17.4285C112.839 17.4338 112.215 17.1845 111.748 16.7341C111.51 16.5251 111.32 16.2673 111.191 15.9782C111.062 15.6892 110.996 15.3756 110.999 15.0589C111.011 14.5974 111.148 14.1477 111.396 13.7584L112.739 11.5542C112.934 11.2162 113.215 10.9361 113.553 10.7425C113.892 10.5488 114.276 10.4486 114.665 10.4521C115.31 10.4485 115.931 10.6977 116.394 11.1464C116.632 11.3555 116.822 11.6133 116.951 11.9023C117.08 12.1914 117.145 12.505 117.143 12.8217C117.13 13.2829 116.993 13.7322 116.746 14.1221Z"
    fill="#C16D21" />
  <path
    d="M116.746 11.8407L115.414 14.0449C115.219 14.3829 114.938 14.663 114.6 14.8567C114.261 15.0503 113.877 15.1505 113.487 15.147C112.84 15.1565 112.216 14.9111 111.748 14.4637C111.51 14.2547 111.32 13.9969 111.191 13.7078C111.062 13.4187 110.996 13.1052 110.999 12.7885C111.011 12.327 111.148 11.8773 111.396 11.488L112.739 9.28378C112.934 8.94577 113.215 8.66563 113.553 8.47199C113.892 8.27836 114.276 8.17817 114.665 8.18167C115.31 8.17805 115.931 8.42729 116.394 8.876C116.632 9.085 116.822 9.34282 116.951 9.6319C117.08 9.92098 117.145 10.2345 117.143 10.5512C117.128 11.0087 116.991 11.4539 116.746 11.8407Z"
    fill="#F59B3F" />
  <path
    d="M156.194 16.5908C153.664 17.5977 150.956 18.0813 148.234 18.0125C145.416 18.0125 144.018 17.4284 144.018 16.2381C144.018 15.4005 145.207 14.7943 147.596 14.4306C149.919 13.9594 152.18 13.2197 154.334 12.2264C154.655 12.067 155.01 11.984 155.369 11.9839C156.888 11.9839 157.648 12.8105 157.648 14.4747C157.674 14.9389 157.546 15.3988 157.283 15.7819C157.02 16.165 156.637 16.4496 156.194 16.5908Z"
    fill="#C16D21" />
  <path
    d="M156.194 14.309C153.664 15.3159 150.956 15.7995 148.234 15.7307C145.416 15.7307 144.018 15.1356 144.018 13.9563C144.018 13.1187 145.207 12.5126 147.596 12.1378C149.921 11.6732 152.183 10.9333 154.334 9.93363C154.655 9.77421 155.01 9.69123 155.369 9.69116C156.888 9.69116 157.648 10.5178 157.648 12.1819C157.675 12.6476 157.547 13.1091 157.284 13.4941C157.021 13.8791 156.638 14.1657 156.194 14.309Z"
    fill="#F59B3F" />
  <path
    d="M117.627 58.9448L115.788 61.1491C115.679 61.2865 115.603 61.4483 115.569 61.6209C115.534 61.7935 115.542 61.9718 115.59 62.1409L116.394 64.9293C116.443 65.1224 116.439 65.3253 116.382 65.5163C116.325 65.7072 116.217 65.8791 116.07 66.0137C115.923 66.1483 115.743 66.2405 115.548 66.2804C115.353 66.3204 115.151 66.3067 114.963 66.2408L112.254 65.1387C112.091 65.0759 111.914 65.0531 111.74 65.0723C111.566 65.0915 111.399 65.152 111.252 65.2489L108.852 66.88C108.684 66.9855 108.49 67.0433 108.292 67.0475C108.093 67.0516 107.897 67.0019 107.724 66.9036C107.552 66.8054 107.409 66.6622 107.311 66.4892C107.213 66.3162 107.163 66.12 107.168 65.9212L107.333 63.0227C107.342 62.8488 107.31 62.6753 107.239 62.5163C107.168 62.3573 107.061 62.2173 106.926 62.1079L104.636 60.3996C104.482 60.2726 104.365 60.1059 104.298 59.9176C104.231 59.7293 104.217 59.5264 104.257 59.3305C104.296 59.1347 104.388 58.9533 104.523 58.8058C104.657 58.6582 104.83 58.5501 105.021 58.493L107.828 57.7656C107.997 57.7185 108.151 57.6319 108.28 57.5131C108.408 57.3943 108.506 57.2466 108.566 57.0823L109.557 54.3491C109.632 54.1649 109.755 54.0043 109.914 53.8846C110.072 53.7648 110.26 53.6903 110.458 53.6688C110.655 53.6473 110.855 53.6798 111.036 53.7627C111.216 53.8456 111.371 53.9758 111.484 54.1397L113.047 56.5753C113.142 56.7244 113.272 56.8483 113.425 56.9366C113.579 57.0248 113.751 57.0748 113.928 57.0823L116.823 57.1705C117.023 57.1827 117.216 57.2492 117.381 57.3628C117.545 57.4764 117.676 57.6329 117.759 57.8154C117.841 57.9979 117.873 58.1995 117.85 58.3985C117.826 58.5975 117.749 58.7864 117.627 58.9448Z"
    fill="#F1B135" />
  <path opacity="0.3"
    d="M171.795 45.0358L169.372 39.1946C167.897 35.6568 162.216 36.9903 163.438 40.8257C164.171 43.1065 164.509 45.4955 164.44 47.8902L170.165 46.3362C169.251 44.7137 168.456 43.0267 167.787 41.2886C167.537 40.5392 167.009 39.9145 166.312 39.5431C165.615 39.1718 164.803 39.0821 164.042 39.2927C163.281 39.5032 162.63 39.9979 162.223 40.6747C161.816 41.3516 161.683 42.159 161.853 42.9307C162.161 44.5335 162.194 46.177 161.952 47.791L167.082 46.4354C166.312 45.4611 165.685 44.381 165.222 43.2283C165.114 42.8389 164.931 42.4747 164.683 42.1563C164.434 41.8378 164.126 41.5715 163.774 41.3724C163.423 41.1734 163.036 41.0455 162.636 40.9962C162.235 40.9468 161.829 40.9769 161.44 41.0847C161.051 41.1925 160.687 41.376 160.369 41.6246C160.051 41.8732 159.785 42.1821 159.586 42.5336C159.387 42.8851 159.26 43.2725 159.21 43.6734C159.161 44.0744 159.191 44.4811 159.299 44.8704C159.526 46.6007 159.379 48.3595 158.869 50.0283L164.011 48.6617C162.876 47.6144 162.105 46.2323 161.809 44.7161C161.071 41.3216 155.676 42.0711 155.776 45.5317L155.908 50.381L161.633 48.827C160.481 47.0587 159.584 45.1369 158.968 43.1181C157.801 39.3158 152.208 40.9139 153.034 44.7492C153.488 46.9234 153.578 49.1582 153.298 51.3618L159.023 49.8079C157.354 46.5699 156.033 43.1637 155.082 39.6464C154.201 36.3401 148.895 36.9353 149.049 40.462C149.241 44.4817 149.649 48.4881 150.271 52.464L156.205 50.8218C154.998 47.325 154.175 43.7072 153.75 40.0322L147.716 40.8477C148.63 45.8182 149.434 50.7667 148.817 55.8144L154.553 54.2604C153.124 51.3471 152.339 48.1592 152.252 44.9145L146.219 45.7301C146.897 49.7427 146.897 53.8407 146.219 57.8533L150.733 56.0238C148.839 54.8115 148.531 51.979 148.157 49.9622C147.496 46.4134 142.267 47.4494 142.113 50.7777C142.005 53.4088 141.636 56.0227 141.012 58.5807L146.627 57.8533C145.734 56.1118 145.149 54.2288 144.898 52.2876C144.414 48.838 138.766 49.6977 138.865 53.1142C138.935 55.2642 138.641 57.4106 137.995 59.4623L143.621 58.724C142.796 57.2047 142.089 55.624 141.507 53.9959C140.604 51.428 136.112 50.6896 135.584 53.9959C135.22 56.2015 134.712 58.3809 134.065 60.5204L139.679 59.782L136.938 53.6102C135.837 51.1304 131.951 51.946 131.323 54.3375L129.418 61.5674L134.56 60.2118C133.545 59.148 132.731 57.9081 132.16 56.5528C131.136 54.029 126.941 53.2465 126.237 56.5528L125.015 62.2617L130.63 61.5343L128.086 56.4426C126.666 53.5991 122.416 55.098 122.361 57.9966C122.327 59.7539 122.121 61.5036 121.745 63.2205L127.36 62.4821C127.127 61.9731 126.794 61.5158 126.382 61.1373C125.97 60.7588 125.486 60.4665 124.96 60.2779C124.402 60.1183 123.811 60.1183 123.253 60.2779L122.526 60.5865C121.514 61.3249 121.712 61.2478 123.121 60.3661L125.488 60.6747C126.347 61.6666 126.523 61.7768 126.038 61.0053C124.079 57.5557 118.772 60.6526 120.732 64.1022C120.962 64.6112 121.292 65.0687 121.703 65.4474C122.113 65.826 122.595 66.1182 123.121 66.3064C123.68 66.4561 124.268 66.4561 124.827 66.3064L125.565 65.9978C126.578 65.2594 126.38 65.3256 124.96 66.2183L122.592 65.8987C121.734 64.9178 121.558 64.7965 122.053 65.579C123.308 67.7833 127.084 67.4526 127.668 64.8406C128.177 62.5898 128.458 60.293 128.505 57.9855L122.78 59.5395L125.323 64.6202C126.479 66.9457 130.398 66.4166 130.938 63.8928L132.16 58.1839H126.237C127.153 60.5366 128.501 62.6971 130.211 64.5541C130.595 64.927 131.069 65.1943 131.586 65.3301C132.103 65.4659 132.647 65.4656 133.164 65.3293C133.681 65.1929 134.155 64.925 134.538 64.5517C134.922 64.1784 135.202 63.7123 135.353 63.1985L137.246 55.9687L131.631 56.696L134.417 62.8238C135.518 65.3586 139.327 64.4108 140.032 62.0854C140.681 59.9463 141.188 57.7667 141.551 55.5609H135.628C136.377 57.6967 137.289 59.7712 138.358 61.7658C139.646 64.1794 143.225 63.463 143.973 61.0384C144.772 58.4527 145.144 55.7537 145.074 53.0481L139.041 53.8637C139.411 56.3221 140.204 58.6975 141.386 60.8841C141.699 61.3938 142.153 61.802 142.693 62.0598C143.233 62.3175 143.835 62.4137 144.428 62.3369C145.021 62.2601 145.579 62.0135 146.036 61.6267C146.492 61.2399 146.827 60.7295 147.001 60.1567C147.75 57.0586 148.199 53.8958 148.344 50.7116L142.3 51.5272C143.015 55.3845 144.259 59.0546 147.705 61.2698C148.113 61.5036 148.568 61.6414 149.037 61.6728C149.506 61.7041 149.976 61.6283 150.411 61.4509C150.846 61.2735 151.235 60.9992 151.548 60.649C151.861 60.2987 152.091 59.8816 152.219 59.4293C153.103 54.3241 153.103 49.1049 152.219 43.9998C151.647 40.5612 146.076 41.3988 146.186 44.8263C146.317 49.1563 147.388 53.4058 149.324 57.2802C150.81 60.311 154.752 58.4484 155.049 55.7262C155.654 50.1495 154.675 44.6059 153.662 39.1284C153.045 35.756 147.254 36.4834 147.628 39.944C148.062 44.1726 148.955 48.3413 150.293 52.3758C151.592 56.1891 156.821 54.58 156.227 50.7337C155.702 47.3013 155.364 43.8429 155.214 40.3738L149.181 41.2004C150.279 45.2287 151.807 49.1269 153.739 52.8277C155.291 55.8034 159.167 54.029 159.475 51.2737C159.755 48.5285 159.591 45.7561 158.99 43.063L153.078 44.7933C153.842 47.3299 154.954 49.7481 156.381 51.979C157.966 54.4367 162.194 53.5991 162.106 50.425L161.974 45.5758L155.941 46.3914C156.506 48.9208 157.813 51.2236 159.695 53.004C160.078 53.3773 160.55 53.645 161.067 53.7811C161.584 53.9171 162.127 53.9169 162.644 53.7804C163.16 53.6439 163.633 53.3758 164.015 53.0022C164.398 52.6285 164.677 52.1621 164.825 51.6484C165.578 48.9025 165.725 46.0255 165.255 43.2173L159.332 44.8594C160.169 46.998 161.331 48.9943 162.778 50.7777C164.154 52.486 167.567 51.6043 167.908 49.4111C168.359 46.716 168.329 43.9623 167.82 41.2776L161.886 42.9307C162.732 45.1705 163.737 47.3471 164.892 49.4442C166.422 52.1774 170.54 50.8659 170.617 47.8902C170.706 44.944 170.297 42.0039 169.406 39.1946L163.471 40.8257L165.893 46.6669C166.131 47.4413 166.656 48.0953 167.36 48.4949C168.065 48.8945 168.895 49.0093 169.681 48.816C171.123 48.4192 172.466 46.6118 171.828 45.0358H171.795Z"
    fill="#F59B3F" />
  <path
    d="M169.713 45.8957C169.654 45.6545 169.504 45.4454 169.295 45.3115C169.199 45.2418 169.089 45.1947 168.973 45.1737C168.857 45.1527 168.737 45.1584 168.623 45.1903C168.47 45.2468 168.333 45.3416 168.227 45.4658C167.443 46.2837 166.58 47.022 165.651 47.67C164.307 47.7802 163.504 47.3394 163.239 46.3365C163.145 46.069 163.145 45.7774 163.239 45.5099C163.307 45.2568 163.429 45.0214 163.596 44.8197C163.764 44.6181 163.972 44.455 164.208 44.3417C164.357 44.2884 164.519 44.2866 164.669 44.3366C164.819 44.3865 164.947 44.4853 165.034 44.6172C165.122 44.77 165.26 44.8877 165.424 44.95C165.589 45.0123 165.77 45.0154 165.937 44.9589C166.057 44.9381 166.171 44.8916 166.272 44.8227C166.372 44.7537 166.457 44.6639 166.519 44.5593C166.582 44.4547 166.621 44.3378 166.635 44.2165C166.648 44.0953 166.636 43.9726 166.597 43.8567C166.559 43.7301 166.499 43.6109 166.421 43.5041C166.173 43.0768 165.788 42.7457 165.329 42.5638C164.869 42.3819 164.362 42.3598 163.889 42.5012C163.355 42.6805 162.872 42.9836 162.478 43.3859C162.083 43.7881 161.79 44.278 161.621 44.8156C161.319 45.4864 161.25 46.2388 161.423 46.9537C161.57 47.4191 161.814 47.8481 162.139 48.2127C162.463 48.5774 162.861 48.8694 163.306 49.0697L163.427 49.1359C162.167 49.9149 160.822 50.5472 159.419 51.0205H159.309H159.199C158.626 51.1968 158.274 51.1527 158.153 50.8772C156.362 46.1381 154.942 42.2734 153.892 39.283C153.874 39.1636 153.827 39.0502 153.757 38.9521C153.686 38.8539 153.594 38.7738 153.486 38.718C153.379 38.6622 153.261 38.6324 153.14 38.631C153.019 38.6296 152.9 38.6566 152.791 38.7099C152.657 38.7311 152.53 38.7846 152.422 38.8658C152.313 38.947 152.225 39.0535 152.167 39.1761C152.108 39.2987 152.081 39.4337 152.086 39.5694C152.091 39.7051 152.129 39.8376 152.197 39.9553C152.931 42.0713 153.591 43.9082 154.179 45.4658C153.654 46.1963 153.015 46.8365 152.285 47.3614C151.447 47.9686 150.642 48.6197 149.874 49.3122C149.183 50.0404 148.67 50.9195 148.376 51.8801C148.325 51.981 148.288 52.0886 148.266 52.1997C148.262 52.2658 148.262 52.332 148.266 52.3981C148.27 52.4274 148.27 52.457 148.266 52.4863C148.223 52.6524 148.223 52.8271 148.266 52.9932C148.3 53.1098 148.357 53.218 148.435 53.311C148.513 53.404 148.609 53.4797 148.718 53.5333C148.896 53.6294 149.101 53.6643 149.301 53.6324C149.559 53.6792 149.821 53.7013 150.083 53.6986C150.907 53.6544 151.727 53.555 152.538 53.401C152.868 53.401 153.067 53.401 153.111 53.5774C153.126 53.7194 153.107 53.863 153.056 53.9962C152.439 55.7081 150.604 57.545 147.551 59.5067C147.11 59.7933 146.659 60.0688 146.219 60.3333C146.415 58.5809 146.349 56.8088 146.02 55.0762C145.805 54.2363 145.308 53.4959 144.612 52.9785C143.917 52.4611 143.066 52.1979 142.2 52.2328C140.504 52.1471 138.808 52.3866 137.202 52.9381C134.249 53.8069 131.405 55.0086 128.724 56.52C124.489 58.952 122.706 61.4133 123.374 63.9041C124.041 66.3949 126.42 67.4786 130.508 67.1553C133.548 66.9144 136.548 66.3152 139.448 65.3699C141.181 64.8326 142.871 64.162 144.501 63.3641C144.384 65.3626 144.182 67.6917 143.896 70.3514C143.804 70.8654 143.804 71.3915 143.896 71.9054C143.951 72.1148 144.028 72.192 144.138 72.1589C144.248 72.1258 144.589 71.5417 144.776 70.5168C145.349 67.4639 145.756 64.8299 146.009 62.5926C146.736 62.1958 147.463 61.766 148.211 61.3141C151.419 59.2936 153.522 57.2694 154.52 55.2415C154.99 54.4169 155.136 53.4458 154.927 52.5193C154.74 51.814 154.179 51.4172 153.232 51.4172C152.393 51.465 151.559 51.5643 150.733 51.7148H150.501C151.082 50.7852 151.828 49.9708 152.703 49.3122C153.502 48.6936 154.263 48.0274 154.982 47.3174C155.742 49.3783 156.292 50.789 156.623 51.5495C157.162 52.8169 158.208 53.2136 159.771 52.7397H159.86H159.97C161.77 52.1357 163.484 51.2984 165.067 50.249C166.669 49.2866 168.148 48.1318 169.471 46.8104C169.594 46.6967 169.682 46.5503 169.725 46.3883C169.768 46.2263 169.764 46.0554 169.713 45.8957ZM138.148 64.2017C135.234 65.1431 132.211 65.7061 129.154 65.8769C126.005 65.9981 124.243 65.3809 123.891 64.0364C123.429 62.3391 125.186 60.4435 129.165 58.3495C131.628 57.0506 134.208 55.9879 136.871 55.1754C140.93 53.9337 143.202 54.2203 143.686 56.0351C144.035 57.9391 144.135 59.8803 143.984 61.8101C142.121 62.8069 140.167 63.6225 138.148 64.2458V64.2017Z"
    fill="#C16D21" />
  <path
    d="M133.074 66.0754C133.074 66.0754 126.699 65.6456 124.915 64.3011C123.132 62.9565 123.638 61.5898 123.638 61.5898C123.404 62.5259 123.465 63.5117 123.814 64.4112C124.453 65.7338 127.602 67.3098 133.074 66.0754Z"
    fill="#C16D21" />
  <path
    d="M169.713 44.6174C169.654 44.3763 169.504 44.1672 169.295 44.0333C169.2 43.9631 169.089 43.9165 168.972 43.8974C168.856 43.8782 168.736 43.887 168.623 43.9231C168.468 43.9709 168.331 44.0629 168.227 44.1876C167.44 44.9863 166.577 45.7061 165.651 46.3367C164.307 46.4469 163.504 46.0061 163.239 45.0032C163.146 44.7355 163.146 44.4442 163.239 44.1766C163.307 43.9235 163.429 43.688 163.596 43.4864C163.764 43.2847 163.972 43.1217 164.208 43.0083C164.357 42.9551 164.519 42.9533 164.669 43.0032C164.819 43.0532 164.947 43.152 165.034 43.2839C165.122 43.4367 165.26 43.5543 165.424 43.6166C165.589 43.679 165.77 43.6821 165.937 43.6255C166.057 43.6047 166.171 43.5583 166.272 43.4893C166.372 43.4203 166.457 43.3305 166.519 43.2259C166.582 43.1213 166.621 43.0044 166.635 42.8832C166.648 42.762 166.636 42.6392 166.597 42.5234C166.557 42.3977 166.497 42.2788 166.421 42.1707C166.171 41.7455 165.786 41.4166 165.326 41.2368C164.867 41.0569 164.361 41.0365 163.889 41.1788C163.354 41.3549 162.868 41.657 162.474 42.0597C162.079 42.4624 161.787 42.954 161.621 43.4933C161.322 44.1608 161.252 44.9089 161.423 45.6203C161.57 46.0857 161.814 46.5148 162.139 46.8794C162.463 47.244 162.861 47.536 163.306 47.7364L163.427 47.8025C162.167 48.5816 160.822 49.2139 159.419 49.6871H159.309H159.199C158.626 49.8635 158.274 49.8083 158.153 49.5328C156.362 44.8011 154.942 40.9364 153.892 37.9386C153.871 37.8203 153.824 37.7084 153.753 37.6116C153.682 37.5147 153.59 37.4355 153.483 37.3801C153.377 37.3247 153.259 37.2946 153.139 37.292C153.019 37.2895 152.9 37.3147 152.791 37.3655C152.657 37.3867 152.53 37.4402 152.422 37.5215C152.313 37.6027 152.225 37.7092 152.167 37.8317C152.108 37.9543 152.081 38.0893 152.086 38.225C152.091 38.3608 152.129 38.4932 152.197 38.6109C152.945 40.738 153.606 42.5785 154.179 44.1215C153.652 44.8531 153.013 45.4966 152.285 46.0281C151.448 46.6329 150.644 47.2803 149.874 47.9678C149.183 48.6961 148.67 49.5752 148.376 50.5357C148.323 50.6397 148.286 50.7512 148.266 50.8664C148.261 50.9287 148.261 50.9914 148.266 51.0537C148.271 51.0829 148.271 51.1127 148.266 51.1419C148.223 51.308 148.223 51.4827 148.266 51.6489C148.335 51.8613 148.476 52.0425 148.666 52.1597C148.856 52.2769 149.081 52.3224 149.301 52.2881C149.559 52.3348 149.821 52.357 150.083 52.3542C150.906 52.3097 151.726 52.2141 152.538 52.0677C152.868 52.0015 153.067 52.0677 153.111 52.233C153.126 52.3786 153.107 52.5257 153.056 52.6628C152.439 54.3601 150.604 56.1969 147.551 58.1734C147.11 58.4599 146.659 58.7244 146.219 58.9889C146.414 57.2365 146.348 55.4645 146.02 53.7318C145.801 52.894 145.303 52.156 144.609 51.6391C143.914 51.1223 143.065 50.8576 142.2 50.8884C140.504 50.8081 138.809 51.0474 137.202 51.5938C134.251 52.4674 131.408 53.6689 128.724 55.1756C124.489 57.6076 122.706 60.069 123.374 62.5597C124.012 64.9623 126.39 66.0534 130.508 65.811C133.548 65.5755 136.55 64.976 139.448 64.0256C141.185 63.498 142.875 62.8271 144.501 62.0197C144.38 64.0255 144.182 66.34 143.896 69.0181C143.804 69.532 143.804 70.0582 143.896 70.5721C143.951 70.7705 144.028 70.8586 144.138 70.8255C144.248 70.7925 144.589 70.1973 144.776 69.1724C145.349 66.1195 145.756 63.4855 146.009 61.2482C146.736 60.8515 147.463 60.4327 148.211 59.9808C151.419 57.9529 153.522 55.9251 154.52 53.8972C154.99 53.0725 155.136 52.1015 154.927 51.175C154.74 50.4806 154.179 50.128 153.232 50.0729C152.393 50.1269 151.559 50.2299 150.733 50.3814H150.501C151.085 49.4542 151.831 48.6402 152.703 47.9789C153.502 47.3602 154.263 46.6941 154.982 45.984C155.742 48.045 156.292 49.4667 156.623 50.2271C157.162 51.4835 158.208 51.8803 159.771 51.4064H159.86H159.97C161.766 50.7931 163.479 49.9563 165.067 48.9156C166.667 47.9497 168.146 46.7952 169.471 45.4771C169.583 45.3677 169.665 45.2306 169.707 45.0797C169.75 44.9288 169.752 44.7694 169.713 44.6174ZM138.148 62.9344C135.234 63.8727 132.211 64.432 129.154 64.5986C126.005 64.7199 124.243 64.1137 123.891 62.7581C123.429 61.0719 125.19 59.1653 129.165 57.0713C131.628 55.7724 134.208 54.7096 136.871 53.8972C140.93 52.6628 143.202 52.9494 143.686 54.7568C144.035 56.6645 144.135 58.6094 143.984 60.5429C142.115 61.5149 140.162 62.3154 138.148 62.9344Z"
    fill="#F59B3F" />
  <path
    d="M3.96348 104.076C6.15244 104.076 7.92696 102.299 7.92696 100.108C7.92696 97.917 6.15244 96.1406 3.96348 96.1406C1.77451 96.1406 0 97.917 0 100.108C0 102.299 1.77451 104.076 3.96348 104.076Z"
    fill="#CAE9F9" />
  <path
    d="M8.90659 116.42C10.0619 116.42 10.9984 115.482 10.9984 114.326C10.9984 113.169 10.0619 112.232 8.90659 112.232C7.75131 112.232 6.81476 113.169 6.81476 114.326C6.81476 115.482 7.75131 116.42 8.90659 116.42Z"
    fill="#CAE9F9" />
</svg>
  