<svg width="355" height="91" viewBox="0 0 355 91" fill="none" xmlns="http://www.w3.org/2000/svg">
  <g clip-path="url(#clip0_1_737)">
    <path
      d="M186.888 54.585H190.888C190.888 58.3287 190.896 62.0725 190.885 65.8149C191.972 63.9451 193.253 62.1978 194.437 60.3906C196.066 60.3729 197.693 60.3824 199.322 60.3852C197.777 62.1188 196.239 63.8606 194.699 65.5997C196.466 68.1355 198.207 70.6877 199.965 73.2289C198.306 73.2208 196.646 73.2317 194.988 73.2208C193.969 71.4748 192.94 69.7303 191.91 67.9912C191.567 68.4093 191.227 68.8287 190.889 69.2523C190.889 70.5787 190.897 71.9052 190.881 73.2316C189.547 73.2139 188.212 73.2439 186.878 73.2112C186.898 67.0025 186.881 60.7937 186.889 54.585H186.888Z"
      fill="#2BA7DF" />
    <path
      d="M253.436 54.585H256.707C256.765 60.7964 256.585 67.0147 256.814 73.2221C255.838 73.2276 254.862 73.2276 253.889 73.2276C253.84 72.5616 253.797 71.8957 253.774 71.2311C252.38 73.6579 248.834 74.2299 246.618 72.6161C244.68 71.2515 243.94 68.7416 244.074 66.47C244.147 64.3822 245.043 62.2005 246.854 61.0334C248.841 59.7124 251.909 59.8254 253.445 61.7879C253.422 59.3883 253.44 56.9859 253.435 54.5863L253.436 54.585ZM249.613 62.8392C248.388 63.2424 247.679 64.4871 247.473 65.6937C247.216 67.1741 247.372 68.89 248.442 70.0367C249.547 71.2283 251.684 71.1752 252.706 69.9019C253.753 68.6667 253.379 66.9425 253.42 65.4622C253.431 63.5964 251.375 62.1515 249.613 62.8379V62.8392Z"
      fill="#2BA7DF" />
    <path
      d="M202.089 54.954C203.4 54.4202 205.157 55.3285 205.065 56.8443C205.169 58.4922 203.067 59.3855 201.766 58.5752C200.363 57.833 200.539 55.4143 202.089 54.9527V54.954Z"
      fill="#2BA7DF" />
    <path
      d="M164.873 57.611C166.183 57.3046 167.498 57.0118 168.809 56.7122C168.814 57.9324 168.814 59.1553 168.809 60.3769C169.764 60.3824 170.718 60.3797 171.673 60.3824C171.667 61.3697 171.67 62.3598 171.67 63.3485C170.716 63.3458 169.764 63.3458 168.813 63.3485C168.81 64.8875 168.81 66.4264 168.808 67.968C168.82 68.6162 168.818 69.3653 169.299 69.8692C169.934 70.4112 170.826 70.1579 171.578 70.1252C171.57 71.1398 171.573 72.1598 171.575 73.1799C169.938 73.5598 168.061 73.76 166.554 72.8639C165.322 72.1271 164.946 70.6032 164.888 69.2699C164.85 67.2952 164.885 65.3219 164.873 63.3499C164.3 63.3472 163.73 63.3472 163.157 63.3499C163.157 62.3598 163.16 61.3711 163.155 60.3838C163.727 60.381 164.298 60.381 164.873 60.3838V57.6124V57.611Z"
      fill="#2BA7DF" />
    <path
      d="M173.543 61.224C175.793 60.1209 178.474 59.7941 180.907 60.4164C182.826 60.9054 184.077 62.7752 184.184 64.6886C184.305 67.5308 184.077 70.3935 184.4 73.2316C183.198 73.2221 181.994 73.2289 180.791 73.2234C180.719 72.7958 180.649 72.3682 180.585 71.9447C178.964 73.7287 175.894 74.1182 173.997 72.567C172.122 71.0186 172.226 67.7937 174.103 66.2902C175.806 64.9133 178.111 64.6723 180.226 64.6723C180.213 64.009 179.923 63.3159 179.25 63.0884C177.599 62.526 175.782 63.038 174.29 63.8225C174.051 62.955 173.799 62.0861 173.546 61.2227L173.543 61.224ZM176.618 68.9812C176.326 70.5256 178.359 71.1711 179.411 70.3131C180.519 69.6581 180.351 68.2608 180.346 67.1699C178.981 67.2054 176.887 67.2857 176.618 68.9826V68.9812Z"
      fill="#2BA7DF" />
    <path
      d="M207.812 61.2364C209.958 60.1932 212.518 59.8064 214.821 60.5296C216.594 61.0893 217.637 62.906 217.728 64.686C217.855 67.5309 217.609 70.3936 217.939 73.2303C216.961 73.2222 215.98 73.2249 215.001 73.2249C214.932 72.751 214.864 72.2811 214.798 71.8126C213.233 73.6471 210.173 74.1564 208.23 72.6352C206.357 71.1344 206.461 67.9449 208.326 66.4823C210.062 65.0904 212.393 64.9352 214.527 64.8521C214.512 64.0296 214.22 63.1157 213.402 62.7685C211.77 62.1025 209.917 62.6295 208.421 63.4058C208.205 62.684 207.982 61.965 207.811 61.2336L207.812 61.2364ZM210.925 67.7665C209.863 68.4624 209.805 70.3078 210.945 70.9533C212.053 71.4994 213.517 71.0473 214.188 70.0245C214.806 69.1338 214.526 67.9939 214.587 66.9875C213.341 67.0175 211.987 67.0325 210.925 67.7665Z"
      fill="#2BA7DF" />
    <path
      d="M222.716 61.333C224.897 59.9412 227.761 59.8595 230.144 60.7638C229.941 61.5659 229.745 62.3735 229.557 63.1811C228.099 62.6295 226.332 62.4239 224.947 63.2791C222.66 64.735 222.573 68.5536 224.706 70.1811C226.132 71.242 228.084 71.0213 229.66 70.4371C229.81 71.242 229.963 72.0441 230.11 72.8517C227.403 73.8213 223.978 73.8622 221.746 71.8167C218.863 69.0194 219.289 63.5243 222.718 61.333H222.716Z"
      fill="#2BA7DF" />
    <path
      d="M231.994 61.2949C233.672 60.3538 235.656 60.0501 237.559 60.2122C238.763 60.3239 239.992 60.776 240.796 61.7103C241.569 62.6064 241.902 63.8007 241.958 64.9651C242.019 67.7188 241.846 70.4848 242.152 73.2289C241.168 73.2235 240.188 73.2262 239.208 73.2235C239.142 72.7523 239.076 72.2797 239.018 71.8167C237.462 73.6062 234.5 74.1455 232.542 72.7155C230.529 71.227 230.647 67.8455 232.646 66.3978C234.385 65.0768 236.667 64.9392 238.771 64.8507C238.716 63.9846 238.387 63.0177 237.488 62.7126C235.877 62.1488 234.092 62.6418 232.634 63.4058C232.431 62.699 232.215 61.9935 231.994 61.2949ZM235.11 67.7924C234.028 68.5142 234.04 70.4752 235.29 71.0118C236.599 71.5634 238.275 70.7762 238.693 69.428C238.876 68.6258 238.766 67.7924 238.785 66.9807C237.538 67.0284 236.167 67.0284 235.11 67.7937V67.7924Z"
      fill="#2BA7DF" />
    <path
      d="M260.264 62.5246C262.051 59.9929 266.015 59.3664 268.506 61.2009C270.447 62.7275 270.905 65.4322 270.6 67.7542C267.731 67.7487 264.862 67.7596 261.993 67.7487C262.031 69.0071 262.786 70.2273 264 70.6672C265.767 71.3223 267.751 71.0118 269.502 70.4548C269.659 71.2038 269.817 71.9487 269.99 72.6978C268.059 73.4413 265.924 73.6592 263.881 73.3555C261.889 73.0437 260.052 71.705 259.355 69.7915C258.481 67.4219 258.771 64.5906 260.266 62.5246H260.264ZM263.001 63.226C262.396 63.8252 262.157 64.6641 261.982 65.4717C263.865 65.4744 265.751 65.4744 267.634 65.4717C267.555 64.7022 267.44 63.8878 266.928 63.2723C265.988 62.0902 263.995 62.131 263.001 63.2273V63.226Z"
      fill="#2BA7DF" />
    <path
      d="M275.616 62.368C276.727 60.4982 279.22 59.6211 281.238 60.4846C282.135 60.8509 282.791 61.6231 283.192 62.4865C284.023 61.2744 285.33 60.2925 286.839 60.1877C288.126 60.0351 289.512 60.4532 290.367 61.4556C291.447 62.6785 291.677 64.389 291.655 65.9606C291.647 68.3807 291.652 70.8021 291.649 73.2248C290.59 73.2221 289.532 73.2248 288.476 73.2248C288.465 70.7272 288.494 68.2254 288.464 65.7305C288.429 64.6274 288.057 63.2328 286.85 62.9005C285.401 62.4266 283.897 63.7258 283.839 65.168C283.755 67.8509 283.834 70.542 283.801 73.2276C282.743 73.2221 281.684 73.2248 280.629 73.2248C280.624 70.7135 280.634 68.205 280.626 65.6978C280.616 64.7036 280.342 63.5338 279.389 63.0272C278.423 62.5206 277.185 62.9386 276.58 63.8021C276.121 64.4122 275.924 65.1844 275.956 65.9402C275.961 68.3671 275.961 70.7953 275.958 73.2248C274.899 73.2248 273.841 73.2221 272.785 73.2248C272.736 68.9622 272.886 64.6982 272.689 60.4383C273.621 60.4383 274.557 60.4383 275.492 60.441C275.535 61.0811 275.581 61.7239 275.619 62.3667L275.616 62.368Z"
      fill="#2BA7DF" />
    <path
      d="M108.482 60.5023C109.138 60.5051 109.791 60.5051 110.446 60.5023C111.516 64.0132 112.71 67.4887 113.589 71.0541C114.255 67.4697 115.447 64.0146 116.395 60.5023C117.17 60.5023 117.945 60.5023 118.72 60.5146C117.35 64.7459 115.973 68.9759 114.626 73.2154C113.906 73.2249 113.19 73.2249 112.473 73.2276C111.421 69.8638 110.209 66.5409 109.399 63.1062C108.545 66.549 107.297 69.8747 106.162 73.2304C105.45 73.2222 104.739 73.2222 104.027 73.2222C102.749 68.9827 101.465 64.7432 100.183 60.5064C100.989 60.501 101.791 60.5037 102.597 60.5037C103.482 64.0296 104.491 67.5228 105.266 71.0732C106.11 67.4846 107.401 64.0214 108.483 60.501L108.482 60.5023Z"
      fill="#2BA7DF" />
    <path
      d="M119.379 60.4995C120.18 60.505 120.981 60.505 121.783 60.5077C122.657 64.0131 123.699 67.4832 124.42 71.0267C125.358 67.4777 126.57 64.0104 127.663 60.5077C128.323 60.5022 128.984 60.5022 129.645 60.505C130.689 64.0308 131.939 67.4981 132.762 71.0853C133.448 67.4968 134.631 64.0281 135.58 60.5077C136.358 60.505 137.136 60.505 137.914 60.505C136.536 64.7417 135.174 68.9839 133.801 73.2262C133.084 73.2262 132.37 73.2262 131.655 73.2234C130.617 69.8338 129.367 66.504 128.585 63.0435C127.778 66.5162 126.474 69.8419 125.363 73.2262C124.649 73.2234 123.935 73.2234 123.223 73.2262C121.937 68.9867 120.652 64.7445 119.379 60.4995Z"
      fill="#2BA7DF" />
    <path
      d="M146.867 60.4995C147.52 60.505 148.174 60.505 148.826 60.5022C149.896 64.0104 151.093 67.4886 151.969 71.0513C152.635 67.4695 153.827 64.0145 154.772 60.5022C155.55 60.505 156.325 60.505 157.1 60.5077C155.726 64.7472 154.368 68.9921 152.984 73.2289C152.275 73.2207 151.569 73.2234 150.859 73.2371C149.789 69.8283 148.556 66.4645 147.753 62.9781C147.027 66.4917 145.647 69.8201 144.554 73.2289C143.837 73.2262 143.119 73.2262 142.402 73.2194C141.132 68.9799 139.842 64.7458 138.564 60.5063C139.368 60.5036 140.17 60.5063 140.973 60.509C141.85 64.0349 142.902 67.5199 143.622 71.084C144.516 67.5022 145.759 64.0199 146.867 60.5009V60.4995Z"
      fill="#2BA7DF" />
    <path
      d="M200.926 60.3838C202.262 60.3838 203.599 60.3756 204.937 60.3919C204.922 64.6696 204.934 68.9472 204.931 73.2275C203.597 73.2275 202.265 73.2248 200.934 73.2302C200.919 68.9472 200.931 64.6682 200.926 60.3851V60.3838Z"
      fill="#2BA7DF" />
    <path
      d="M292.648 60.4383C293.842 60.4383 295.039 60.441 296.239 60.4355C297.254 63.5542 298.425 66.6212 299.287 69.7875C300.158 66.6647 301.083 63.5556 301.991 60.4451C303.162 60.4328 304.334 60.4369 305.508 60.4369C303.813 64.8412 302.395 69.3585 300.438 73.6566C299.315 76.1801 297.286 78.5865 294.41 79.0605C294.153 78.1412 293.91 77.2206 293.661 76.2986C295.379 75.7879 296.955 74.5363 297.534 72.8108C296.004 68.6544 294.256 64.5675 292.649 60.4369L292.648 60.4383Z"
      fill="#2BA7DF" />
    <path
      d="M312.777 61.9267C314.92 60.0215 318.177 59.8485 320.762 60.8917C320.583 61.4937 320.406 62.1011 320.226 62.7071C318.648 61.988 316.689 61.8409 315.148 62.7343C312.3 64.4939 312.305 69.4211 315.255 71.0839C316.816 71.9419 318.729 71.6763 320.31 71.0049C320.437 71.5946 320.573 72.1898 320.707 72.7822C318.216 73.7695 315.07 73.8907 312.883 72.1448C309.909 69.6621 309.939 64.5061 312.778 61.9267H312.777Z"
      fill="#2BA7DF" />
    <path
      d="M326.101 60.5295C328.123 59.9371 330.511 60.1877 332.146 61.5931C333.564 62.7725 334.246 64.6355 334.292 66.44C334.365 68.2567 333.91 70.1865 332.647 71.5525C330.319 74.1346 325.697 74.2299 323.397 71.562C321.774 69.7112 321.502 67.0038 322.119 64.6982C322.627 62.7548 324.157 61.0988 326.101 60.5295ZM327.136 62.1065C325.647 62.4715 324.681 63.8783 324.376 65.3056C323.914 67.298 324.284 69.7098 325.964 71.0486C327.278 72.1135 329.357 71.9542 330.503 70.7149C332.282 68.8165 332.345 65.6801 330.98 63.5365C330.197 62.2686 328.556 61.6993 327.136 62.1065Z"
      fill="#2BA7DF" />
    <path
      d="M336.647 60.4968C337.318 60.505 337.991 60.505 338.665 60.5023C338.706 61.2009 338.746 61.9023 338.772 62.605C339.75 60.7501 342.032 59.7723 344.05 60.4124C345.184 60.742 345.982 61.7007 346.459 62.7357C347.257 61.3357 348.718 60.2245 350.387 60.2422C351.576 60.1441 352.817 60.584 353.603 61.4978C354.619 62.6418 354.889 64.2311 354.896 65.7114C354.896 68.2145 354.893 70.7204 354.896 73.2235C354.132 73.2208 353.369 73.2208 352.608 73.2235C352.6 70.7176 352.617 68.2118 352.603 65.7087C352.557 64.5974 352.328 63.3499 351.403 62.6227C350.425 61.8805 348.933 62.0235 348.057 62.861C347.319 63.4984 346.931 64.4735 346.957 65.4404C346.952 68.0348 346.957 70.6291 346.954 73.2235H344.667C344.655 70.5501 344.687 67.8782 344.652 65.2103C344.626 63.9219 343.938 62.4007 342.526 62.1883C340.645 61.8192 339.034 63.6618 339.021 65.4336C339.009 68.0225 339.003 70.6128 339.026 73.2044C338.259 73.2303 337.491 73.2276 336.727 73.2248C336.691 68.9826 336.805 64.735 336.648 60.4955L336.647 60.4968Z"
      fill="#2BA7DF" />
    <path
      d="M159.58 69.4797C160.927 68.8995 162.545 70.0748 162.336 71.5402C162.389 72.8966 160.911 73.9044 159.647 73.4209C157.898 72.9102 157.851 70.0571 159.578 69.4797H159.58Z"
      fill="#2BA7DF" />
    <path
      d="M306.249 69.6267C307.492 68.8369 309.362 69.7561 309.317 71.2719C309.531 72.695 308.049 73.9275 306.685 73.4386C305.03 73.0001 304.794 70.4411 306.25 69.6267H306.249Z"
      fill="#2BA7DF" />
    <path
      d="M144.037 13.1175C146.268 13.1175 148.5 13.1257 150.733 13.1121C150.744 19.3467 150.736 25.5827 150.736 31.82C152.485 28.6687 154.672 25.7965 156.633 22.7786C159.327 22.7732 162.021 22.7813 164.714 22.7759C162.161 25.6617 159.596 28.5393 157.042 31.4251C159.983 35.6414 162.869 39.8946 165.817 44.1027C163.07 44.1708 160.322 44.1123 157.574 44.1327C155.856 41.2169 154.138 38.3012 152.417 35.3854C151.85 36.0663 151.289 36.7527 150.734 37.4432C150.737 39.6726 150.737 41.9033 150.734 44.1327C148.501 44.1327 146.266 44.13 144.036 44.1354C144.033 33.7961 144.03 23.4568 144.036 13.1161L144.037 13.1175Z"
      fill="#2BA7DF" />
    <path
      d="M268.305 13.1175C270.115 13.1175 271.923 13.1202 273.736 13.1175C273.733 21.8702 273.736 30.6256 273.736 39.3797C273.751 40.9636 273.814 42.5488 273.898 44.1326H269.047C268.964 43.0159 268.935 41.8951 268.793 40.7838C266.696 44.5548 261.398 45.6361 257.728 43.6015C254.96 42.1211 253.294 39.1414 252.829 36.1194C252.334 32.8359 252.737 29.2733 254.613 26.461C256.114 24.1649 258.687 22.5702 261.449 22.3904C263.991 22.163 266.844 22.9624 268.31 25.1822C268.295 21.1606 268.305 17.139 268.305 13.1161V13.1175ZM262.32 26.6585C261.06 26.9499 259.964 27.7902 259.301 28.8906C258.219 30.6597 257.985 32.8291 258.211 34.8569C258.417 36.5988 259.159 38.4005 260.655 39.4233C262.49 40.6857 265.217 40.5046 266.787 38.8922C268.01 37.7182 268.39 35.9505 268.305 34.3163C268.226 32.5009 268.608 30.5194 267.605 28.8852C266.614 27.048 264.325 26.141 262.319 26.6599L262.32 26.6585Z"
      fill="#2BA7DF" />
    <path
      d="M169.295 13.7194C170.972 13.0712 173.239 13.5982 174.014 15.3373C174.822 16.9389 174.136 19.1369 172.426 19.8247C170.988 20.4675 169.092 20.2428 168.03 19.0225C166.609 17.4155 167.179 14.433 169.296 13.7194H169.295Z"
      fill="#2BA7DF" />
    <path
      d="M99.3402 14.6714C106.911 14.6809 114.481 14.6687 122.055 14.6768C122.052 16.5399 122.055 18.4002 122.052 20.2632C119.36 20.2714 116.67 20.2537 113.978 20.2727C113.988 28.2261 113.98 36.178 113.983 44.134H107.249C107.252 36.1794 107.247 28.2233 107.252 20.2687C104.614 20.2564 101.977 20.2714 99.3389 20.2632C99.3416 18.3975 99.3389 16.5344 99.3416 14.6714H99.3402Z"
      fill="#2BA7DF" />
    <path
      d="M194.636 14.6714C196.95 14.6864 199.263 14.6591 201.579 14.6864C204.749 24.5095 207.973 34.315 211.164 44.1313C209.221 44.1368 207.279 44.134 205.334 44.134C204.447 41.3477 203.556 38.5626 202.664 35.779C199.549 35.7762 196.431 35.7762 193.314 35.779C192.466 38.5626 191.619 41.3477 190.77 44.134C188.902 44.134 187.031 44.1368 185.164 44.1313C188.32 34.3109 191.481 24.4932 194.636 14.6714ZM197.858 19.0607C196.912 23.3478 195.515 27.5097 194.202 31.6961C196.71 31.6988 199.22 31.6906 201.732 31.6988C200.563 27.8897 199.186 24.1364 198.264 20.2537C198.162 19.8438 198.064 19.4311 197.859 19.062L197.858 19.0607Z"
      fill="#2BA7DF" />
    <path
      d="M121.803 24.1636C124.641 22.7078 127.897 22.1917 131.066 22.321C133.519 22.4354 136.133 23.209 137.721 25.1891C139.399 27.2374 139.68 30.0061 139.59 32.5541C139.663 36.4041 139.373 40.2841 139.907 44.1136C137.897 44.1586 135.89 44.1191 133.88 44.1368C133.74 43.4 133.605 42.6633 133.469 41.9292C130.796 45.0806 125.39 45.6063 122.302 42.7872C119.37 40.0948 119.7 34.8516 122.851 32.4601C125.677 30.2675 129.431 29.8808 132.895 29.8535C132.99 28.6156 132.193 27.4267 130.974 27.1203C128.282 26.4039 125.427 27.2006 123.015 28.4386C122.657 27.0004 122.214 25.5854 121.806 24.1636H121.803ZM127.912 35.2016C126.581 36.1889 126.489 38.5395 127.914 39.4792C129.493 40.4339 131.711 39.7066 132.626 38.165C133.381 36.9243 132.969 35.4004 133.078 34.0345C131.314 34.0345 129.382 34.1175 127.912 35.2016Z"
      fill="#2BA7DF" />
    <path
      d="M217.88 23.8136C221.403 21.9887 225.723 21.9356 229.403 23.3274C229.111 24.6893 228.763 26.0361 228.445 27.3898C226.32 26.4965 223.82 26.205 221.642 27.0807C219.78 27.8229 218.455 29.5784 218.044 31.5095C217.61 33.5591 217.818 35.8402 218.995 37.6216C219.91 39.0107 221.442 39.9395 223.082 40.2009C224.952 40.4897 226.879 40.1751 228.626 39.4791C228.867 40.8179 229.121 42.1566 229.373 43.4967C226.747 44.5167 223.846 44.7877 221.063 44.405C218.431 44.0128 215.884 42.6782 214.313 40.4992C212.387 37.8721 211.957 34.4062 212.512 31.2657C213.064 28.1443 215.04 25.2803 217.882 23.8122L217.88 23.8136Z"
      fill="#2BA7DF" />
    <path
      d="M232.561 24.2113C235.54 22.5757 239.08 22.0772 242.432 22.513C244.777 22.814 247.051 24.1582 248.101 26.3249C249.417 28.8661 249.115 31.805 249.145 34.5642C249.191 37.7564 248.99 40.965 249.446 44.1368C247.814 44.1313 246.183 44.1368 244.551 44.1313C244.435 43.3183 244.312 42.5093 244.19 41.699C241.631 44.8749 236.341 45.6702 233.154 43.0023C230.14 40.4461 230.421 35.207 233.527 32.8401C236.404 30.6257 240.219 30.2484 243.733 30.2512C243.725 29.3278 243.614 28.3473 243.022 27.5982C242.287 26.6109 241.009 26.2473 239.829 26.1887C237.661 26.0975 235.491 26.6776 233.619 27.7535C233.269 26.5714 232.91 25.3947 232.561 24.2126V24.2113ZM238.546 34.5587C237.58 34.9891 236.726 35.7967 236.503 36.8548C236.193 38.1309 236.569 39.727 237.825 40.363C239.875 41.3831 242.608 40.2827 243.519 38.2222C244.109 36.8072 243.753 35.2247 243.824 33.7375C242.042 33.7375 240.192 33.8138 238.546 34.5601V34.5587Z"
      fill="#2BA7DF" />
    <path
      d="M281.771 24.1664C284.127 22.4572 287.232 22.0283 290.051 22.5839C292.061 22.9911 293.9 24.1841 295.042 25.8864C296.847 28.5339 297.231 31.9032 296.806 35.0164C292.034 35.0164 287.261 35.0137 282.489 35.0191C282.53 37.2117 283.947 39.294 286.064 39.9845C288.962 40.946 292.155 40.4625 295.001 39.5391C295.261 40.7716 295.514 42.0096 295.797 43.2421C292.983 44.3765 289.883 44.7074 286.872 44.5032C284.081 44.2798 281.261 43.1032 279.512 40.8615C277.554 38.3965 277.054 35.0804 277.418 32.0285C277.779 28.9942 279.228 25.9695 281.771 24.1664ZM284.478 27.1285C283.294 28.1607 282.707 29.7024 282.496 31.2236C285.611 31.2331 288.728 31.2086 291.843 31.2331C291.889 29.5648 291.322 27.7372 289.899 26.743C288.276 25.6781 285.934 25.8374 284.479 27.1271L284.478 27.1285Z"
      fill="#2BA7DF" />
    <path
      d="M308.739 22.9556C311.016 22.0337 313.858 22.0922 315.852 23.6366C316.757 24.3052 317.39 25.2586 317.854 26.2691C318.941 24.6266 320.535 23.2798 322.431 22.6778C324.789 21.9996 327.588 22.336 329.41 24.0819C331.285 25.8591 331.892 28.5461 331.956 31.037C331.968 35.4031 331.961 39.7693 331.958 44.1327H326.657C326.652 40.0961 326.657 36.0582 326.657 32.0243C326.626 30.5535 326.4 28.9615 325.407 27.8107C324.421 26.664 322.637 26.4693 321.315 27.1039C319.748 27.8529 318.845 29.5838 318.878 31.2848C318.863 35.5679 318.88 39.8496 318.87 44.1327C317.103 44.13 315.335 44.1327 313.568 44.1327C313.566 39.9313 313.566 35.73 313.568 31.5272C313.54 30.115 313.236 28.5733 312.168 27.5615C310.956 26.4556 308.956 26.5115 307.696 27.5084C306.476 28.4521 305.793 29.9965 305.788 31.5231C305.782 35.7245 305.785 39.9286 305.788 44.13C304.017 44.1354 302.251 44.13 300.481 44.1327C300.476 40.0171 300.481 35.9016 300.478 31.786C300.47 28.7994 300.537 25.8101 300.319 22.8303C301.88 22.8303 303.44 22.8276 305.001 22.8303C305.074 23.894 305.148 24.9562 305.22 26.0226C306.137 24.7519 307.253 23.5521 308.739 22.9543V22.9556Z"
      fill="#2BA7DF" />
    <path
      d="M167.424 22.7719C169.654 22.7868 171.889 22.7746 174.12 22.78C174.112 29.8971 174.12 37.017 174.114 44.1355C171.881 44.1355 169.646 44.1327 167.416 44.1355C167.418 37.0156 167.401 29.8931 167.424 22.7732V22.7719Z"
      fill="#2BA7DF" />
    <path
      d="M333.607 22.8317C335.592 22.829 337.579 22.8344 339.564 22.829C341.272 28.0408 343.214 33.1805 344.667 38.4714C346.07 33.2323 347.663 28.0463 349.164 22.8344C351.108 22.8263 353.052 22.8317 354.999 22.8317C353.047 28.0994 351.123 33.3739 349.164 38.6389C347.904 41.9019 346.62 45.1977 344.702 48.1461C342.847 50.9788 339.935 53.294 336.511 53.8128C336.104 52.2889 335.69 50.7704 335.282 49.2492C338.058 48.4893 340.479 46.4873 341.627 43.8453C341.891 43.2461 341.503 42.6428 341.304 42.0912C338.724 35.6755 336.173 29.2515 333.606 22.8317H333.607Z"
      fill="#2BA7DF" />
    <path
      d="M4.12757 10.1949C27.7144 6.80798 51.3026 3.42918 74.8895 0.0422193C76.1867 -0.138909 77.5462 0.280546 78.5377 1.13716C79.5346 1.98424 80.1609 3.26167 80.2042 4.57588C80.192 9.50312 80.2029 14.4304 80.1988 19.3562C67.6337 29.2529 56.7526 41.3109 48.1793 54.8547C46.9145 53.6671 45.6633 52.4632 44.4945 51.1804C46.5168 49.6387 48.0629 47.4652 48.8056 45.0193C49.2628 43.6152 49.3237 42.094 49.0179 40.6518C48.6703 38.9767 47.9142 37.4282 47.1309 35.9234C46.2909 34.3586 45.5767 32.6767 44.2957 31.4115C43.2758 30.3547 41.8879 29.5825 40.3986 29.5702C38.8349 29.5485 37.1927 30.1341 36.185 31.3774C35.345 32.4002 35.0298 33.7634 35.0406 35.0667C35.0474 36.3973 35.3855 37.7033 35.8887 38.9263C36.9979 41.7794 38.3763 44.5249 39.9657 47.137C35.886 49.4521 31.2179 50.3837 26.6282 51.0183C17.787 52.2426 8.73618 51.8259 0.0180962 49.9329C0.0153908 38.2086 0.0221542 26.4829 0.0140381 14.7599C0.0911414 12.5115 1.91051 10.485 4.12757 10.1949ZM39.6424 21.1593C39.0256 21.8593 38.4764 22.6165 38.0287 23.4364C37.8731 23.8014 37.3862 23.9376 37.071 23.6938C36.3189 23.2294 35.579 22.7459 34.8296 22.2774C33.8124 23.5916 32.9223 25.0134 32.1648 26.4951C33.3714 27.2646 34.5766 28.0368 35.7859 28.8021C36.4298 28.0627 36.9885 27.2537 37.4741 26.4012C37.6229 26.1043 38.0327 25.9504 38.3195 26.1465C39.1027 26.6014 39.8913 27.0494 40.6813 27.4948C41.1047 27.0726 41.4104 26.5537 41.7378 26.0566C42.3086 25.1537 42.8605 24.2385 43.3569 23.292C42.1314 22.5593 40.8923 21.8457 39.6424 21.1593Z"
      fill="#2BA7DF" />
    <path
      d="M86.3057 5.91732C87.6651 5.38619 89.2884 6.51246 89.2478 7.986C89.2234 30.2702 89.1829 52.5545 89.1612 74.8374C89.2221 75.709 89.0868 76.6691 88.4199 77.2942C87.5948 78.159 86.1312 78.1195 85.2871 77.301C86.4261 76.9728 87.3391 75.9105 87.3486 74.6957C87.3527 52.4551 87.3513 30.213 87.3486 7.97238C87.3797 7.15526 86.9401 6.39806 86.3043 5.91732H86.3057Z"
      fill="#2BA7DF" />
    <path
      d="M50.7895 60.2559C58.773 47.7035 68.7329 36.4286 80.1983 26.9963C80.2051 42.6251 80.1821 58.2553 80.2159 73.8827C80.2741 75.6627 79.6045 77.4644 78.3546 78.7323C77.6552 79.4473 76.7205 79.9798 75.7087 80.0315C65.5365 80.0424 55.3629 80.0234 45.1907 80.0411C41.441 83.6991 37.6833 87.3502 33.9228 91C32.2468 87.3448 30.5776 83.6868 28.8975 80.0343C21.0966 80.0356 13.2956 80.0343 5.49464 80.0343C4.94815 80.0234 4.39625 80.0792 3.85923 79.9621C2.39968 79.672 1.10651 78.6574 0.476156 77.2996C0.0798182 76.4961 -0.0432766 75.5851 0.0135364 74.6958C0.0230053 68.2473 0.0135364 61.7975 0.0175945 55.3477C9.66092 57.6574 19.7479 58.164 29.5522 56.6537C34.3732 55.9646 39.1225 54.4666 43.328 51.9716C45.633 54.8928 48.2613 57.5321 50.7895 60.2559Z"
      fill="#2BA7DF" />
    <path
      d="M39.8895 36.3292C41.2665 35.4385 43.0683 35.3051 44.5942 35.8703C45.119 36.0514 45.6587 36.3224 45.9387 36.8317C46.3148 37.4541 46.1728 38.214 46.0537 38.8909C45.3909 41.8761 43.4444 44.5263 40.8377 46.0883C40.1398 45.135 39.4594 44.1681 38.8087 43.1821C38.1405 42.1634 37.9876 40.8915 38.0688 39.6971C38.1594 38.3843 38.7708 37.0605 39.8895 36.3292Z"
      fill="#2BA7DF" />
  </g>
  <defs>
    <clipPath id="clip0_1_737">
      <rect width="355" height="91" fill="white" />
    </clipPath>
  </defs>
</svg>
  