<svg width="54" height="48" viewBox="0 0 54 48" fill="none" xmlns="http://www.w3.org/2000/svg">
  <g clip-path="url(#clip0_1_463)">
    <path
      d="M14.4202 47.3298C10.7267 47.3298 7.52917 44.8274 6.64273 41.2479L1.04974 18.6412C0.543202 16.5717 0.870339 14.4177 1.97839 12.5804C3.08643 10.7432 4.8382 9.45498 6.90655 8.93759L37.2037 1.44076C37.8263 1.28238 38.47 1.20847 39.1138 1.20847C42.8072 1.20847 46.0047 3.71093 46.8912 7.2904L52.4842 29.897C52.9907 31.9666 52.6636 34.1206 51.5555 35.9579C50.4475 37.7951 48.6957 39.0833 46.6274 39.6007L16.3302 47.0975C15.7076 47.2559 15.0639 47.3298 14.4202 47.3298Z"
      fill="url(#paint0_radial_1_463)" />
    <path
      d="M39.1138 1.7364C42.4696 1.7364 45.5405 4.02769 46.3847 7.4171L51.9777 30.0237C52.9697 34.015 50.5109 38.0908 46.5113 39.0833L16.2142 46.5801C15.6127 46.728 15.0217 46.8019 14.4308 46.8019C11.075 46.8019 8.0041 44.5106 7.15987 41.1212L1.56688 18.5145C0.574915 14.5233 3.03372 10.4475 7.03324 9.45497L37.3304 1.95814C37.9319 1.81032 38.5229 1.7364 39.1138 1.7364ZM39.1138 0.680511C38.4279 0.680511 37.7419 0.764983 37.0771 0.933925L6.77997 8.43076C4.57443 8.97982 2.70658 10.3525 1.53522 12.3164C0.342753 14.2698 -0.00549036 16.5611 0.543256 18.7679L6.13625 41.3746C7.086 45.1969 10.4946 47.8578 14.4308 47.8578C15.1167 47.8578 15.8026 47.7733 16.4675 47.6043L46.7646 40.1075C48.9701 39.5584 50.838 38.1858 52.0093 36.2218C53.1913 34.2684 53.5395 31.9666 52.9908 29.7703L47.3978 7.16369C46.448 3.34136 43.0395 0.680511 39.1033 0.680511L39.1138 0.680511Z"
      fill="#38A5BE" />
    <path
      d="M37.3226 1.95315L7.03167 9.45372C3.02051 10.447 0.573528 14.5057 1.56619 18.5192L6.28144 37.5837C7.27411 41.5971 11.3305 44.0455 15.3417 43.0523L45.6326 35.5517C49.6437 34.5585 52.0907 30.4997 51.0981 26.4863L46.3828 7.42179C45.3901 3.40831 41.3337 0.959915 37.3226 1.95315Z"
      fill="#D4EEF7" />
    <path
      d="M11.7081 40.3292C11.3704 40.3292 11.0644 40.1075 10.9799 39.759C10.8744 39.3578 11.1171 38.9566 11.5181 38.851L48.8751 29.4852C49.2761 29.3902 49.6771 29.6225 49.7827 30.0237C49.8882 30.425 49.6455 30.8262 49.2445 30.9318L11.8875 40.2976C11.8242 40.3081 11.7608 40.3187 11.7081 40.3187V40.3292Z"
      fill="url(#paint1_radial_1_463)" />
    <path
      d="M35.0087 16.3288L34.5549 14.6922L33.162 15.3996L18.3458 13.7947C17.4172 13.6997 16.689 14.5549 16.9317 15.4524L20.1187 27.2151C20.372 28.1337 21.4906 28.5033 22.2292 27.8908L34.6288 17.8176C35.0509 17.4692 35.1776 16.9729 35.0826 16.5189L35.0298 16.3077L35.0087 16.3288Z"
      fill="url(#paint2_radial_1_463)" />
    <path
      d="M33.4574 13.8475L17.8709 12.1581C16.9423 12.063 16.2141 12.9183 16.4569 13.8158L19.6438 25.5784C19.8971 26.4971 21.0157 26.8666 21.7544 26.2542L34.1539 16.181C35.0615 15.4419 34.6288 13.9636 33.4574 13.8369V13.8475Z"
      fill="#80D1EC" />
    <path
      d="M24.6986 35.5566L11.5181 38.8616C11.1171 38.9566 10.8744 39.3684 10.9799 39.7696C11.0644 40.1075 11.3704 40.3398 11.7081 40.3398C11.7714 40.3398 11.8242 40.3398 11.8875 40.3187L25.2473 36.9715C25.0257 36.5175 24.8463 36.0529 24.6986 35.5672V35.5566Z"
      fill="url(#paint3_linear_1_463)" />
    <path
      d="M24.8885 38.3442C26.0658 38.3442 27.0202 37.3892 27.0202 36.2113C27.0202 35.0333 26.0658 34.0784 24.8885 34.0784C23.7113 34.0784 22.7569 35.0333 22.7569 36.2113C22.7569 37.3892 23.7113 38.3442 24.8885 38.3442Z"
      fill="#FEBF29" />
  </g>
  <defs>
    <radialGradient id="paint0_radial_1_463" cx="0" cy="0" r="1" gradientUnits="userSpaceOnUse"
      gradientTransform="translate(-38.3141 -24.2557) rotate(33.4152) scale(19.6984 13.9362)">
      <stop stop-color="#E7F5F9" />
      <stop offset="1" stop-color="#70CFEE" />
    </radialGradient>
    <radialGradient id="paint1_radial_1_463" cx="0" cy="0" r="1" gradientUnits="userSpaceOnUse"
      gradientTransform="translate(39.1771 46.3373) scale(31.8379 31.8562)">
      <stop stop-color="#97D7E0" />
      <stop offset="0.99" stop-color="#008CB4" />
    </radialGradient>
    <radialGradient id="paint2_radial_1_463" cx="0" cy="0" r="1" gradientUnits="userSpaceOnUse"
      gradientTransform="translate(32.2439 34.5535) scale(7.1126 7.11671)">
      <stop stop-color="#97D7E0" />
      <stop offset="0.99" stop-color="#008CB4" />
    </radialGradient>
    <linearGradient id="paint3_linear_1_463" x1="10.9588" y1="37.9429" x2="25.2473" y2="37.9429"
      gradientUnits="userSpaceOnUse">
      <stop stop-color="#FFDD00" />
      <stop offset="0.62" stop-color="#FFDB00" />
      <stop offset="0.85" stop-color="#FFD403" />
      <stop offset="1" stop-color="#FFC907" />
    </linearGradient>
    <clipPath id="clip0_1_463">
      <rect width="52.954" height="47.1772" fill="white" transform="translate(0.289948 0.680511)" />
    </clipPath>
  </defs>
</svg>
  