<svg width="47" height="63" viewBox="0 0 47 63" fill="none" xmlns="http://www.w3.org/2000/svg">
  <g clip-path="url(#clip0_1_417)">
    <path
      d="M7.49909 61.1821C4.60801 61.1821 2.24487 58.8533 2.24487 55.989L2.1066 6.38729C2.1066 3.52301 4.4446 1.16933 7.34825 1.16933L38.4713 1.08215C41.375 1.08215 43.7381 3.41093 43.7381 6.27521L43.8764 55.877C43.8764 57.2593 43.3359 58.5669 42.3428 59.5632C41.3498 60.5594 40.03 61.0949 38.6347 61.1074L7.49909 61.1946V61.1821Z"
      fill="url(#paint0_radial_1_417)" />
    <path
      d="M38.4839 1.70481C41.023 1.70481 43.1096 3.75961 43.1096 6.2752L43.2479 55.877C43.2479 58.3925 41.1738 60.4722 38.6347 60.4722L7.51162 60.5594H7.49905C4.95993 60.5594 2.87333 58.5046 2.87333 55.989L2.73506 6.38728C2.73506 3.8717 4.8091 1.79198 7.34822 1.79198L38.4713 1.70481H38.4839ZM38.4839 0.459473H38.4713L7.34822 0.546646C4.10518 0.5591 1.4655 3.17431 1.47807 6.38728L1.61634 55.989C1.61634 59.1895 4.26859 61.8048 7.49905 61.8048L38.6347 61.7176C41.8777 61.7176 44.5048 59.0899 44.5048 55.877L44.3666 6.2752C44.3666 3.07468 41.7143 0.459473 38.4839 0.459473Z"
      fill="#38A5BE" />
    <path
      d="M39.3889 1.70481L6.4432 1.79198C4.40687 1.79198 2.73508 3.46073 2.73508 5.47818V10.2229L43.1222 10.1108V5.3661C43.1096 3.34865 41.4252 1.69235 39.3889 1.69235V1.70481Z"
      fill="#23A7E0" />
    <g filter="url(#filter0_d_1_417)">
      <path
        d="M11.7728 15.4409C14.8135 15.4409 17.2784 12.9988 17.2784 9.98628C17.2784 6.9738 14.8135 4.53171 11.7728 4.53171C8.73216 4.53171 6.26721 6.9738 6.26721 9.98628C6.26721 12.9988 8.73216 15.4409 11.7728 15.4409Z"
        fill="url(#paint1_radial_1_417)" />
    </g>
    <path
      d="M11.7728 14.9054C14.515 14.9054 16.738 12.703 16.738 9.98628C16.738 7.26955 14.515 5.0672 11.7728 5.0672C9.03069 5.0672 6.80774 7.26955 6.80774 9.98628C6.80774 12.703 9.03069 14.9054 11.7728 14.9054Z"
      fill="#F7F7FA" />
    <path
      d="M11.7603 9.9863C12.9752 9.9863 13.96 9.01058 13.96 7.80696C13.96 6.60335 12.9752 5.62762 11.7603 5.62762C10.5454 5.62762 9.56055 6.60335 9.56055 7.80696C9.56055 9.01058 10.5454 9.9863 11.7603 9.9863Z"
      fill="#23A7E0" />
    <path
      d="M11.7728 10.3225C10.0256 10.3225 8.45438 11.1196 7.42365 12.3649C8.26583 13.8842 9.91249 14.9178 11.7854 14.9178C13.6583 14.9178 15.2924 13.8717 16.1346 12.34C15.0913 11.1071 13.52 10.3225 11.7728 10.3225Z"
      fill="#23A7E0" />
    <g filter="url(#filter1_d_1_417)">
      <path
        d="M31.3568 7.0722C32.0232 7.0722 32.5635 6.53694 32.5635 5.87668C32.5635 5.21641 32.0232 4.68115 31.3568 4.68115C30.6903 4.68115 30.1501 5.21641 30.1501 5.87668C30.1501 6.53694 30.6903 7.0722 31.3568 7.0722Z"
        fill="#D4EEF7" />
    </g>
    <g filter="url(#filter2_d_1_417)">
      <path
        d="M35.1529 7.05975C35.8193 7.05975 36.3596 6.52449 36.3596 5.86422C36.3596 5.20396 35.8193 4.6687 35.1529 4.6687C34.4864 4.6687 33.9462 5.20396 33.9462 5.86422C33.9462 6.52449 34.4864 7.05975 35.1529 7.05975Z"
        fill="#D4EEF7" />
    </g>
    <g filter="url(#filter3_d_1_417)">
      <path
        d="M38.7981 7.0473C39.4646 7.0473 40.0049 6.51204 40.0049 5.85177C40.0049 5.1915 39.4646 4.65625 38.7981 4.65625C38.1317 4.65625 37.5914 5.1915 37.5914 5.85177C37.5914 6.51204 38.1317 7.0473 38.7981 7.0473Z"
        fill="#D4EEF7" />
    </g>
    <g filter="url(#filter4_d_1_417)">
      <path
        d="M38.1746 20.0574L8.71083 20.139C7.67645 20.1418 6.84026 20.9749 6.84315 21.9997L6.84413 22.3484C6.84702 23.3732 7.68789 24.2016 8.72227 24.1987L38.186 24.1172C39.2204 24.1144 40.0566 23.2813 40.0537 22.2565L40.0527 21.9078C40.0498 20.883 39.2089 20.0546 38.1746 20.0574Z"
        fill="#D4EEF7" />
    </g>
    <g filter="url(#filter5_d_1_417)">
      <path
        d="M39.1749 44.9364L7.85079 45.0231C7.33013 45.0245 6.90923 45.4439 6.91068 45.9597L6.91114 46.1216C6.91259 46.6374 7.33585 47.0544 7.85651 47.053L39.1806 46.9663C39.7012 46.9649 40.1221 46.5455 40.1207 46.0297L40.1202 45.8678C40.1188 45.352 39.6955 44.935 39.1749 44.9364Z"
        fill="#D4EEF7" />
    </g>
    <g filter="url(#filter6_d_1_417)">
      <path
        d="M39.1854 48.6973L7.86138 48.784C7.34072 48.7854 6.91982 49.2047 6.92127 49.7206L6.92173 49.8825C6.92318 50.3983 7.34644 50.8153 7.8671 50.8138L39.1912 50.7272C39.7118 50.7257 40.1327 50.3064 40.1313 49.7906L40.1308 49.6287C40.1294 49.1128 39.7061 48.6958 39.1854 48.6973Z"
        fill="#D4EEF7" />
    </g>
    <g filter="url(#filter7_d_1_417)">
      <path
        d="M39.1835 52.4582L7.85943 52.5449C7.33877 52.5463 6.91787 52.9657 6.91932 53.4815L6.91978 53.6434C6.92123 54.1592 7.34449 54.5762 7.86515 54.5748L39.1892 54.4881C39.7099 54.4867 40.1308 54.0673 40.1293 53.5515L40.1289 53.3896C40.1274 52.8738 39.7042 52.4568 39.1835 52.4582Z"
        fill="#D4EEF7" />
    </g>
    <path
      d="M12.3898 27.5883L11.5602 27.5906C8.96383 27.5978 6.86495 29.6889 6.8722 32.2611L6.87451 33.0831C6.88177 35.6554 8.99241 37.7348 11.5888 37.7276L12.4184 37.7253C15.0147 37.7181 17.1136 35.627 17.1064 33.0548L17.1041 32.2328C17.0968 29.6606 14.9862 27.5811 12.3898 27.5883Z"
      fill="#23A7E0" />
    <path
      d="M12.3881 26.9781L11.5585 26.9804C8.9621 26.9876 6.86321 29.0787 6.87046 31.651L6.87278 32.4729C6.88003 35.0452 8.99067 37.1246 11.587 37.1174L12.4166 37.1151C15.013 37.1079 17.1119 35.0169 17.1046 32.4446L17.1023 31.6226C17.0951 29.0504 14.9844 26.9709 12.3881 26.9781Z"
      fill="#F7F7FA" />
    <g opacity="0.58">
      <path
        d="M13.1111 29.3051L12.5203 29.3067C10.6529 29.3119 9.14324 30.8159 9.14845 32.666L9.1501 33.2513C9.15531 35.1014 10.6734 36.597 12.5408 36.5919L13.1316 36.5902C14.999 36.5851 16.5087 35.0811 16.5035 33.2309L16.5018 32.6456C16.4966 30.7955 14.9785 29.2999 13.1111 29.3051Z"
        fill="url(#paint2_radial_1_417)" />
    </g>
    <path
      d="M23.8786 27.569L23.049 27.5713C20.4526 27.5785 18.3537 29.6695 18.361 32.2418L18.3633 33.0637C18.3705 35.636 20.4812 37.7155 23.0775 37.7083L23.9071 37.706C26.5035 37.6988 28.6024 35.6077 28.5951 33.0354L28.5928 32.2135C28.5856 29.6412 26.4749 27.5618 23.8786 27.569Z"
      fill="#23A7E0" />
    <path
      d="M23.8768 26.9463L23.0472 26.9486C20.4508 26.9558 18.3519 29.0469 18.3592 31.6191L18.3615 32.4411C18.3688 35.0134 20.4794 37.0928 23.0758 37.0856L23.9054 37.0833C26.5017 37.0761 28.6006 34.985 28.5934 32.4128L28.5911 31.5908C28.5838 29.0186 26.4732 26.9391 23.8768 26.9463Z"
      fill="#F7F7FA" />
    <g opacity="0.58">
      <path
        d="M24.5998 29.2608L24.009 29.2625C22.1416 29.2676 20.632 30.7716 20.6372 32.6218L20.6388 33.2071C20.6441 35.0572 22.1621 36.5528 24.0296 36.5477L24.6204 36.546C26.4878 36.5409 27.9974 35.0368 27.9922 33.1867L27.9906 32.6014C27.9853 30.7513 26.4673 29.2557 24.5998 29.2608Z"
        fill="url(#paint3_radial_1_417)" />
    </g>
    <path
      d="M35.3673 27.5247L34.5377 27.527C31.9413 27.5342 29.8424 29.6253 29.8497 32.1976L29.852 33.0195C29.8592 35.5918 31.9699 37.6712 34.5662 37.664L35.3959 37.6617C37.9922 37.6546 40.0911 35.5635 40.0839 32.9912L40.0815 32.1693C40.0743 29.597 37.9636 27.5176 35.3673 27.5247Z"
      fill="#23A7E0" />
    <path
      d="M35.3656 26.9145L34.536 26.9168C31.9396 26.924 29.8407 29.0151 29.848 31.5874L29.8503 32.4093C29.8576 34.9816 31.9682 37.061 34.5646 37.0538L35.3942 37.0515C37.9905 37.0444 40.0894 34.9533 40.0822 32.381L40.0799 31.5591C40.0726 28.9868 37.962 26.9074 35.3656 26.9145Z"
      fill="#F7F7FA" />
    <g opacity="0.58">
      <path
        d="M36.0886 29.2415L35.4978 29.2431C33.6303 29.2483 32.1207 30.7523 32.1259 32.6024L32.1276 33.1877C32.1328 35.0378 33.6509 36.5334 35.5183 36.5283L36.1091 36.5266C37.9765 36.5215 39.4862 35.0175 39.4809 33.1673L39.4793 32.582C39.4741 30.7319 37.956 29.2363 36.0886 29.2415Z"
        fill="url(#paint4_radial_1_417)" />
    </g>
    <path
      d="M11.2574 41.705L10.7547 43.2119H10.1136L11.7477 38.4049H12.5019L14.1737 43.1994H13.5075L12.9795 41.6926H11.2574V41.705ZM12.8413 41.2193L12.3636 39.837C12.2505 39.5257 12.1876 39.2393 12.1122 38.9653H12.0996C12.0242 39.2517 11.9488 39.5381 11.8608 39.837L11.3831 41.2318H12.8413V41.2193Z"
      fill="#23A7E0" />
    <path
      d="M22.3693 38.4921C22.6458 38.4298 23.0732 38.3924 23.5131 38.3924C24.1416 38.3924 24.5439 38.4921 24.8455 38.7411C25.0969 38.9279 25.2478 39.2143 25.2478 39.5879C25.2478 40.0487 24.9461 40.4597 24.4307 40.6465C24.8958 40.771 25.4363 41.1446 25.4363 41.8669C25.4363 42.2779 25.2729 42.5892 25.0341 42.8258C24.6947 43.1372 24.1542 43.2741 23.3623 43.2741C22.9349 43.2741 22.5955 43.2492 22.3944 43.2243V38.5045L22.3693 38.4921ZM22.9978 40.4597H23.5634C24.2296 40.4597 24.6067 40.111 24.6067 39.6502C24.6067 39.0898 24.1668 38.8657 23.5383 38.8657C23.2492 38.8657 23.0857 38.8906 22.9852 38.9155V40.4597H22.9978ZM22.9978 42.7636C23.1235 42.7885 23.2994 42.7885 23.5257 42.7885C24.1793 42.7885 24.7701 42.5519 24.7701 41.8545C24.7701 41.1944 24.2045 40.9329 23.5131 40.9329H22.9978V42.7636Z"
      fill="#23A7E0" />
    <path
      d="M36.9503 43.0624C36.7241 43.1745 36.259 43.2866 35.6682 43.299C34.2981 43.299 33.2674 42.4522 33.2674 40.8706C33.2674 39.3638 34.2855 38.3426 35.7939 38.3426C36.3973 38.3426 36.7744 38.4671 36.9503 38.5543L36.7995 39.0649C36.5607 38.9528 36.2213 38.8656 35.8191 38.8656C34.6878 38.8656 33.9336 39.5879 33.9336 40.8457C33.9336 42.0163 34.6249 42.776 35.8065 42.776C36.1836 42.776 36.5732 42.7013 36.8246 42.5767L36.9503 43.0624Z"
      fill="#23A7E0" />
    <path
      d="M9.23372 32.3525L10.8175 34.8059C10.8678 34.8806 10.9809 34.893 11.0438 34.8308L15.6067 29.9366C15.6067 29.9366 15.6569 29.7996 15.6067 29.7498L15.0159 29.0649C14.9656 29.0026 14.865 29.0026 14.8022 29.0649L11.3957 32.8631C11.3329 32.9379 11.2198 32.9254 11.1695 32.8507L10.365 31.6427C10.3273 31.5804 10.2393 31.5555 10.1765 31.6053L9.27143 32.1657C9.20858 32.2031 9.18344 32.2903 9.23372 32.365V32.3525Z"
      fill="url(#paint5_radial_1_417)" />
    <path
      d="M9.05775 32.1533L10.6416 34.6066C10.6918 34.6813 10.805 34.6938 10.8678 34.6315L15.4307 29.7373C15.4307 29.7373 15.481 29.6004 15.4307 29.5505L14.8399 28.8656C14.7896 28.8033 14.6891 28.8033 14.6262 28.8656L11.2198 32.6639C11.1569 32.7386 11.0438 32.7262 10.9935 32.6514L10.189 31.4435C10.1513 31.3812 10.0633 31.3563 10.0005 31.4061L9.09546 31.9665C9.03261 32.0039 9.00747 32.091 9.05775 32.1658V32.1533Z"
      fill="#23A7E0" />
    <path
      d="M22.6332 42.116L19.4153 38.1434L17.7813 37.7324L16.8888 38.7287L17.203 39.6502L20.4712 43.6229C20.4712 43.6229 21.4517 43.1123 22.6332 42.116Z"
      fill="#FEBF29" />
    <path
      d="M13.3943 32.4646L15.5815 40.6838C15.5815 40.6838 20.2701 37.7947 20.974 36.7984L13.4069 32.4646H13.3943Z"
      fill="#FEBF29" />
  </g>
  <defs>
    <filter id="filter0_d_1_417" x="3.89872" y="3.34746" width="15.7482" height="15.6461"
      filterUnits="userSpaceOnUse" color-interpolation-filters="sRGB">
      <feFlood flood-opacity="0" result="BackgroundImageFix" />
      <feColorMatrix in="SourceAlpha" type="matrix"
        values="0 0 0 0 0 0 0 0 0 0 0 0 0 0 0 0 0 0 127 0" result="hardAlpha" />
      <feOffset dy="1.18425" />
      <feGaussianBlur stdDeviation="1.18425" />
      <feColorMatrix type="matrix"
        values="0 0 0 0 0.254902 0 0 0 0 0.490196 0 0 0 0 0.521569 0 0 0 0.31 0" />
      <feBlend mode="normal" in2="BackgroundImageFix" result="effect1_dropShadow_1_417" />
      <feBlend mode="normal" in="SourceGraphic" in2="effect1_dropShadow_1_417" result="shape" />
    </filter>
    <filter id="filter1_d_1_417" x="28.9754" y="4.09384" width="4.76266" height="4.74029"
      filterUnits="userSpaceOnUse" color-interpolation-filters="sRGB">
      <feFlood flood-opacity="0" result="BackgroundImageFix" />
      <feColorMatrix in="SourceAlpha" type="matrix"
        values="0 0 0 0 0 0 0 0 0 0 0 0 0 0 0 0 0 0 127 0" result="hardAlpha" />
      <feOffset dy="0.587309" />
      <feGaussianBlur stdDeviation="0.587309" />
      <feColorMatrix type="matrix"
        values="0 0 0 0 0.105882 0 0 0 0 0.290196 0 0 0 0 0.305882 0 0 0 0.31 0" />
      <feBlend mode="normal" in2="BackgroundImageFix" result="effect1_dropShadow_1_417" />
      <feBlend mode="normal" in="SourceGraphic" in2="effect1_dropShadow_1_417" result="shape" />
    </filter>
    <filter id="filter2_d_1_417" x="32.7715" y="4.08139" width="4.76266" height="4.74029"
      filterUnits="userSpaceOnUse" color-interpolation-filters="sRGB">
      <feFlood flood-opacity="0" result="BackgroundImageFix" />
      <feColorMatrix in="SourceAlpha" type="matrix"
        values="0 0 0 0 0 0 0 0 0 0 0 0 0 0 0 0 0 0 127 0" result="hardAlpha" />
      <feOffset dy="0.587309" />
      <feGaussianBlur stdDeviation="0.587309" />
      <feColorMatrix type="matrix"
        values="0 0 0 0 0.105882 0 0 0 0 0.290196 0 0 0 0 0.305882 0 0 0 0.31 0" />
      <feBlend mode="normal" in2="BackgroundImageFix" result="effect1_dropShadow_1_417" />
      <feBlend mode="normal" in="SourceGraphic" in2="effect1_dropShadow_1_417" result="shape" />
    </filter>
    <filter id="filter3_d_1_417" x="36.4168" y="4.06894" width="4.76266" height="4.74029"
      filterUnits="userSpaceOnUse" color-interpolation-filters="sRGB">
      <feFlood flood-opacity="0" result="BackgroundImageFix" />
      <feColorMatrix in="SourceAlpha" type="matrix"
        values="0 0 0 0 0 0 0 0 0 0 0 0 0 0 0 0 0 0 127 0" result="hardAlpha" />
      <feOffset dy="0.587309" />
      <feGaussianBlur stdDeviation="0.587309" />
      <feColorMatrix type="matrix"
        values="0 0 0 0 0.105882 0 0 0 0 0.290196 0 0 0 0 0.305882 0 0 0 0.31 0" />
      <feBlend mode="normal" in2="BackgroundImageFix" result="effect1_dropShadow_1_417" />
      <feBlend mode="normal" in="SourceGraphic" in2="effect1_dropShadow_1_417" result="shape" />
    </filter>
    <filter id="filter4_d_1_417" x="4.47465" y="18.8732" width="37.9475" height="8.87828"
      filterUnits="userSpaceOnUse" color-interpolation-filters="sRGB">
      <feFlood flood-opacity="0" result="BackgroundImageFix" />
      <feColorMatrix in="SourceAlpha" type="matrix"
        values="0 0 0 0 0 0 0 0 0 0 0 0 0 0 0 0 0 0 127 0" result="hardAlpha" />
      <feOffset dy="1.18425" />
      <feGaussianBlur stdDeviation="1.18425" />
      <feColorMatrix type="matrix"
        values="0 0 0 0 0.286275 0 0 0 0 0.764706 0 0 0 0 0.807843 0 0 0 0.34 0" />
      <feBlend mode="normal" in2="BackgroundImageFix" result="effect1_dropShadow_1_417" />
      <feBlend mode="normal" in="SourceGraphic" in2="effect1_dropShadow_1_417" result="shape" />
    </filter>
    <filter id="filter5_d_1_417" x="4.54218" y="43.7522" width="37.947" height="6.85353"
      filterUnits="userSpaceOnUse" color-interpolation-filters="sRGB">
      <feFlood flood-opacity="0" result="BackgroundImageFix" />
      <feColorMatrix in="SourceAlpha" type="matrix"
        values="0 0 0 0 0 0 0 0 0 0 0 0 0 0 0 0 0 0 127 0" result="hardAlpha" />
      <feOffset dy="1.18425" />
      <feGaussianBlur stdDeviation="1.18425" />
      <feColorMatrix type="matrix"
        values="0 0 0 0 0.286275 0 0 0 0 0.764706 0 0 0 0 0.807843 0 0 0 0.34 0" />
      <feBlend mode="normal" in2="BackgroundImageFix" result="effect1_dropShadow_1_417" />
      <feBlend mode="normal" in="SourceGraphic" in2="effect1_dropShadow_1_417" result="shape" />
    </filter>
    <filter id="filter6_d_1_417" x="4.55277" y="47.5131" width="37.947" height="6.85353"
      filterUnits="userSpaceOnUse" color-interpolation-filters="sRGB">
      <feFlood flood-opacity="0" result="BackgroundImageFix" />
      <feColorMatrix in="SourceAlpha" type="matrix"
        values="0 0 0 0 0 0 0 0 0 0 0 0 0 0 0 0 0 0 127 0" result="hardAlpha" />
      <feOffset dy="1.18425" />
      <feGaussianBlur stdDeviation="1.18425" />
      <feColorMatrix type="matrix"
        values="0 0 0 0 0.286275 0 0 0 0 0.764706 0 0 0 0 0.807843 0 0 0 0.34 0" />
      <feBlend mode="normal" in2="BackgroundImageFix" result="effect1_dropShadow_1_417" />
      <feBlend mode="normal" in="SourceGraphic" in2="effect1_dropShadow_1_417" result="shape" />
    </filter>
    <filter id="filter7_d_1_417" x="4.55082" y="51.274" width="37.947" height="6.85353"
      filterUnits="userSpaceOnUse" color-interpolation-filters="sRGB">
      <feFlood flood-opacity="0" result="BackgroundImageFix" />
      <feColorMatrix in="SourceAlpha" type="matrix"
        values="0 0 0 0 0 0 0 0 0 0 0 0 0 0 0 0 0 0 127 0" result="hardAlpha" />
      <feOffset dy="1.18425" />
      <feGaussianBlur stdDeviation="1.18425" />
      <feColorMatrix type="matrix"
        values="0 0 0 0 0.286275 0 0 0 0 0.764706 0 0 0 0 0.807843 0 0 0 0.34 0" />
      <feBlend mode="normal" in2="BackgroundImageFix" result="effect1_dropShadow_1_417" />
      <feBlend mode="normal" in="SourceGraphic" in2="effect1_dropShadow_1_417" result="shape" />
    </filter>
    <radialGradient id="paint0_radial_1_417" cx="0" cy="0" r="1" gradientUnits="userSpaceOnUse"
      gradientTransform="translate(18.001 13.4891) rotate(56.9164) scale(25.1129 20.4189)">
      <stop stop-color="#E7F5F9" />
      <stop offset="1" stop-color="#70CFEE" />
    </radialGradient>
    <radialGradient id="paint1_radial_1_417" cx="0" cy="0" r="1" gradientUnits="userSpaceOnUse"
      gradientTransform="translate(11.6282 10.2985) rotate(-0.158517) scale(5.80729 5.75346)">
      <stop stop-color="#E7F5F9" />
      <stop offset="1" stop-color="#BAE5F2" />
    </radialGradient>
    <radialGradient id="paint2_radial_1_417" cx="0" cy="0" r="1" gradientUnits="userSpaceOnUse"
      gradientTransform="translate(13.1943 32.057) rotate(-0.158517) scale(11.1998 11.096)">
      <stop offset="0.01" stop-color="#DCEFE3" />
      <stop offset="1" stop-color="#97D7E0" />
    </radialGradient>
    <radialGradient id="paint3_radial_1_417" cx="0" cy="0" r="1" gradientUnits="userSpaceOnUse"
      gradientTransform="translate(24.683 32.0253) rotate(-0.158517) scale(11.1998 11.096)">
      <stop offset="0.01" stop-color="#DCEFE3" />
      <stop offset="1" stop-color="#97D7E0" />
    </radialGradient>
    <radialGradient id="paint4_radial_1_417" cx="0" cy="0" r="1" gradientUnits="userSpaceOnUse"
      gradientTransform="translate(36.1717 31.9934) rotate(-0.158517) scale(11.1998 11.0959)">
      <stop offset="0.01" stop-color="#DCEFE3" />
      <stop offset="1" stop-color="#97D7E0" />
    </radialGradient>
    <radialGradient id="paint5_radial_1_417" cx="0" cy="0" r="1" gradientUnits="userSpaceOnUse"
      gradientTransform="translate(9.72743 27.1782) rotate(-0.158517) scale(8.03217 7.9577)">
      <stop stop-color="#E7F5F9" />
      <stop offset="1" stop-color="#BAE5F2" />
    </radialGradient>
    <clipPath id="clip0_1_417">
      <rect width="45.2516" height="61.6193" fill="white" transform="translate(0.887299 0.459473)" />
    </clipPath>
  </defs>
</svg>
  