<svg width="73" height="56" viewBox="0 0 73 56" fill="none" xmlns="http://www.w3.org/2000/svg">
  <g clip-path="url(#clip0_1_44)">
    <path
      d="M31.4377 18.9186L28.6262 53.1064C28.6262 53.1064 28.3339 55.1827 29.8371 55.1827C32.3146 55.1827 42.1826 55.1827 42.1826 55.1827C42.1826 55.1827 40.3175 54.756 40.3314 53.7748C40.3593 52.6371 43.6161 18.5915 43.6161 18.5915L31.4238 18.9186H31.4377Z"
      fill="url(#paint0_radial_1_44)" />
    <path
      d="M42.9898 54.5712C42.5027 54.5712 33.08 54.5996 30.6583 54.5712C29.6005 54.5712 29.4196 53.6183 29.4056 53.0068C29.4056 52.7082 29.4335 52.4949 29.4335 52.4949L29.5031 51.6131L29.684 49.352L29.851 47.3468L30.0598 44.7727L30.2407 42.5969L32.245 18.3071L44.4373 17.98C44.4373 17.98 43.0594 32.2296 42.0851 42.5969C41.9738 43.7488 41.8763 44.8581 41.7789 45.8962C41.7511 46.2233 41.7232 46.5504 41.6954 46.8633C41.6119 47.8445 41.5284 48.7405 41.4449 49.5368C41.4031 49.9493 41.3753 50.3475 41.3475 50.703C41.2222 52.0967 41.1526 52.9926 41.1526 53.1633C41.1526 53.2628 41.1526 53.3481 41.1804 53.4335C41.3753 54.5285 42.7949 54.5569 42.9759 54.5569L42.9898 54.5712Z"
      fill="#23A7E0" />
    <path
      d="M1.83368 0.317261L8.69535 28.4468L9.62787 32.3008L12.8291 45.4127H72.1345L60.3736 0.317261H1.83368Z"
      fill="#23A7E0" />
    <path d="M1.83371 0.317261L0.887268 0.644349L11.5625 46.3798L12.8291 45.4127L1.83371 0.317261Z"
      fill="#0C6D94" />
    <path d="M11.5625 46.3798H70.5061L72.1345 45.4127H12.8291L11.5625 46.3798Z" fill="#0C6D94" />
    <path d="M32.2589 55.1969H45.0219V54.5712H32.2589V55.1969Z" fill="url(#paint1_radial_1_44)" />
    <path
      d="M69.2674 37.0933L59.636 0.914552H1.73625L1.83368 0.317261H60.3736L69.9633 37.0222L69.2674 37.0933Z"
      fill="url(#paint2_radial_1_44)" />
    <path
      d="M41.7789 46.3798L41.7093 46.8633L29.7118 49.3378L29.8789 47.3326L29.9484 46.3798H41.7789Z"
      fill="#0C6D94" />
    <path
      d="M42.9898 54.5712C42.5027 54.5712 33.08 54.5996 30.6583 54.5712C29.6005 54.5712 29.4196 53.6184 29.4056 53.0068L41.3475 50.7172C41.2222 52.1109 41.1526 53.0068 41.1526 53.1775C41.1526 53.277 41.1526 53.3624 41.1804 53.4477C41.3753 54.5427 42.7949 54.5712 42.9759 54.5712H42.9898Z"
      fill="#AEE1F3" />
    <path d="M38.8839 36.2827L12.8291 45.4127L9.62788 32.3008L38.8839 36.2827Z" fill="#AEE1F3" />
    <path d="M1.83368 0.317261H60.3736L69.8658 36.5529H10.3655L1.83368 0.317261Z" fill="#80D1EC" />
    <path
      d="M44.0476 41.1321C43.8806 40.2504 43.0316 39.5251 42.1686 39.5251C41.3057 39.5251 40.7351 40.2504 40.9021 41.1321C41.0691 42.0139 41.9181 42.7391 42.781 42.7391C43.644 42.7391 44.2146 42.0139 44.0476 41.1321Z"
      fill="#0C6D94" />
    <path
      d="M67.11 34.9886H12.3002L6.09265 9.71748L5.61943 7.78339L5.2158 6.13373L4.89568 4.81116L4.25545 2.25134H58.272L58.3137 2.39355L58.9679 4.81116L59.3158 6.13373L59.7612 7.78339L60.2901 9.71748L67.11 34.9886Z"
      fill="#E0EDF9" />
    <path
      d="M67.11 35.0739H12.3002L6.09265 9.80281L5.61943 7.86872L5.2158 6.21906L4.89568 4.89649L4.25545 2.35089H58.272L58.3137 2.47888L58.9679 4.89649L59.3158 6.21906L59.7612 7.86872L60.2901 9.80281L67.11 35.0739Z"
      fill="#E0EDF9" />
    <path d="M58.9679 4.81116H4.89568L4.25545 2.25134H58.2581L58.3137 2.39355L58.9679 4.81116Z"
      fill="#A2C4E7" />
    <path
      d="M5.75862 3.53125C5.68903 3.26105 5.85605 3.04773 6.1205 3.04773C6.38494 3.04773 6.64939 3.26105 6.71898 3.53125C6.78857 3.80145 6.62155 4.01477 6.35711 4.01477C6.09266 4.01477 5.82821 3.80145 5.75862 3.53125Z"
      fill="#E0EDF9" />
    <path
      d="M7.34529 3.53125C7.2757 3.26105 7.44272 3.04773 7.70717 3.04773C7.97161 3.04773 8.23606 3.26105 8.30565 3.53125C8.37524 3.80145 8.20822 4.01477 7.94378 4.01477C7.67933 4.01477 7.41488 3.80145 7.34529 3.53125Z"
      fill="#E0EDF9" />
    <path
      d="M9.02939 3.53125C8.9598 3.26105 9.12682 3.04773 9.39126 3.04773C9.65571 3.04773 9.92015 3.26105 9.98975 3.53125C10.0593 3.80145 9.89232 4.01477 9.62787 4.01477C9.36343 4.01477 9.09898 3.80145 9.02939 3.53125Z"
      fill="#E0EDF9" />
    <path
      d="M29.3778 35.0739H23.9636C23.908 34.6472 23.8662 34.1779 23.8244 33.7086C23.7549 32.8554 23.6992 31.931 23.6574 30.9782C23.6574 30.7506 23.6435 30.5373 23.6296 30.3098C23.6296 30.0254 23.6157 29.7409 23.6018 29.4423C23.6018 28.9445 23.5739 28.4468 23.5739 27.9491C23.5739 27.3091 23.56 26.6691 23.56 26.0292C23.56 25.8728 23.56 25.7021 23.56 25.5457C23.56 25.3892 23.56 25.247 23.56 25.0906C23.56 23.7111 23.5878 22.3601 23.6157 21.0944C23.6713 18.3071 23.7827 15.989 23.8384 14.8655C23.8662 14.4105 23.8801 14.1545 23.8801 14.1545C23.8801 14.1545 23.9775 14.1687 24.1028 14.1971C24.2002 14.2256 24.3116 14.254 24.4508 14.2967C24.576 14.3394 24.7152 14.382 24.8544 14.4389C25.1049 14.5385 25.3554 14.6522 25.606 14.8087C26.0096 15.0646 26.3715 15.4059 26.5385 15.861C26.6777 16.245 27.0117 18.2929 27.4153 21.0233C27.4153 21.0944 27.4432 21.1798 27.4432 21.2651C27.6519 22.7156 27.8886 24.3369 28.1252 25.9865C28.3757 27.7357 28.6123 29.5418 28.8489 31.2057C29.0438 32.6278 29.2247 33.9646 29.3778 35.0881V35.0739Z"
      fill="url(#paint3_linear_1_44)" />
    <path
      d="M27.8607 35.0739H21.5558C21.4305 34.5477 21.3192 34.0357 21.2217 33.5522C20.9434 32.2296 20.7624 31.1346 20.7764 30.5515C20.7764 30.2813 20.8877 30.068 21.0547 29.8974C21.18 29.7836 21.3331 29.6983 21.5001 29.6272C22.029 29.4138 22.7945 29.3854 23.6017 29.4423C23.8801 29.4565 24.1446 29.485 24.4229 29.5134C25.9261 29.6983 27.3179 30.0822 27.3179 30.0822C27.3179 30.0822 27.4153 30.4662 27.5267 31.1346C27.6102 31.6324 27.7076 32.3008 27.7633 33.0971C27.805 33.5522 27.8329 34.05 27.8468 34.5904C27.8468 34.7468 27.8468 34.9175 27.8607 35.0739Z"
      fill="#FEBF29" />
    <path
      d="M24.9379 30.5515L24.8683 31.0208L24.5621 33.282L24.5064 33.666L24.3116 35.0739H17.7422C17.6865 34.1495 17.6448 33.2393 17.6308 32.4572C17.6308 32.3718 17.6308 32.2865 17.6308 32.2012C17.6308 31.0208 17.7283 30.1391 18.0623 29.9116C18.4381 29.6556 19.6907 29.7267 21.0269 29.8974C21.1661 29.9116 21.2913 29.9258 21.4305 29.9542C22.2099 30.0538 22.9894 30.196 23.6018 30.3098C23.9219 30.3667 24.2142 30.4235 24.4229 30.4662C24.7291 30.5231 24.924 30.5658 24.924 30.5658L24.9379 30.5515Z"
      fill="#C45B4F" />
    <path
      d="M17.6447 15.3206C17.6447 15.3206 21.2496 12.9315 23.8523 14.1545C24.2698 14.3536 24.7291 14.894 25.0771 15.278C26.0096 16.3303 27.8468 33.0829 27.8468 33.0829C27.8468 33.0829 22.6553 34.8748 17.6587 32.4714V15.3349L17.6447 15.3206Z"
      fill="white" />
    <path
      d="M24.061 14.0834C24.061 14.0834 27.7215 15.6193 28.2087 16.7854C28.6958 17.9515 30.3103 25.1901 30.3103 26.0292C30.3103 26.8682 27.5128 26.2141 27.0535 24.8488C26.6777 23.7111 25.4111 20.2269 24.743 18.0226L24.0471 14.0692L24.061 14.0834Z"
      fill="url(#paint4_linear_1_44)" />
    <path
      d="M23.2955 15.2495C22.5022 15.4059 21.3191 15.2495 20.4701 14.6664C20.8598 13.7136 21.0129 12.9741 21.0686 12.4906C21.0686 12.4622 21.0686 12.4337 21.0686 12.4195C21.0965 12.1635 21.0965 11.9929 21.0686 11.9218H23.1285C23.1285 11.9218 23.6992 12.192 23.6992 12.3626C23.6992 12.4622 23.6992 12.5475 23.6992 12.647C23.6992 12.8888 23.6992 13.1021 23.727 13.287C23.7688 13.8843 23.8383 14.1545 23.8383 14.1545C23.8383 14.1545 24.0889 15.0931 23.2816 15.2637L23.2955 15.2495Z"
      fill="#F9AC7D" />
    <path
      d="M23.7409 13.2728C22.1821 13.5857 21.2635 12.7039 21.0686 12.4906C21.0408 12.4622 21.0269 12.4337 21.0269 12.4337C21.0408 12.4337 21.0547 12.4195 21.0825 12.4053C21.6671 12.1635 22.9893 12.3626 23.727 12.6328C23.727 12.8746 23.727 13.0879 23.7548 13.2728H23.7409Z"
      fill="#DF8E5F" />
    <path
      d="M20.5676 11.5662C20.8459 13.1021 22.7806 13.0452 23.6296 12.9599C23.8662 12.9315 24.0193 12.903 24.0193 12.903C24.2837 12.8319 24.4368 12.4053 24.5064 11.8364C24.6456 10.7272 24.4647 9.09175 24.2837 8.67933C24.0054 8.0536 23.4904 7.37098 21.5279 7.86872C19.5794 8.35224 20.2196 9.60371 20.5676 11.5662Z"
      fill="#F9AC7D" />
    <path
      d="M24.3394 7.82606C24.075 7.44208 23.5043 6.987 22.9893 6.70258C21.8898 6.09107 20.4702 6.7168 20.4702 6.73102C18.8696 7.44208 18.452 8.69355 19.301 10.6419C20.1918 12.6897 21.0408 12.4622 21.0408 12.4622C21.0408 12.4622 20.8599 12.3484 20.8738 11.7084C20.8738 11.6658 20.8738 11.6373 20.8738 11.6089C20.8738 11.4809 20.832 11.3529 20.7346 11.2534C20.5397 11.0685 20.4423 10.5281 20.6093 10.3717C20.8042 10.1868 21.0965 10.4143 21.18 10.585C21.2635 10.713 21.4027 10.7556 21.5279 10.6703C22.029 10.3432 21.7089 9.70326 22.1821 9.31928C22.6553 8.92109 23.6157 9.2624 24.3255 8.94953C25.258 8.594 24.5203 8.1247 24.3255 7.84028L24.3394 7.82606Z"
      fill="url(#paint5_linear_1_44)" />
    <path
      d="M24.6038 35.0739H16.7401C16.7957 33.41 16.8653 31.419 16.9488 29.3996C16.9628 28.8734 16.9906 28.3472 17.0045 27.8353C17.0045 27.6077 17.0184 27.3944 17.0323 27.1811C17.1994 22.7156 17.3803 18.6768 17.4081 18.4493C17.4916 17.9515 17.5752 17.5391 17.6587 17.1694C17.9092 16.1028 18.2154 15.5339 18.8835 15.0362C18.9531 14.9793 19.482 14.7091 19.9552 14.4673C20.3449 14.2683 20.6789 14.0976 20.6928 14.0976C20.7763 14.1403 20.8599 14.254 20.9434 14.4105C21.0408 14.5811 21.1243 14.7944 21.2217 15.0504C21.5836 15.989 21.9733 17.4396 22.2378 18.5204C22.4048 19.2172 22.53 19.7576 22.5718 19.9141C22.6275 20.1701 22.711 20.682 22.8084 21.3789C22.9337 22.3175 23.0868 23.5974 23.2538 25.0337C23.2677 25.1759 23.2816 25.3324 23.3095 25.4888C23.3234 25.6594 23.3512 25.8301 23.3651 26.015C23.3651 26.015 23.3651 26.1287 23.379 26.1856C23.4347 26.7545 23.5043 27.3518 23.56 27.9491C23.6157 28.4468 24.3533 28.8023 24.3951 29.3001C24.3951 29.3427 24.3951 29.4138 24.3951 29.5134C24.3951 29.7267 24.409 30.068 24.4229 30.452C24.4229 30.6226 24.4229 30.8075 24.4368 31.0066C24.4647 31.8457 24.5064 32.77 24.5343 33.2109C24.5343 33.2251 24.5343 33.2536 24.5343 33.2962C24.5343 33.3816 24.5343 33.5095 24.5343 33.6802C24.5343 34.0215 24.5343 34.5193 24.5343 35.0881L24.6038 35.0739Z"
      fill="url(#paint6_linear_1_44)" />
    <path
      d="M19.2314 20.2554C19.2314 20.2554 19.1062 24.7777 22.4326 25.3323C25.7591 25.887 23.5461 26.0292 23.5461 26.0292C23.5461 26.0292 17.2968 25.759 17.1994 25.5883C17.1019 25.4177 19.2453 20.2696 19.2453 20.2696L19.2314 20.2554Z"
      fill="#FEBF29" />
    <path
      d="M22.0429 27.2522C22.0429 27.2522 21.9872 27.2949 21.862 27.3802C21.3609 27.7073 19.8578 28.6174 17.6587 29.2147C17.4221 29.2716 17.1855 29.3427 16.9489 29.3996C16.9628 28.8734 16.9906 28.3472 17.0045 27.8353C16.7122 27.8068 16.4339 27.7784 16.1833 27.7215C16.1833 27.6504 16.1973 27.5793 16.2112 27.5224C16.4896 27.4086 16.7679 27.2949 17.0324 27.1811C17.2551 27.0958 17.4638 27.0104 17.6587 26.9393C18.5634 26.5838 19.2314 26.3563 19.2314 26.3563L21.8898 27.2238L22.0429 27.2806V27.2522Z"
      fill="#FEBF29" />
    <path
      d="M22.7388 27.1811C22.7388 27.1811 22.3909 27.2664 21.8481 27.3802C20.8459 27.5793 19.1618 27.878 17.6448 27.8637C17.4221 27.8637 17.1994 27.8637 16.9906 27.8353C16.6983 27.8068 16.42 27.7784 16.1694 27.7215C15.6127 27.6077 15.1534 27.3944 14.8611 27.0816C12.6203 24.7493 16.0859 16.373 16.8097 15.5482C17.6587 14.5953 19.2175 14.2682 20.0665 14.1545C20.1083 14.1545 20.1361 14.1545 20.1639 14.1545C20.4701 14.1118 20.665 14.1118 20.665 14.1118C20.665 14.1118 20.5954 14.3394 20.4841 14.7091C20.4423 14.8513 20.3866 15.022 20.331 15.2069C19.8021 16.9703 18.786 20.4403 18.3407 22.3886C18.1736 23.0996 18.0901 23.6116 18.1319 23.768C18.3128 24.4364 20.1222 24.7777 21.2635 24.9342C21.7367 24.991 22.1125 25.0337 22.1821 25.0337C22.1821 25.0337 22.1821 25.0337 22.196 25.0337L22.2656 25.3181L22.4187 25.9865L22.5718 26.6407L22.711 27.2096L22.7388 27.1811Z"
      fill="url(#paint7_linear_1_44)" />
    <path d="M29.002 31.2057L21.2913 30.8644L22.8641 21.0518L30.5608 21.3931L29.002 31.2057Z"
      fill="#23A7E0" />
    <path
      d="M22.2238 25.0195C22.2238 25.0195 23.727 24.9057 23.7966 25.2755C23.9775 26.1145 22.5022 26.7972 22.029 26.7403C21.5558 26.6976 21.8759 24.9626 22.2238 25.0195Z"
      fill="#F9AC7D" />
    <path
      d="M30.1433 23.3841C30.1433 23.3841 28.7097 22.929 28.5566 23.2561C28.1948 24.024 29.4613 25.0337 29.9345 25.1049C30.4077 25.176 30.4913 23.4125 30.1433 23.3841Z"
      fill="#F9AC7D" />
    <path
      d="M20.8459 13.5999C20.8459 13.5999 20.2196 13.9127 19.8995 14.3678C19.8995 14.3678 22.2517 18.5488 22.2517 18.5062C22.2517 18.4635 21.4583 14.126 20.8459 13.5856V13.5999Z"
      fill="#FEBF29" />
    <path
      d="M23.7827 13.6567C23.9915 13.7421 24.3951 14.1545 24.4786 14.382L24.757 18.0369C24.757 18.0369 24.1585 15.3491 23.8523 14.1403C23.7688 13.8274 23.7827 13.7421 23.7827 13.6567Z"
      fill="#FEBF29" />
    <path
      d="M25.4111 21.1656C25.4111 21.1656 25.4668 20.8953 25.8286 20.9238C26.1766 20.9522 28.153 21.0518 28.153 21.0518C28.153 21.0518 28.5288 21.0518 28.5009 21.2935L25.425 21.1656H25.4111Z"
      fill="#0C6D94" />
    <path
      d="M23.1564 11.9218C23.1564 11.9218 23.4069 12.1635 23.8244 12.0924C24.075 12.0498 24.2002 11.7227 24.2002 11.7227C24.2002 11.7227 23.727 11.6374 23.1564 11.9218Z"
      fill="white" />
    <path d="M59.6638 14.9651L53.9713 14.9935L52.1341 7.76916L57.8266 7.75494L59.6638 14.9651Z"
      fill="white" />
    <path d="M56.407 8.69354L54.027 8.70776L53.9991 8.60821L56.3791 8.59399L56.407 8.69354Z"
      fill="#9FC2E6" />
    <path d="M56.7967 8.99219L53.7903 9.00641L53.7625 8.90686L56.7688 8.89264L56.7967 8.99219Z"
      fill="#9FC2E6" />
    <path d="M57.6178 10.4712L53.7207 10.4854L53.6929 10.3716L57.59 10.3574L57.6178 10.4712Z"
      fill="#9FC2E6" />
    <path d="M57.7013 10.8125L53.8182 10.8267L53.7903 10.7272L57.6735 10.713L57.7013 10.8125Z"
      fill="#9FC2E6" />
    <path d="M57.7988 11.168L53.9017 11.1823L53.8738 11.0827L57.7709 11.0685L57.7988 11.168Z"
      fill="#9FC2E6" />
    <path d="M57.8823 11.5236L53.9991 11.5378L53.9713 11.424L57.8544 11.4098L57.8823 11.5236Z"
      fill="#9FC2E6" />
    <path d="M57.9797 11.8791L54.0826 11.8933L54.0548 11.7795L57.9519 11.7653L57.9797 11.8791Z"
      fill="#9FC2E6" />
    <path d="M58.1885 12.7324L54.3053 12.7466L54.2775 12.6328L58.1606 12.6186L58.1885 12.7324Z"
      fill="#9FC2E6" />
    <path d="M58.2859 13.0879L54.3888 13.1021L54.361 12.9883L58.2581 12.9741L58.2859 13.0879Z"
      fill="#9FC2E6" />
    <path d="M58.3694 13.4292L54.4862 13.4434L54.4584 13.3439L58.3416 13.3297L58.3694 13.4292Z"
      fill="#9FC2E6" />
    <path d="M58.4668 13.7847L54.5697 13.799L54.5419 13.6994L58.439 13.6852L58.4668 13.7847Z"
      fill="#9FC2E6" />
    <path d="M58.5503 14.1403L54.6672 14.1545L54.6393 14.0407L58.5225 14.0265L58.5503 14.1403Z"
      fill="#9FC2E6" />
    <path d="M61.9603 23.9387L56.2678 23.9671L54.4166 16.7427L60.1092 16.7285L61.9603 23.9387Z"
      fill="white" />
    <path d="M58.7035 17.6671L56.3095 17.6813L56.2956 17.5676H58.6756L58.7035 17.6671Z"
      fill="#9FC2E6" />
    <path d="M59.0793 17.9658L56.0868 17.98L56.059 17.8662H59.0514L59.0793 17.9658Z" fill="#9FC2E6" />
    <path d="M59.9143 19.4305L56.0172 19.459L55.9894 19.3452L59.8865 19.331L59.9143 19.4305Z"
      fill="#9FC2E6" />
    <path d="M59.9979 19.7861L56.1008 19.8003L56.0729 19.7007L59.97 19.6865L59.9979 19.7861Z"
      fill="#9FC2E6" />
    <path d="M60.0814 20.1416L56.1982 20.1558L56.1703 20.0563L60.0535 20.0278L60.0814 20.1416Z"
      fill="#9FC2E6" />
    <path d="M60.1788 20.4971L56.2817 20.5114L56.2538 20.3976L60.1509 20.3834L60.1788 20.4971Z"
      fill="#9FC2E6" />
    <path d="M60.2623 20.8527L56.3791 20.8669L56.3513 20.7531L60.2345 20.7389L60.2623 20.8527Z"
      fill="#9FC2E6" />
    <path d="M60.485 21.7059L56.5879 21.7202L56.574 21.6064L60.4572 21.5922L60.485 21.7059Z"
      fill="#9FC2E6" />
    <path d="M60.5824 22.0615L56.6853 22.0757L56.6575 21.9619L60.5546 21.9477L60.5824 22.0615Z"
      fill="#9FC2E6" />
    <path d="M60.6659 22.4028L56.7688 22.417L56.741 22.3174L60.6381 22.3032L60.6659 22.4028Z"
      fill="#9FC2E6" />
    <path d="M60.7634 22.7583L56.8663 22.7725L56.8384 22.673L60.7355 22.6588L60.7634 22.7583Z"
      fill="#9FC2E6" />
    <path d="M60.8469 23.1138L56.9498 23.1281L56.9219 23.0143L60.819 23.0001L60.8469 23.1138Z"
      fill="#9FC2E6" />
    <path d="M64.2707 32.9691L58.5782 32.9976L56.7271 25.7732L62.4196 25.759L64.2707 32.9691Z"
      fill="white" />
    <path d="M61.0139 26.6976L58.62 26.7118L58.5921 26.6122L60.986 26.598L61.0139 26.6976Z"
      fill="#9FC2E6" />
    <path d="M61.3897 26.9962L58.3973 27.0104L58.3694 26.9109L61.3618 26.8967L61.3897 26.9962Z"
      fill="#9FC2E6" />
    <path d="M62.2109 28.4752L58.3277 28.4894L58.2998 28.3757L62.183 28.3615L62.2109 28.4752Z"
      fill="#9FC2E6" />
    <path d="M62.3083 28.8165L58.4112 28.8307L58.3833 28.7312L62.2804 28.717L62.3083 28.8165Z"
      fill="#9FC2E6" />
    <path d="M62.3918 29.1721L58.5086 29.1863L58.4808 29.0867L62.3639 29.0725L62.3918 29.1721Z"
      fill="#9FC2E6" />
    <path d="M62.4892 29.5276L58.5921 29.5418L58.5643 29.428L62.4614 29.4138L62.4892 29.5276Z"
      fill="#9FC2E6" />
    <path d="M62.5727 29.8831L58.6895 29.8973L58.6617 29.7836L62.5449 29.7693L62.5727 29.8831Z"
      fill="#9FC2E6" />
    <path d="M62.7954 30.7364L58.8983 30.7506L58.8705 30.6368L62.7676 30.6226L62.7954 30.7364Z"
      fill="#9FC2E6" />
    <path d="M62.8789 31.0919L58.9957 31.1061L58.9679 30.9924L62.865 30.9781L62.8789 31.0919Z"
      fill="#9FC2E6" />
    <path d="M62.9764 31.4332L59.0793 31.4474L59.0514 31.3479L62.9485 31.3337L62.9764 31.4332Z"
      fill="#9FC2E6" />
    <path d="M63.0599 31.7888L59.1767 31.803L59.1488 31.7034L63.032 31.6892L63.0599 31.7888Z"
      fill="#9FC2E6" />
    <path d="M63.1573 32.1443L59.2602 32.1585L59.2324 32.0447L63.1295 32.0305L63.1573 32.1443Z"
      fill="#9FC2E6" />
    <path
      d="M56.7827 33.0404L36.8797 33.1115L31.1454 10.6989L33.7481 7.84039L50.3247 7.78351L56.7827 33.0404Z"
      fill="white" />
    <path d="M44.8409 11.5662L37.8262 11.5947L37.7566 11.2818L44.7713 11.2534L44.8409 11.5662Z"
      fill="#9FC2E6" />
    <path d="M45.9683 12.4479L37.1581 12.4764L37.0746 12.1635L45.8848 12.1351L45.9683 12.4479Z"
      fill="#9FC2E6" />
    <path d="M48.3901 16.757L36.9493 16.7996L36.8658 16.4868L48.3065 16.4441L48.3901 16.757Z"
      fill="#9FC2E6" />
    <path d="M48.6545 17.7951L37.2137 17.8378L37.1302 17.5249L48.571 17.4822L48.6545 17.7951Z"
      fill="#9FC2E6" />
    <path d="M48.919 18.8333L37.4782 18.8759L37.3947 18.563L48.8354 18.5204L48.919 18.8333Z"
      fill="#9FC2E6" />
    <path d="M49.1834 19.8714L37.7426 19.9141L37.6591 19.6012L49.0999 19.5585L49.1834 19.8714Z"
      fill="#9FC2E6" />
    <path d="M49.4478 20.8953L38.0071 20.9522L37.9236 20.6251L49.3643 20.5825L49.4478 20.8953Z"
      fill="#9FC2E6" />
    <path d="M50.0881 23.4267L38.6473 23.4694L38.5638 23.1565L50.0046 23.0996L50.0881 23.4267Z"
      fill="#9FC2E6" />
    <path d="M50.3525 24.4506L38.9118 24.4933L38.8282 24.1804L50.269 24.1378L50.3525 24.4506Z"
      fill="#9FC2E6" />
    <path d="M50.617 25.4888L39.1762 25.5314L39.0927 25.2186L50.5335 25.1759L50.617 25.4888Z"
      fill="#9FC2E6" />
    <path d="M50.8814 26.5269L39.4407 26.5696L39.3571 26.2567L50.7979 26.2141L50.8814 26.5269Z"
      fill="#9FC2E6" />
    <path d="M51.1459 27.5651L39.7051 27.6077L39.6216 27.2949L51.0623 27.2522L51.1459 27.5651Z"
      fill="#9FC2E6" />
    <path d="M31.1454 10.6987L34.4719 10.6845L33.7481 7.84027L31.1454 10.6987Z" fill="#9FC2E6" />
  </g>
  <defs>
    <radialGradient id="paint0_radial_1_44" cx="0" cy="0" r="1" gradientUnits="userSpaceOnUse"
      gradientTransform="translate(36.1281 36.8942) scale(13.7373 14.0363)">
      <stop stop-color="#00849D" />
      <stop offset="0.99" stop-color="#318697" />
    </radialGradient>
    <radialGradient id="paint1_radial_1_44" cx="0" cy="0" r="1" gradientUnits="userSpaceOnUse"
      gradientTransform="translate(38.6334 54.884) scale(4.52341 4.62188)">
      <stop stop-color="#00849D" />
      <stop offset="0.99" stop-color="#318697" />
    </radialGradient>
    <radialGradient id="paint2_radial_1_44" cx="0" cy="0" r="1" gradientUnits="userSpaceOnUse"
      gradientTransform="translate(35.8637 18.7053) scale(27.2658 27.8594)">
      <stop stop-color="#00849D" />
      <stop offset="0.99" stop-color="#318697" />
    </radialGradient>
    <linearGradient id="paint3_linear_1_44" x1="23.5461" y1="24.6071" x2="29.3778" y2="24.6071"
      gradientUnits="userSpaceOnUse">
      <stop stop-color="#FFCA28" />
      <stop offset="0.01" stop-color="#FFCA28" />
      <stop offset="0.51" stop-color="#FDD82A" />
      <stop offset="1" stop-color="#FDDC2D" />
    </linearGradient>
    <linearGradient id="paint4_linear_1_44" x1="24.061" y1="20.2554" x2="30.3242" y2="20.2554"
      gradientUnits="userSpaceOnUse">
      <stop stop-color="#FFCA28" />
      <stop offset="0.01" stop-color="#FFCA28" />
      <stop offset="0.51" stop-color="#FDD82A" />
      <stop offset="1" stop-color="#FDDC2D" />
    </linearGradient>
    <linearGradient id="paint5_linear_1_44" x1="18.8835" y1="9.44727" x2="24.8126" y2="9.44727"
      gradientUnits="userSpaceOnUse">
      <stop stop-color="#1D2254" />
      <stop offset="1" stop-color="#293984" />
    </linearGradient>
    <linearGradient id="paint6_linear_1_44" x1="16.7401" y1="24.5786" x2="24.6039" y2="24.5786"
      gradientUnits="userSpaceOnUse">
      <stop stop-color="#FFCA28" />
      <stop offset="0.01" stop-color="#FFCA28" />
      <stop offset="0.51" stop-color="#FDD82A" />
      <stop offset="1" stop-color="#FDDC2D" />
    </linearGradient>
    <linearGradient id="paint7_linear_1_44" x1="14.1234" y1="20.9807" x2="22.7527" y2="20.9807"
      gradientUnits="userSpaceOnUse">
      <stop stop-color="#FFCA28" />
      <stop offset="0.01" stop-color="#FFCA28" />
      <stop offset="0.51" stop-color="#FDD82A" />
      <stop offset="1" stop-color="#FDDC2D" />
    </linearGradient>
    <clipPath id="clip0_1_44">
      <rect width="71.2473" height="54.8797" fill="white" transform="translate(0.887268 0.317261)" />
    </clipPath>
  </defs>
</svg>
  